<svg width="700" height="750" viewBox="0 0 700 750" fill="none" xmlns="http://www.w3.org/2000/svg">
<rect width="700" height="750" rx="35" fill="#EFF1FF"/>
<path d="M435.975 72.7423V78.2599H427.283C427.308 82.9718 430.115 88.0988 437.586 90.3693L434.217 95.7892C429.285 94.3976 425.892 91.4923 423.865 87.8058C421.888 91.8097 418.445 94.9591 413.318 96.4728L409.949 91.004C417.42 88.8068 420.252 83.4357 420.252 78.2599H411.609V72.7423H420.252V68.006H427.332V72.7423H435.975ZM418.299 111.805V98.1329H425.33V106.19H449.354V111.805H418.299ZM434.51 86.2189V80.6036H441.346V67.7618H448.328V100.916H441.346V86.2189H434.51ZM491.541 67.7618V100.428H484.559V90.2716H474.72C472.547 92.4445 469.52 93.7628 466.15 93.7384C459.339 93.7628 454.09 88.7579 454.139 82.0685C454.09 75.257 459.339 70.3009 466.15 70.3009C469.52 70.3009 472.571 71.6193 474.744 73.8165H484.559V67.7618H491.541ZM460.779 82.0685C460.779 85.5841 463.001 87.5128 466.15 87.5372C469.08 87.5128 471.375 85.5841 471.375 82.0685C471.375 78.504 469.08 76.5265 466.15 76.5509C463.001 76.5265 460.779 78.504 460.779 82.0685ZM461.512 111.805V97.1564H468.543V106.19H492.566V111.805H461.512ZM477.771 79.3829C477.967 80.2374 478.064 81.1407 478.064 82.0685C478.064 82.9718 477.967 83.8263 477.771 84.6564H484.559V79.3829H477.771ZM517.713 94.9591C527.088 94.9103 532.947 98.1573 532.947 103.699C532.947 109.315 527.088 112.61 517.713 112.635C508.167 112.61 502.21 109.315 502.234 103.699C502.21 98.1573 508.167 94.9103 517.713 94.9591ZM497.986 91.6876V70.545H504.92V75.8673H512.879V70.545H519.91V91.6876H497.986ZM504.92 86.2189H512.879V81.2384H504.92V86.2189ZM509.266 103.699C509.241 106.068 512.146 107.166 517.713 107.166C523.23 107.166 525.989 106.068 526.014 103.699C525.989 101.356 523.23 100.355 517.713 100.33C512.146 100.355 509.241 101.356 509.266 103.699ZM525.477 93.9825V67.713H532.508V77.8693H538.318V83.6798H532.508V93.9825H525.477ZM565.516 71.6193V77.2345H561.805V96.0822C563.44 95.9601 565.052 95.7892 566.59 95.5939L566.932 100.623C557.874 102.259 547.791 102.454 540.174 102.479L539.441 96.8146C540.931 96.8146 542.542 96.8146 544.227 96.7902V77.2345H540.564V71.6193H565.516ZM551.014 96.6681L555.066 96.5216V77.2345H551.014V96.6681ZM568.543 112.537V67.713H575.574V84.5099H581.922V90.174H575.574V112.537H568.543ZM622.107 67.713V112.537H615.467V67.713H622.107ZM582.215 99.0607C588.904 94.9103 590.979 86.9025 590.955 79.4806V77.674H584.021V72.0587H604.09V77.674H597.742V79.4806C597.718 86.8292 599.671 94.2755 606.336 98.0841L602.283 103.211C598.401 100.965 595.911 97.254 594.422 92.7863C592.908 97.6691 590.345 101.819 586.414 104.236L582.215 99.0607ZM600.965 88.465V82.8497H606.336V68.3478H612.879V110.535H606.336V88.465H600.965ZM636.561 104.139L632.215 118.25H626.502L628.846 104.139H636.561ZM528.65 150.184C528.626 155.75 531.409 161.268 538.904 163.611L535.193 169.129C530.384 167.542 527.137 164.515 525.208 160.633C523.206 164.857 519.739 168.177 514.637 169.861L510.73 164.344C518.641 161.951 521.521 155.97 521.57 150.135V145.496H528.65V150.184ZM517.957 186.805V172.254H525.086V181.19H548.865V186.805H517.957ZM540.32 175.477V142.762H547.352V155.457H553.162V161.365H547.352V175.477H540.32ZM593.982 148.084V153.651H556.531V148.084H571.717V143.104H578.748V148.084H593.982ZM554.871 183.192V177.576H571.717V172.767C564.222 172.034 559.705 168.909 559.705 164.051C559.705 158.558 565.662 155.237 575.232 155.262C584.632 155.237 590.687 158.558 590.662 164.051C590.687 168.885 586.121 172.034 578.748 172.767V177.576H595.838V183.192H554.871ZM566.98 164.051C566.956 166.419 569.715 167.371 575.232 167.371C580.604 167.371 583.436 166.419 583.436 164.051C583.436 161.707 580.604 160.731 575.232 160.731C569.715 160.731 566.956 161.707 566.98 164.051ZM639.051 176.893V182.606H598.084V176.893H615.076V168.592H622.01V176.893H639.051ZM599.207 164.637C609.729 163.489 614.222 158.533 614.856 154.139H601.551V148.572H615.076V143.152H622.01V148.572H635.584V154.139H622.229C622.84 158.533 627.332 163.489 637.928 164.637L635.389 170.154C627.186 169.178 621.546 165.955 618.519 161.585C615.516 165.955 609.925 169.178 601.746 170.154L599.207 164.637Z" fill="black"/>
<path d="M220.575 141.701C253.916 125.864 262.978 94.6593 284.343 100.6V164.366H56.2751V150.126C69.8312 143.081 155.534 122.039 173.888 128.101C197.475 135.892 199.102 151.9 220.575 141.701Z" fill="url(#paint0_linear_262_29)"/>
<path d="M149.877 109.48C124.912 70.2434 75.7577 79.0782 54.3008 88.4002V188.459H283.356V166.114C269.741 155.059 237.199 153.181 212.404 156.05C192.506 158.352 181.082 158.526 149.877 109.48Z" fill="url(#paint1_linear_262_29)"/>
<path d="M208.814 374.25C208.8 377.839 211.51 381.149 215.348 382.482L214.176 384.328C211.217 383.244 208.917 381.047 207.76 378.293C206.661 381.398 204.303 383.786 201.227 384.973L199.967 383.127C203.937 381.735 206.544 378.205 206.559 374.162V370.939H208.814V374.25ZM204.156 394.816V386.73H206.5V392.883H221.617V394.816H204.156ZM218.131 388.576V369.328H220.416V377.326H224.342V379.289H220.416V388.576H218.131ZM248.482 373.195V375.1H227.154V373.195H236.705V369.768H238.961V373.195H248.482ZM225.982 392.326V390.422H236.705V386.76C232.062 386.511 229.264 384.709 229.293 381.779C229.264 378.688 232.53 376.857 237.848 376.887C243.092 376.857 246.417 378.688 246.402 381.779C246.417 384.709 243.561 386.511 238.961 386.76V390.422H249.83V392.326H225.982ZM231.607 381.779C231.578 383.757 233.966 384.899 237.848 384.914C241.686 384.899 244.073 383.757 244.059 381.779C244.073 379.846 241.686 378.703 237.848 378.703C233.966 378.703 231.578 379.846 231.607 381.779ZM275.758 390.158V392.092H251.91V390.158H262.662V384.182H264.918V390.158H275.758ZM253.229 383.303C258.253 382.497 262.604 379.465 262.633 375.393H254.137V373.488H262.662V369.885H264.918V373.488H273.473V375.393H264.977C264.977 379.465 269.327 382.497 274.322 383.303L273.443 385.119C269.283 384.387 265.46 382.277 263.79 379.011C262.149 382.277 258.326 384.387 254.137 385.119L253.229 383.303ZM298.902 377.238V379.084H281.061V370.295H283.346V377.238H298.902ZM277.809 384.504V382.629H301.656V384.504H277.809ZM280.914 394.729V387.17H283.199V392.824H299.049V394.729H280.914ZM324.508 371.438V373.283H314.811V376.975H324.01V378.879H314.811V382.775C319.923 382.746 322.779 382.629 326.207 382.014L326.471 383.859C322.882 384.533 319.879 384.65 314.488 384.65H312.525V371.438H324.508ZM315.367 394.816V386.877H317.623V392.883H332.857V394.816H315.367ZM329.371 388.605V369.328H331.656V377.443H335.582V379.377H331.656V388.605H329.371ZM345.982 374.25C345.968 377.839 348.678 381.149 352.516 382.482L351.344 384.328C348.385 383.244 346.085 381.047 344.928 378.293C343.829 381.398 341.471 383.786 338.395 384.973L337.135 383.127C341.104 381.735 343.712 378.205 343.727 374.162V370.939H345.982V374.25ZM341.324 394.816V386.73H343.668V392.883H358.785V394.816H341.324ZM355.299 388.576V369.328H357.584V377.326H361.51V379.289H357.584V388.576H355.299ZM370.328 370.852C372.555 370.837 374.444 371.672 375.646 373.078H382.428V369.328H384.742V384.299H382.428V380.871H375.646C374.444 382.277 372.555 383.112 370.328 383.127C366.432 383.112 363.546 380.593 363.561 376.975C363.546 373.356 366.432 370.837 370.328 370.852ZM365.758 376.975C365.758 379.436 367.662 381.164 370.328 381.193C372.906 381.164 374.84 379.436 374.84 376.975C374.84 374.558 372.906 372.785 370.328 372.785C367.662 372.785 365.758 374.558 365.758 376.975ZM367.721 395.021V385.646H384.742V395.021H367.721ZM370.006 393.146H382.486V387.521H370.006V393.146ZM376.729 374.982C376.949 375.598 377.066 376.271 377.066 376.975C377.066 377.663 376.949 378.308 376.759 378.908H382.428V374.982H376.729ZM418.199 369.328V385.266H415.885V377.824H408.473V375.979H415.885V369.328H418.199ZM398.043 383.479V371.174H410.025V373.049H400.328V381.574C404.942 381.574 407.975 381.398 411.461 380.725L411.725 382.629C408.019 383.317 404.898 383.464 399.977 383.479H398.043ZM400.826 390.48C400.812 387.36 404.137 385.544 409.557 385.529C414.962 385.544 418.287 387.36 418.287 390.48C418.287 393.586 414.962 395.344 409.557 395.373C404.137 395.344 400.812 393.586 400.826 390.48ZM403.111 390.48C403.097 392.385 405.558 393.542 409.557 393.527C413.541 393.542 416.002 392.385 416.002 390.48C416.002 388.547 413.541 387.39 409.557 387.375C405.558 387.39 403.097 388.547 403.111 390.48ZM429.537 371.35C433.082 371.364 435.646 374.411 435.997 379.289H441.842V369.328H444.127V395.432H441.842V381.193H436.026C435.777 386.306 433.17 389.499 429.537 389.484C425.685 389.499 422.989 385.983 423.004 380.432C422.989 374.895 425.685 371.364 429.537 371.35ZM425.201 380.432C425.216 384.665 426.974 387.448 429.537 387.434C432.086 387.448 433.873 384.665 433.873 380.432C433.873 376.198 432.086 373.415 429.537 373.4C426.974 373.415 425.216 376.198 425.201 380.432ZM469.967 369.328V395.432H467.682V369.328H469.967ZM449.928 373.664V371.76H462.057V381.018H452.33V387.17C456.651 387.185 460.504 386.979 465.162 386.232L465.396 388.166C460.606 388.913 456.651 389.104 452.154 389.104H449.986V379.143H459.742V373.664H449.928ZM482.916 371.232C487.003 371.247 489.903 373.737 489.918 377.355C489.903 380.988 487.003 383.464 482.916 383.479C478.8 383.464 475.87 380.988 475.885 377.355C475.87 373.737 478.8 371.247 482.916 371.232ZM474.537 387.727C479.342 387.741 485.978 387.697 491.734 386.848L491.91 388.547C485.948 389.66 479.547 389.689 474.859 389.689L474.537 387.727ZM478.141 377.355C478.126 379.787 480.133 381.457 482.916 381.457C485.67 381.457 487.677 379.787 487.662 377.355C487.677 374.938 485.67 373.254 482.916 373.254C480.133 373.254 478.126 374.938 478.141 377.355ZM493.463 395.432V369.328H495.748V395.432H493.463ZM528.209 369.328V375.773H532.135V377.648H528.209V384.416H525.924V369.328H528.209ZM508.346 377.033C508.331 373.4 511.231 370.896 515.172 370.91C519.142 370.896 521.998 373.4 522.027 377.033C521.998 380.651 519.142 383.142 515.172 383.156C511.231 383.142 508.331 380.651 508.346 377.033ZM510.602 377.033C510.587 379.494 512.535 381.193 515.172 381.223C517.838 381.193 519.757 379.494 519.771 377.033C519.757 374.587 517.838 372.844 515.172 372.873C512.535 372.844 510.587 374.587 510.602 377.033ZM511.773 395.021V385.646H528.209V395.021H511.773ZM514.029 393.146H525.924V387.521H514.029V393.146ZM557.623 390.158V392.092H533.775V390.158H544.527V384.182H546.783V390.158H557.623ZM535.094 383.303C540.118 382.497 544.469 379.465 544.498 375.393H536.002V373.488H544.527V369.885H546.783V373.488H555.338V375.393H546.842C546.842 379.465 551.192 382.497 556.188 383.303L555.309 385.119C551.148 384.387 547.325 382.277 545.655 379.011C544.015 382.277 540.191 384.387 536.002 385.119L535.094 383.303ZM583.551 390.217V392.15H559.703V390.217H570.426V385.295H562.691V377.268H578.277V373.166H562.633V371.262H580.533V379.143H564.977V383.391H581.148V385.295H572.682V390.217H583.551ZM614.635 369.328V395.432H612.32V369.328H614.635ZM594.127 380.432C594.142 374.895 596.896 371.364 600.777 371.35C604.645 371.364 607.442 374.895 607.428 380.432C607.442 385.983 604.645 389.499 600.777 389.484C596.896 389.499 594.142 385.983 594.127 380.432ZM596.354 380.432C596.354 384.665 598.17 387.448 600.777 387.434C603.399 387.448 605.201 384.665 605.201 380.432C605.201 376.198 603.399 373.415 600.777 373.4C598.17 373.415 596.354 376.198 596.354 380.432ZM640.006 370.383V377.15H624.303V380.52H640.562V382.424H621.988V375.334H637.662V372.258H621.93V370.383H640.006ZM619.059 387.023V385.178H642.906V387.023H632.066V395.432H629.781V387.023H619.059ZM207.057 416.35C210.602 416.364 213.165 419.411 213.517 424.289H219.361V414.328H221.646V440.432H219.361V426.193H213.546C213.297 431.306 210.689 434.499 207.057 434.484C203.204 434.499 200.509 430.983 200.523 425.432C200.509 419.895 203.204 416.364 207.057 416.35ZM202.721 425.432C202.735 429.665 204.493 432.448 207.057 432.434C209.605 432.448 211.393 429.665 211.393 425.432C211.393 421.198 209.605 418.415 207.057 418.4C204.493 418.415 202.735 421.198 202.721 425.432ZM247.574 414.328V440.373H245.26V429.152H239.928V427.219H245.26V423.615H239.928V421.682H245.26V414.328H247.574ZM225.807 433.576C229.527 431.716 232.677 426.706 232.691 422.062V418.928H226.744V417.023H240.953V418.928H235.006V422.062C235.021 426.149 238.126 431.057 241.832 432.932L240.455 434.689C237.599 433.195 235.108 429.973 233.907 426.398C232.75 430.324 230.201 433.723 227.33 435.334L225.807 433.576ZM268.258 431.818C268.243 434.118 269.488 436.564 271.964 437.971C274.454 436.433 275.772 433.825 275.758 431.818V430.383H278.014V431.818C277.999 434.499 279.977 437.165 283.316 438.322L282.174 440.021C279.566 439.099 277.75 437.282 276.842 435.1C276.036 437.209 274.439 439.216 272.037 440.227C269.503 439.26 267.892 437.355 267.115 435.173C266.178 437.268 264.391 439.084 261.9 440.021L260.729 438.322C264.024 437.092 266.002 434.309 266.031 431.818V430.383H268.258V431.818ZM260.055 421.975C260.04 418.342 262.926 415.866 266.881 415.881C270.836 415.866 273.692 418.342 273.707 421.975C273.692 425.549 270.836 428.01 266.881 428.01C262.926 428.01 260.04 425.549 260.055 421.975ZM262.311 421.975C262.281 424.392 264.2 426.091 266.881 426.105C269.532 426.091 271.451 424.392 271.451 421.975C271.451 419.543 269.532 417.814 266.881 417.844C264.2 417.814 262.281 419.543 262.311 421.975ZM278.658 429.24V414.357H280.943V429.24H278.658ZM292.369 416.35C295.914 416.364 298.478 419.411 298.829 424.289H304.674V414.328H306.959V440.432H304.674V426.193H298.858C298.609 431.306 296.002 434.499 292.369 434.484C288.517 434.499 285.821 430.983 285.836 425.432C285.821 419.895 288.517 416.364 292.369 416.35ZM288.033 425.432C288.048 429.665 289.806 432.448 292.369 432.434C294.918 432.448 296.705 429.665 296.705 425.432C296.705 421.198 294.918 418.415 292.369 418.4C289.806 418.415 288.048 421.198 288.033 425.432ZM332.008 416.613V421.623H338.102V414.357H340.416V433.371H338.102V423.498H332.008V428.684H320.055V416.613H332.008ZM322.34 426.838H329.752V418.518H322.34V426.838ZM323.688 439.816V431.613H326.002V437.883H341.148V439.816H323.688ZM364.908 414.328V424.582H369.273V426.574H364.908V440.373H362.623V414.328H364.908ZM345.836 434.133V416.555H348.121V423.439H355.738V416.555H358.023V434.133H345.836ZM348.121 432.199H355.738V425.285H348.121V432.199ZM390.836 414.328V424.641H395.201V426.574H390.836V440.432H388.551V414.328H390.836ZM371.822 433.898V416.877H383.98V418.781H374.107V431.965C378.824 431.95 382.149 431.745 386.031 431.027L386.324 433.02C382.237 433.752 378.824 433.898 373.873 433.898H371.822ZM418.932 414.328V440.373H416.705V414.328H418.932ZM396.93 425.578C396.944 420.041 399.142 416.54 402.525 416.525C405.689 416.54 407.828 419.587 408.121 424.494H411.49V414.885H413.688V439.055H411.49V426.398H408.136C407.916 431.467 405.733 434.646 402.525 434.631C399.142 434.646 396.944 431.115 396.93 425.578ZM399.098 425.578C399.068 429.797 400.416 432.463 402.525 432.434C404.649 432.463 405.997 429.797 405.982 425.578C405.997 421.345 404.649 418.693 402.525 418.693C400.416 418.693 399.068 421.345 399.098 425.578ZM431.705 421.33C431.69 426.047 434.723 430.793 438.502 432.521L437.125 434.396C434.166 432.873 431.72 429.768 430.562 426.062C429.405 429.958 426.959 433.298 424 434.865L422.506 433.02C426.329 431.145 429.347 426.135 429.361 421.33V416.584H431.705V421.33ZM435.66 425.109V423.234H441.842V414.328H444.127V440.432H441.842V425.109H435.66ZM469.586 415.793V426.398H457.369V415.793H469.586ZM459.625 424.582H467.33V417.668H459.625V424.582ZM460.562 430.91V429.064H477.467V435.275H462.877V438.205H478.404V440.08H460.592V433.576H475.211V430.91H460.562ZM475.211 427.775V414.328H477.467V427.775H475.211ZM503.482 414.328V440.432H501.197V429.328H495.777V427.395H501.197V422.209H495.982V420.275H501.197V414.328H503.482ZM482.828 418.605V416.701H494.283V425.959H485.201V432.375C489.112 432.375 492.35 432.229 496.305 431.613L496.51 433.547C492.35 434.191 489.01 434.338 484.85 434.338H482.916V424.084H492.027V418.605H482.828ZM519.713 416.027C525.25 416.057 529.234 418.752 529.234 422.854C529.234 426.735 525.777 429.299 520.826 429.636V435.1H531.695V437.033H507.848V435.1H518.57V429.636C513.648 429.284 510.191 426.721 510.191 422.854C510.191 418.752 514.19 416.057 519.713 416.027ZM512.418 422.854C512.403 425.856 515.494 427.805 519.713 427.834C523.932 427.805 527.008 425.856 527.008 422.854C527.008 419.909 523.932 417.917 519.713 417.932C515.494 417.917 512.403 419.909 512.418 422.854ZM554.84 422.238V424.084H536.998V415.295H539.283V422.238H554.84ZM533.746 429.504V427.629H557.594V429.504H533.746ZM536.852 439.729V432.17H539.137V437.824H554.986V439.729H536.852ZM575.084 419.777C575.084 422.224 576.417 425.446 579.112 427.263C581.778 425.49 583.111 422.341 583.111 419.777V416.438H585.426V419.777C585.411 422.956 587.286 426.267 590.729 427.717L589.439 429.475C586.891 428.317 585.133 426.179 584.254 423.674C583.404 426.208 581.705 428.552 579.098 429.768C576.446 428.522 574.732 426.091 573.897 423.542C573.004 426.032 571.217 428.288 568.727 429.475L567.496 427.717C570.821 426.193 572.77 422.663 572.799 419.777V416.438H575.084V419.777ZM567.232 436.857V434.953H591.051V436.857H567.232ZM617.535 424.729V426.662H613.316V440.373H611.031V414.328H613.316V424.729H617.535ZM594.244 433.752V416.906H596.529V431.818C600.338 431.818 604.22 431.525 608.512 430.617L608.805 432.58C604.308 433.488 600.265 433.752 596.324 433.752H594.244ZM632.652 416.906V433.84H620.611V416.906H632.652ZM622.867 431.965H630.396V418.752H622.867V431.965ZM638.248 440.432V414.328H640.562V440.432H638.248ZM224.43 469.729V471.662H220.211V485.373H217.926V459.328H220.211V469.729H224.43ZM201.139 478.752V461.906H203.424V476.818C207.232 476.818 211.114 476.525 215.406 475.617L215.699 477.58C211.202 478.488 207.159 478.752 203.219 478.752H201.139ZM254.986 460.295V462.199H250.973V467.912H254.898V469.758H246.52V472.98H257.242V474.855H233.512V472.98H244.234V469.758H235.826V467.912H239.752V462.199H235.738V460.295H254.986ZM236.148 479.367V477.463H254.312V485.373H251.998V479.367H236.148ZM242.037 467.912H248.688V462.199H242.037V467.912ZM283.17 472.043V473.918H272.418V476.452C277.34 476.657 280.24 478.195 280.27 480.891C280.24 483.747 276.9 485.314 271.305 485.314C265.65 485.314 262.325 483.747 262.311 480.891C262.325 478.21 265.211 476.657 270.162 476.467V473.918H259.439V472.043H283.17ZM261.666 462.229V460.324H280.914V462.229H276.9V467.707H280.826V469.611H261.754V467.707H265.68V462.229H261.666ZM264.654 480.891C264.64 482.59 267.13 483.557 271.305 483.527C275.436 483.557 277.926 482.59 277.926 480.891C277.926 479.191 275.436 478.21 271.305 478.225C267.13 478.21 264.64 479.191 264.654 480.891ZM267.965 467.707H274.615V462.229H267.965V467.707ZM305.904 463.84V465.715H292.838V463.84H298.258V460.119H300.543V463.84H305.904ZM293.775 473.391C293.775 469.934 296.134 467.487 299.371 467.473C302.652 467.487 304.996 469.934 305.025 473.391C304.996 476.892 302.652 479.353 299.371 479.367C296.134 479.353 293.775 476.892 293.775 473.391ZM295.826 473.391C295.826 475.705 297.306 477.36 299.371 477.346C301.451 477.36 302.975 475.705 302.975 473.391C302.975 471.105 301.451 469.436 299.371 469.406C297.306 469.436 295.826 471.105 295.826 473.391ZM307.252 484.084V459.973H309.42V470.314H312.877V459.328H315.074V485.373H312.877V472.219H309.42V484.084H307.252ZM326.207 460.295C330.104 460.31 332.931 462.683 332.945 466.066C332.931 469.465 330.104 471.809 326.207 471.809C322.267 471.809 319.425 469.465 319.439 466.066C319.425 462.683 322.267 460.31 326.207 460.295ZM321.695 466.066C321.666 468.352 323.585 469.934 326.207 469.934C328.785 469.934 330.719 468.352 330.719 466.066C330.719 463.811 328.785 462.214 326.207 462.229C323.585 462.214 321.666 463.811 321.695 466.066ZM323.395 475.822V473.977H340.328V480.246H325.709V483.176H341.266V485.021H323.453V478.518H338.043V475.822H323.395ZM338.043 472.717V459.328H340.328V472.717H338.043ZM368.6 480.217V482.15H344.752V480.217H355.475V475.295H347.74V467.268H363.326V463.166H347.682V461.262H365.582V469.143H350.025V473.391H366.197V475.295H357.73V480.217H368.6ZM394.498 474.797V476.672H383.629V485.373H381.373V476.672H370.65V474.797H394.498ZM373.697 471.633V460.412H375.982V464.016H389.107V460.412H391.422V471.633H373.697ZM375.982 469.758H389.107V465.891H375.982V469.758ZM418.199 459.328V485.432H415.914V471.076H410.406V469.172H415.914V459.328H418.199ZM397.809 479.133V461.73H409.967V463.635H400.123V469.055H408.824V470.93H400.123V477.229C404.898 477.214 407.975 477.082 411.549 476.438L411.812 478.342C408.019 478.957 404.84 479.133 399.801 479.133H397.809ZM443.072 463.84V465.715H430.006V463.84H435.426V460.119H437.711V463.84H443.072ZM430.943 473.391C430.943 469.934 433.302 467.487 436.539 467.473C439.82 467.487 442.164 469.934 442.193 473.391C442.164 476.892 439.82 479.353 436.539 479.367C433.302 479.353 430.943 476.892 430.943 473.391ZM432.994 473.391C432.994 475.705 434.474 477.36 436.539 477.346C438.619 477.36 440.143 475.705 440.143 473.391C440.143 471.105 438.619 469.436 436.539 469.406C434.474 469.436 432.994 471.105 432.994 473.391ZM444.42 484.084V459.973H446.588V470.314H450.045V459.328H452.242V485.373H450.045V472.219H446.588V484.084H444.42ZM476.354 459.328V467.268H480.279V469.201H476.354V478.547H474.068V459.328H476.354ZM456.49 467.59C456.476 463.811 459.435 461.188 463.316 461.174C467.228 461.188 470.143 463.811 470.172 467.59C470.143 471.354 467.228 474.006 463.316 474.006C459.435 474.006 456.476 471.354 456.49 467.59ZM458.746 467.59C458.731 470.153 460.738 471.984 463.316 471.984C465.938 471.984 467.901 470.153 467.916 467.59C467.901 465.012 465.938 463.195 463.316 463.195C460.738 463.195 458.731 465.012 458.746 467.59ZM460.064 484.816V476.555H462.32V482.883H477.555V484.816H460.064ZM493.785 459.797C499.571 459.797 502.97 461.394 502.984 464.279C502.97 467.238 499.571 468.835 493.785 468.85C487.97 468.835 484.557 467.238 484.557 464.279C484.557 461.394 487.97 459.797 493.785 459.797ZM481.92 472.482V470.607H505.65V472.482H481.92ZM484.791 476.496V474.738H502.604V480.568H487.135V483.264H503.395V485.08H484.85V478.869H500.348V476.496H484.791ZM486.959 464.279C486.93 466.096 489.464 467.092 493.785 467.092C498.106 467.092 500.626 466.096 500.641 464.279C500.626 462.565 498.106 461.54 493.785 461.525C489.464 461.54 486.93 462.565 486.959 464.279ZM524.693 467.326C524.708 471.75 527.916 476.247 531.754 477.902L530.465 479.719C527.418 478.342 524.796 475.339 523.58 471.735C522.364 475.559 519.728 478.869 516.754 480.363L515.377 478.547C519.112 476.76 522.364 471.838 522.379 467.326V463.928H516.227V462.023H530.904V463.928H524.693V467.326ZM534.537 485.373V459.328H536.852V485.373H534.537ZM555.279 462.053C555.25 469.567 552.54 476.511 543.121 481.125L541.832 479.279C546.725 476.936 549.742 473.933 551.383 470.402L542.33 471.281L541.949 469.23L552.115 468.557C552.584 467.106 552.862 465.568 552.979 463.957H543.268V462.053H555.279ZM560.523 485.373V459.328H562.838V485.373H560.523ZM588.297 467.238V469.084H570.455V460.295H572.74V467.238H588.297ZM567.203 474.504V472.629H591.051V474.504H567.203ZM570.309 484.729V477.17H572.594V482.824H588.443V484.729H570.309ZM208.932 510.568C208.946 514.04 211.686 517.058 215.553 518.273L214.41 520.119C211.407 519.138 209.02 517.072 207.848 514.392C206.72 517.263 204.347 519.489 201.285 520.559L200.143 518.771C203.995 517.482 206.661 514.245 206.676 510.568V509.719H200.787V507.844H206.676V504.504H208.99V507.844H214.82V509.719H208.932V510.568ZM204.918 529.816V522.053H207.232V527.883H222.379V529.816H204.918ZM213.912 514.289V512.385H219.332V504.357H221.646V523.811H219.332V514.289H213.912ZM247.574 504.357V523.605H245.26V516.574H238.521C237.32 518.112 235.387 519.035 233.16 519.035C229.264 519.035 226.378 516.34 226.393 512.531C226.378 508.708 229.264 506.013 233.16 505.998C235.372 506.013 237.276 506.921 238.492 508.43H245.26V504.357H247.574ZM228.59 512.531C228.59 515.139 230.494 516.999 233.16 516.984C235.724 516.999 237.672 515.139 237.672 512.531C237.672 509.938 235.724 508.063 233.16 508.049C230.494 508.063 228.59 509.938 228.59 512.531ZM230.846 529.816V521.584H233.16V527.883H248.307V529.816H230.846ZM239.532 510.334C239.767 511.008 239.898 511.74 239.898 512.531C239.898 513.293 239.767 514.011 239.547 514.67H245.26V510.334H239.532ZM263.922 520.705C269.269 520.705 272.506 522.463 272.506 525.51C272.506 528.586 269.269 530.344 263.922 530.373C258.561 530.344 255.294 528.586 255.279 525.51C255.294 522.463 258.561 520.705 263.922 520.705ZM253.023 517.98V505.969H255.279V509.953H262.867V505.969H265.152V517.98H253.023ZM255.279 516.105H262.867V511.77H255.279V516.105ZM257.594 525.51C257.564 527.385 259.996 528.498 263.922 528.498C267.862 528.498 270.265 527.385 270.279 525.51C270.265 523.649 267.862 522.551 263.922 522.521C259.996 522.551 257.564 523.649 257.594 525.51ZM269.986 520.002V504.328H272.271V510.891H276.197V512.854H272.271V520.002H269.986ZM292.809 507.17V509.074H289.908V521.613C291.314 521.525 292.706 521.394 294.039 521.232L294.156 522.932C288.648 523.811 282.423 523.898 277.809 523.928L277.516 521.965C278.614 521.965 279.786 521.95 281.031 521.936V509.074H278.16V507.17H292.809ZM283.258 521.906C284.708 521.877 286.217 521.818 287.711 521.745V509.074H283.258V521.906ZM295.709 530.373V504.328H297.994V514.787H302.359V516.721H297.994V530.373H295.709ZM326.031 504.328V530.373H323.834V504.328H326.031ZM303.443 523.43C307.076 521.262 309.2 516.501 309.186 511.77V509.309H304.176V507.404H316.188V509.309H311.412V511.77C311.412 516.267 313.448 520.764 317.037 522.844L315.631 524.543C313.067 523.005 311.251 520.192 310.343 516.882C309.405 520.471 307.516 523.532 304.908 525.158L303.443 523.43ZM314.195 515.607V513.732H318.59V504.973H320.758V529.025H318.59V515.607H314.195ZM358.814 521.115V530.373H356.5V522.961H341.295V521.115H358.814ZM337.633 512.033C337.618 508.4 340.504 505.808 344.4 505.822C346.656 505.808 348.575 506.701 349.776 508.166H356.5V504.328H358.814V519.68H356.5V515.93H349.791C348.59 517.409 346.671 518.288 344.4 518.273C340.504 518.303 337.618 515.739 337.633 512.033ZM339.83 512.033C339.83 514.567 341.734 516.34 344.4 516.34C346.964 516.34 348.912 514.567 348.912 512.033C348.912 509.587 346.964 507.785 344.4 507.785C341.734 507.785 339.83 509.587 339.83 512.033ZM350.831 514.025H356.5V510.07H350.816C351.021 510.686 351.139 511.33 351.139 512.033C351.139 512.736 351.021 513.41 350.831 514.025ZM383.512 504.24V510.568H387.467V512.473H383.512V518.654H381.227V504.24H383.512ZM363.209 508.547V506.701H369.83V504.064H372.115V506.701H378.736V508.547H363.209ZM364.703 513.996C364.688 511.359 367.179 509.733 370.973 509.719C374.752 509.733 377.213 511.359 377.242 513.996C377.213 516.647 374.752 518.259 370.973 518.273C367.179 518.259 364.688 516.647 364.703 513.996ZM366.9 521.73V520.002H383.512V525.773H369.215V528.322H384.479V530.08H366.959V524.074H381.227V521.73H366.9ZM366.9 513.996C366.886 515.563 368.497 516.545 370.973 516.545C373.434 516.545 375.045 515.563 375.074 513.996C375.045 512.443 373.434 511.433 370.973 511.418C368.497 511.433 366.886 512.443 366.9 513.996ZM400.943 504.797C406.729 504.797 410.128 506.394 410.143 509.279C410.128 512.238 406.729 513.835 400.943 513.85C395.128 513.835 391.715 512.238 391.715 509.279C391.715 506.394 395.128 504.797 400.943 504.797ZM389.078 517.482V515.607H412.809V517.482H389.078ZM391.949 521.496V519.738H409.762V525.568H394.293V528.264H410.553V530.08H392.008V523.869H407.506V521.496H391.949ZM394.117 509.279C394.088 511.096 396.622 512.092 400.943 512.092C405.265 512.092 407.784 511.096 407.799 509.279C407.784 507.565 405.265 506.54 400.943 506.525C396.622 506.54 394.088 507.565 394.117 509.279ZM435.543 508.84V510.715H422.477V508.84H427.896V505.119H430.182V508.84H435.543ZM423.414 518.391C423.414 514.934 425.772 512.487 429.01 512.473C432.291 512.487 434.635 514.934 434.664 518.391C434.635 521.892 432.291 524.353 429.01 524.367C425.772 524.353 423.414 521.892 423.414 518.391ZM425.465 518.391C425.465 520.705 426.944 522.36 429.01 522.346C431.09 522.36 432.613 520.705 432.613 518.391C432.613 516.105 431.09 514.436 429.01 514.406C426.944 514.436 425.465 516.105 425.465 518.391ZM436.891 529.084V504.973H439.059V515.314H442.516V504.328H444.713V530.373H442.516V517.219H439.059V529.084H436.891ZM470.084 505.266V507.17H461.837C462.101 509.997 466.393 512.18 470.875 512.648L470.025 514.465C465.763 513.967 461.764 512.092 460.328 509.221C458.893 512.092 454.923 513.967 450.631 514.465L449.781 512.648C454.264 512.18 458.556 509.997 458.819 507.17H450.631V505.266H470.084ZM448.463 518.01V516.105H472.193V518.01H461.441V521.672H459.186V518.01H448.463ZM451.48 530.021V520.031H453.766V523.078H466.832V520.031H469.117V530.021H451.48ZM453.766 528.176H466.832V524.895H453.766V528.176ZM495.865 504.328V530.373H493.58V504.328H495.865ZM476.09 523.664V506.906H478.346V521.672C482.33 521.643 486.432 521.335 490.797 520.412L491.119 522.375C486.49 523.342 482.374 523.664 478.199 523.664H476.09ZM520.475 504.328V514.641H524.84V516.574H520.475V530.432H518.189V504.328H520.475ZM501.461 523.898V506.877H513.619V508.781H503.746V521.965C508.463 521.95 511.788 521.745 515.67 521.027L515.963 523.02C511.876 523.752 508.463 523.898 503.512 523.898H501.461ZM529 528.176C527.975 528.161 527.096 527.312 527.125 526.271C527.096 525.246 527.975 524.396 529 524.396C530.04 524.396 530.89 525.246 530.875 526.271C530.89 527.312 530.04 528.161 529 528.176ZM207.789 556.74C207.789 560.886 209.811 565.354 213.268 567.404L211.949 569.191C209.43 567.668 207.628 564.885 206.72 561.706C205.768 565.178 203.834 568.166 201.227 569.748L199.762 568.02C203.365 565.91 205.562 561.296 205.562 556.828V551.789H207.789V556.74ZM210.396 560.637V558.674H214.82V549.885H216.988V574.055H214.82V560.637H210.396ZM220.152 575.373V549.328H222.379V575.373H220.152ZM248.277 549.328V575.373H246.08V549.328H248.277ZM225.953 568.078C231.622 564.724 234.464 560.021 234.918 554.572H227.125V552.668H237.203C237.203 554.001 237.086 555.319 236.852 556.594H240.807V550.031H243.004V574.055H240.807V565.031H235.973V563.127H240.807V558.498H236.397C235.138 562.907 232.281 566.804 227.359 569.748L225.953 568.078ZM260.729 557.326C260.699 561.501 263.717 566.101 267.496 567.902L266.178 569.719C263.248 568.283 260.772 565.207 259.601 561.677C258.399 565.5 255.792 568.869 252.877 570.363L251.471 568.547C255.221 566.716 258.443 561.765 258.473 557.326V553.928H252.408V552.023H266.588V553.928H260.729V557.326ZM269.781 575.373V549.328H272.066V559.875H276.432V561.838H272.066V575.373H269.781ZM299.43 549.357V568.605H297.115V561.574H290.377C289.176 563.112 287.242 564.035 285.016 564.035C281.119 564.035 278.233 561.34 278.248 557.531C278.233 553.708 281.119 551.013 285.016 550.998C287.228 551.013 289.132 551.921 290.348 553.43H297.115V549.357H299.43ZM280.445 557.531C280.445 560.139 282.35 561.999 285.016 561.984C287.579 561.999 289.527 560.139 289.527 557.531C289.527 554.938 287.579 553.063 285.016 553.049C282.35 553.063 280.445 554.938 280.445 557.531ZM282.701 574.816V566.584H285.016V572.883H300.162V574.816H282.701ZM291.388 555.334C291.622 556.008 291.754 556.74 291.754 557.531C291.754 558.293 291.622 559.011 291.402 559.67H297.115V555.334H291.388ZM325.299 549.328V575.373H322.984V549.328H325.299ZM304.088 568.605C311.134 565.266 314.737 560.271 315.25 554.045H305.289V552.17H317.594C317.564 559.655 314.078 566.291 305.348 570.48L304.088 568.605ZM350.406 550.734V552.668C350.406 554.689 350.406 557.062 349.718 560.314H353.541V562.219H329.693V560.314H347.403C348.136 557.033 348.136 554.689 348.121 552.668V552.639H332.711V550.734H350.406ZM332.623 575.021V565.822H350.523V575.021H332.623ZM334.908 573.146H348.238V567.639H334.908V573.146ZM379.352 563.068V564.943H355.621V563.068H379.352ZM358.258 555.422C358.258 552.155 361.832 550.236 367.486 550.266C373.082 550.236 376.671 552.155 376.686 555.422C376.671 558.659 373.082 560.607 367.486 560.607C361.832 560.607 358.258 558.659 358.258 555.422ZM358.697 574.816V567.229H361.012V572.883H376.715V574.816H358.697ZM360.631 555.422C360.616 557.487 363.282 558.732 367.486 558.732C371.661 558.732 374.327 557.487 374.342 555.422C374.327 553.386 371.661 552.111 367.486 552.111C363.282 552.111 360.616 553.386 360.631 555.422ZM397.838 554.25C397.823 557.839 400.533 561.149 404.371 562.482L403.199 564.328C400.24 563.244 397.94 561.047 396.783 558.293C395.685 561.398 393.326 563.786 390.25 564.973L388.99 563.127C392.96 561.735 395.567 558.205 395.582 554.162V550.939H397.838V554.25ZM393.18 574.816V566.73H395.523V572.883H410.641V574.816H393.18ZM407.154 568.576V549.328H409.439V557.326H413.365V559.289H409.439V568.576H407.154ZM437.506 553.195V555.1H416.178V553.195H425.729V549.768H427.984V553.195H437.506ZM415.006 572.326V570.422H425.729V566.76C421.085 566.511 418.287 564.709 418.316 561.779C418.287 558.688 421.554 556.857 426.871 556.887C432.115 556.857 435.44 558.688 435.426 561.779C435.44 564.709 432.584 566.511 427.984 566.76V570.422H438.854V572.326H415.006ZM420.631 561.779C420.602 563.757 422.989 564.899 426.871 564.914C430.709 564.899 433.097 563.757 433.082 561.779C433.097 559.846 430.709 558.703 426.871 558.703C422.989 558.703 420.602 559.846 420.631 561.779ZM464.781 570.158V572.092H440.934V570.158H451.686V564.182H453.941V570.158H464.781ZM442.252 563.303C447.276 562.497 451.627 559.465 451.656 555.393H443.16V553.488H451.686V549.885H453.941V553.488H462.496V555.393H454C454 559.465 458.351 562.497 463.346 563.303L462.467 565.119C458.307 564.387 454.483 562.277 452.813 559.011C451.173 562.277 447.35 564.387 443.16 565.119L442.252 563.303ZM487.018 549.328V559.934H491.236V561.867H487.018V575.373H484.732V549.328H487.018ZM467.037 568.605C473.761 565.266 477.423 560.241 477.95 554.074H468.238V552.141H480.279C480.265 559.509 476.808 566.232 468.326 570.422L467.037 568.605ZM513.473 551.291V562.805H501.432V551.291H513.473ZM503.629 568.02V566.174H520.68V575.432H518.395V568.02H503.629ZM503.688 560.93H511.246V553.137H503.688V560.93ZM518.395 564.768V549.328H520.68V556.125H524.605V558.059H520.68V564.768H518.395ZM533.219 551.35C537.057 551.364 539.781 554.895 539.811 560.432C539.781 565.983 537.057 569.499 533.219 569.484C529.352 569.499 526.642 565.983 526.656 560.432C526.642 554.895 529.352 551.364 533.219 551.35ZM528.824 560.432C528.839 564.665 530.641 567.448 533.219 567.434C535.826 567.448 537.584 564.665 537.584 560.432C537.584 556.198 535.826 553.415 533.219 553.4C530.641 553.415 528.839 556.198 528.824 560.432ZM544.117 575.373V549.328H546.402V559.729H550.768V561.721H546.402V575.373H544.117ZM565.328 553.02C565.313 556.506 569.957 559.465 574.498 560.139L573.648 561.955C569.591 561.267 565.621 559.099 564.039 555.964C562.457 559.099 558.487 561.267 554.488 561.955L553.58 560.139C558.106 559.465 562.735 556.506 562.75 553.02V552.844H554.4V550.969H573.648V552.844H565.328V553.02ZM552.174 566.086V564.182H575.904V566.086H565.123V575.373H562.867V566.086H552.174ZM599.166 557.238V559.084H581.324V550.295H583.609V557.238H599.166ZM578.072 564.504V562.629H601.92V564.504H578.072ZM581.178 574.729V567.17H583.463V572.824H599.312V574.729H581.178ZM221.529 595.295V597.199H217.516V602.912H221.441V604.758H213.062V607.98H223.785V609.855H200.055V607.98H210.777V604.758H202.369V602.912H206.295V597.199H202.281V595.295H221.529ZM202.691 614.367V612.463H220.855V620.373H218.541V614.367H202.691ZM208.58 602.912H215.23V597.199H208.58V602.912ZM249.713 607.043V608.918H238.961V611.452C243.883 611.657 246.783 613.195 246.812 615.891C246.783 618.747 243.443 620.314 237.848 620.314C232.193 620.314 228.868 618.747 228.854 615.891C228.868 613.21 231.754 611.657 236.705 611.467V608.918H225.982V607.043H249.713ZM228.209 597.229V595.324H247.457V597.229H243.443V602.707H247.369V604.611H228.297V602.707H232.223V597.229H228.209ZM231.197 615.891C231.183 617.59 233.673 618.557 237.848 618.527C241.979 618.557 244.469 617.59 244.469 615.891C244.469 614.191 241.979 613.21 237.848 613.225C233.673 613.21 231.183 614.191 231.197 615.891ZM234.508 602.707H241.158V597.229H234.508V602.707ZM272.447 598.84V600.715H259.381V598.84H264.801V595.119H267.086V598.84H272.447ZM260.318 608.391C260.318 604.934 262.677 602.487 265.914 602.473C269.195 602.487 271.539 604.934 271.568 608.391C271.539 611.892 269.195 614.353 265.914 614.367C262.677 614.353 260.318 611.892 260.318 608.391ZM262.369 608.391C262.369 610.705 263.849 612.36 265.914 612.346C267.994 612.36 269.518 610.705 269.518 608.391C269.518 606.105 267.994 604.436 265.914 604.406C263.849 604.436 262.369 606.105 262.369 608.391ZM273.795 619.084V594.973H275.963V605.314H279.42V594.328H281.617V620.373H279.42V607.219H275.963V619.084H273.795ZM292.75 595.295C296.646 595.31 299.474 597.683 299.488 601.066C299.474 604.465 296.646 606.809 292.75 606.809C288.81 606.809 285.968 604.465 285.982 601.066C285.968 597.683 288.81 595.31 292.75 595.295ZM288.238 601.066C288.209 603.352 290.128 604.934 292.75 604.934C295.328 604.934 297.262 603.352 297.262 601.066C297.262 598.811 295.328 597.214 292.75 597.229C290.128 597.214 288.209 598.811 288.238 601.066ZM289.938 610.822V608.977H306.871V615.246H292.252V618.176H307.809V620.021H289.996V613.518H304.586V610.822H289.938ZM304.586 607.717V594.328H306.871V607.717H304.586ZM332.77 594.328V620.432H330.455V594.328H332.77ZM312.262 605.432C312.276 599.895 315.03 596.364 318.912 596.35C322.779 596.364 325.577 599.895 325.562 605.432C325.577 610.983 322.779 614.499 318.912 614.484C315.03 614.499 312.276 610.983 312.262 605.432ZM314.488 605.432C314.488 609.665 316.305 612.448 318.912 612.434C321.534 612.448 323.336 609.665 323.336 605.432C323.336 601.198 321.534 598.415 318.912 598.4C316.305 598.415 314.488 601.198 314.488 605.432ZM361.598 604.729V606.662H357.379V620.373H355.094V594.328H357.379V604.729H361.598ZM338.307 613.752V596.906H340.592V611.818C344.4 611.818 348.282 611.525 352.574 610.617L352.867 612.58C348.37 613.488 344.327 613.752 340.387 613.752H338.307ZM382.545 612.375C388.258 612.36 391.48 613.752 391.51 616.389C391.48 618.967 388.258 620.314 382.545 620.314C376.773 620.314 373.536 618.967 373.551 616.389C373.536 613.752 376.773 612.36 382.545 612.375ZM370.68 610.734V608.889H381.402V606.853C376.715 606.677 374.078 605.417 374.078 603.176C374.078 600.7 377.14 599.44 382.545 599.426C387.936 599.44 390.982 600.7 390.982 603.176C390.982 605.417 388.36 606.677 383.688 606.853V608.889H394.41V610.734H370.68ZM371.91 598.371V596.525H381.402V593.977H383.688V596.525H393.033V598.371H371.91ZM375.895 616.389C375.909 617.81 378.312 618.601 382.545 618.586C386.764 618.601 389.166 617.81 389.166 616.389C389.166 614.909 386.764 614.104 382.545 614.104C378.312 614.104 375.909 614.909 375.895 616.389ZM376.539 603.176C376.524 604.465 378.722 605.212 382.545 605.227C386.368 605.212 388.536 604.465 388.551 603.176C388.536 601.799 386.368 601.052 382.545 601.066C378.722 601.052 376.524 601.799 376.539 603.176ZM409.674 596.76C409.688 600.437 414.464 603.601 419.166 604.26L418.229 606.135C414.186 605.461 410.172 603.22 408.502 600.026C406.832 603.249 402.833 605.461 398.775 606.135L397.838 604.26C402.54 603.601 407.301 600.495 407.301 596.76V595.266H409.674V596.76ZM396.607 610.939V609.006H420.338V610.939H409.557V620.373H407.301V610.939H396.607ZM431.061 596.232C435.147 596.247 438.048 598.737 438.062 602.355C438.048 605.988 435.147 608.464 431.061 608.479C426.944 608.464 424.015 605.988 424.029 602.355C424.015 598.737 426.944 596.247 431.061 596.232ZM422.682 612.727C427.486 612.741 434.122 612.697 439.879 611.848L440.055 613.547C434.093 614.66 427.691 614.689 423.004 614.689L422.682 612.727ZM426.285 602.355C426.271 604.787 428.277 606.457 431.061 606.457C433.814 606.457 435.821 604.787 435.807 602.355C435.821 599.938 433.814 598.254 431.061 598.254C428.277 598.254 426.271 599.938 426.285 602.355ZM441.607 620.432V594.328H443.893V620.432H441.607ZM476.148 594.328V604.934H480.367V606.867H476.148V620.373H473.863V594.328H476.148ZM456.168 613.605C462.892 610.266 466.554 605.241 467.081 599.074H457.369V597.141H469.41C469.396 604.509 465.938 611.232 457.457 615.422L456.168 613.605ZM503.395 594.328V620.373H501.08V594.328H503.395ZM482.447 613.547C486.314 611.789 489.273 607.395 489.273 602.824V600.744H483.15V598.869H489.244V594.826H491.529V598.869H497.594V600.744H491.529V602.824C491.529 607.189 494.576 611.408 498.502 613.078L497.213 614.865C494.195 613.532 491.661 610.72 490.445 607.277C489.273 610.91 486.754 613.913 483.736 615.334L482.447 613.547ZM531.666 606.428V608.244H507.818V606.428H531.666ZM510.689 612.053V610.324H528.678V615.861H513.033V618.352H529.527V620.021H510.719V614.279H526.393V612.053H510.689ZM510.836 596.789V595.119H528.59V600.51H513.209V602.795H529.059V604.465H510.924V598.928H526.275V596.789H510.836ZM565.064 608.068V609.943H541.305V608.068H552.027V604.641H544.322V595.676H562.105V597.58H546.607V602.766H562.34V604.641H554.312V608.068H565.064ZM544.381 619.816V612.316H546.666V617.883H562.545V619.816H544.381ZM579.098 596.027C584.532 596.042 588.619 598.884 588.619 603.176C588.619 607.512 584.532 610.354 579.098 610.324C573.663 610.354 569.576 607.512 569.576 603.176C569.576 598.884 573.663 596.042 579.098 596.027ZM567.232 616.916V614.982H591.08V616.916H567.232ZM571.773 603.176C571.744 606.34 574.894 608.449 579.098 608.449C583.272 608.449 586.393 606.34 586.393 603.176C586.393 600.056 583.272 597.888 579.098 597.902C574.894 597.888 571.744 600.056 571.773 603.176ZM617.008 615.217V617.15H593.16V615.217H603.883V610.295H596.148V602.268H611.734V598.166H596.09V596.262H613.99V604.143H598.434V608.391H614.605V610.295H606.139V615.217H617.008ZM220.387 639.328V648.469H224.283V650.402H220.387V659.719H218.072V639.328H220.387ZM199.938 654.826C202.003 654.826 204.449 654.797 206.998 654.709V652.717C203.966 652.438 202.003 650.988 202.018 648.791C202.003 646.286 204.449 644.763 208.111 644.777C211.803 644.763 214.205 646.286 214.234 648.791C214.205 650.974 212.301 652.424 209.283 652.717V654.606C211.715 654.46 214.19 654.24 216.461 653.889L216.666 655.529C211.085 656.584 204.757 656.657 200.201 656.701L199.938 654.826ZM200.582 643.635V641.906H206.998V639.27H209.283V641.906H215.67V643.635H200.582ZM203.834 664.816V658.342H206.148V662.883H221.324V664.816H203.834ZM204.215 648.791C204.2 650.212 205.709 651.135 208.111 651.135C210.514 651.135 212.037 650.212 212.037 648.791C212.037 647.312 210.514 646.403 208.111 646.418C205.709 646.403 204.2 647.312 204.215 648.791ZM234.742 644.25C234.728 647.839 237.438 651.149 241.275 652.482L240.104 654.328C237.145 653.244 234.845 651.047 233.688 648.293C232.589 651.398 230.23 653.786 227.154 654.973L225.895 653.127C229.864 651.735 232.472 648.205 232.486 644.162V640.939H234.742V644.25ZM230.084 664.816V656.73H232.428V662.883H247.545V664.816H230.084ZM244.059 658.576V639.328H246.344V647.326H250.27V649.289H246.344V658.576H244.059ZM272.066 639.328V650.08H276.432V651.984H272.066V665.373H269.781V639.328H272.066ZM251.764 645.422V643.518H258.473V639.65H260.758V643.518H267.262V645.422H251.764ZM253.258 653.566C253.243 650.051 255.938 647.59 259.645 647.59C263.321 647.59 266.002 650.051 266.031 653.566C266.002 657.097 263.321 659.543 259.645 659.543C255.938 659.543 253.243 657.097 253.258 653.566ZM255.455 653.566C255.44 655.939 257.213 657.609 259.645 657.58C262.047 657.609 263.805 655.939 263.834 653.566C263.805 651.208 262.047 649.509 259.645 649.523C257.213 649.509 255.44 651.208 255.455 653.566ZM291.021 641.613V643.928H297.115V639.357H299.43V658.371H297.115V651.428H291.021V653.771H279.068V641.613H291.021ZM281.354 651.926H288.766V643.518H281.354V651.926ZM282.584 664.816V656.672H284.898V662.883H300.016V664.816H282.584ZM291.021 649.523H297.115V645.861H291.021V649.523ZM324.361 641.76C324.376 645.437 329.151 648.601 333.854 649.26L332.916 651.135C328.873 650.461 324.859 648.22 323.189 645.026C321.52 648.249 317.521 650.461 313.463 651.135L312.525 649.26C317.228 648.601 321.988 645.495 321.988 641.76V640.266H324.361V641.76ZM311.295 655.939V654.006H335.025V655.939H324.244V665.373H321.988V655.939H311.295ZM346.451 642.668C346.422 646.257 349.234 649.509 353.102 650.783L351.988 652.57C348.927 651.516 346.495 649.348 345.309 646.564C344.137 649.567 341.676 651.955 338.57 653.068L337.398 651.223C341.324 649.86 344.107 646.433 344.107 642.668V640.207H346.451V642.668ZM341.852 665.021V654.621H344.137V657.785H356.441V654.621H358.727V665.021H341.852ZM344.137 663.146H356.441V659.631H344.137V663.146ZM356.441 653.303V639.328H358.727V653.303H356.441ZM384.742 656.174V665.432H382.428V658.02H367.223V656.174H384.742ZM363.561 647.033C363.546 643.4 366.432 640.808 370.328 640.822C373.829 640.808 376.51 642.946 376.993 646.066H382.428V639.328H384.742V654.68H382.428V648H376.993C376.524 651.179 373.829 653.303 370.328 653.273C366.432 653.303 363.546 650.739 363.561 647.033ZM365.758 647.033C365.758 649.567 367.706 651.34 370.328 651.34C372.892 651.34 374.84 649.567 374.84 647.033C374.84 644.587 372.892 642.785 370.328 642.785C367.706 642.785 365.758 644.587 365.758 647.033ZM409.381 640.852V642.727H400.064V649.582C405.177 649.611 408.253 649.421 411.812 648.703L412.105 650.549C408.37 651.34 405.191 651.486 399.83 651.457H397.809V640.852H409.381ZM400.357 655.646V653.771H416.969V660.188H402.672V663.146H417.936V665.021H400.416V658.371H414.684V655.646H400.357ZM414.684 652.482V639.328H416.969V644.865H420.895V646.77H416.969V652.482H414.684ZM444.098 639.328V665.432H441.812V651.281H436.744V649.348H441.812V639.328H444.098ZM423.443 643.664V641.76H435.162V650.871H425.816V657.199C430.313 657.199 433.565 657.053 437.359 656.35L437.535 658.283C433.624 658.986 430.24 659.147 425.523 659.162H423.531V648.967H432.936V643.664H423.443ZM470.787 639.328V665.373H468.561V639.328H470.787ZM448.785 650.578C448.8 645.041 450.997 641.54 454.381 641.525C457.545 641.54 459.684 644.587 459.977 649.494H463.346V639.885H465.543V664.055H463.346V651.398H459.991C459.771 656.467 457.589 659.646 454.381 659.631C450.997 659.646 448.8 656.115 448.785 650.578ZM450.953 650.578C450.924 654.797 452.271 657.463 454.381 657.434C456.505 657.463 457.853 654.797 457.838 650.578C457.853 646.345 456.505 643.693 454.381 643.693C452.271 643.693 450.924 646.345 450.953 650.578ZM503.395 639.328V665.432H501.08V639.328H503.395ZM482.887 650.432C482.901 644.895 485.655 641.364 489.537 641.35C493.404 641.364 496.202 644.895 496.188 650.432C496.202 655.983 493.404 659.499 489.537 659.484C485.655 659.499 482.901 655.983 482.887 650.432ZM485.113 650.432C485.113 654.665 486.93 657.448 489.537 657.434C492.159 657.448 493.961 654.665 493.961 650.432C493.961 646.198 492.159 643.415 489.537 643.4C486.93 643.415 485.113 646.198 485.113 650.432ZM531.666 652.277V654.123H507.818V652.277H531.666ZM510.836 641.73V639.973H528.59V645.92H513.209V648.381H529.146V650.227H510.924V644.162H526.275V641.73H510.836ZM511.012 665.021V655.822H513.326V658.43H526.334V655.822H528.59V665.021H511.012ZM513.326 663.176H526.334V660.217H513.326V663.176ZM555.25 639.328V665.373H552.965V639.328H555.25ZM535.475 658.664V641.906H537.73V656.672C541.715 656.643 545.816 656.335 550.182 655.412L550.504 657.375C545.875 658.342 541.759 658.664 537.584 658.664H535.475ZM579.859 639.328V649.641H584.225V651.574H579.859V665.432H577.574V639.328H579.859ZM560.846 658.898V641.877H573.004V643.781H563.131V656.965C567.848 656.95 571.173 656.745 575.055 656.027L575.348 658.02C571.261 658.752 567.848 658.898 562.896 658.898H560.846ZM588.385 663.176C587.359 663.161 586.48 662.312 586.51 661.271C586.48 660.246 587.359 659.396 588.385 659.396C589.425 659.396 590.274 660.246 590.26 661.271C590.274 662.312 589.425 663.161 588.385 663.176Z" fill="black"/>
<defs>
<linearGradient id="paint0_linear_262_29" x1="170.309" y1="95.5197" x2="170.309" y2="164.366" gradientUnits="userSpaceOnUse">
<stop stop-color="#041DFF"/>
<stop offset="1" stop-color="white"/>
</linearGradient>
<linearGradient id="paint1_linear_262_29" x1="168.828" y1="80.428" x2="168.828" y2="188.459" gradientUnits="userSpaceOnUse">
<stop stop-color="#041DFF"/>
<stop offset="1" stop-color="white"/>
</linearGradient>
</defs>
</svg>
