<svg width="700" height="750" viewBox="0 0 700 750" fill="none" xmlns="http://www.w3.org/2000/svg">
<rect width="700" height="750" rx="35" fill="#F7F4EB"/>
<path d="M389.041 78.6133V95.1172H395.389V100.928H389.041V123.438H382.01V78.6133H389.041ZM354.764 113.184V82.1289H361.795V92.7246H369.9V82.1289H376.883V113.184H354.764ZM361.795 107.471H369.9V98.1445H361.795V107.471ZM432.254 78.6133V94.9219H438.602V100.635H432.254V123.535H425.223V78.6133H432.254ZM398.416 112.793V82.7148H419.461V88.3789H405.447V106.982C411.453 106.934 416.678 106.592 422.342 105.615L423.074 111.475C416.165 112.646 409.988 112.793 402.273 112.793H398.416ZM454.373 81.543C461.502 81.5186 466.873 86.1816 466.922 92.6758C466.873 99.1943 461.502 103.833 454.373 103.809C447.317 103.833 441.824 99.1943 441.824 92.6758C441.824 86.1816 447.317 81.5186 454.373 81.543ZM440.115 108.936C448.001 108.96 458.963 108.838 468.436 107.52L468.973 112.598C459.158 114.502 448.66 114.6 440.896 114.6L440.115 108.936ZM448.807 92.6758C448.807 96.0205 451.248 97.7783 454.373 97.7539C457.571 97.7783 460.037 96.0205 460.086 92.6758C460.037 89.4043 457.596 87.5977 454.373 87.5977C451.224 87.5977 448.807 89.4043 448.807 92.6758ZM470.828 123.535V78.6133H477.811V123.535H470.828ZM506.424 81.6895C513.284 81.665 518.338 87.8906 518.387 97.7051C518.338 107.666 513.284 113.867 506.424 113.867C499.466 113.867 494.363 107.666 494.412 97.7051C494.363 87.8906 499.466 81.665 506.424 81.6895ZM501.248 97.7051C501.199 104.224 503.299 107.471 506.424 107.471C509.573 107.471 511.624 104.224 511.648 97.7051C511.624 91.3086 509.573 88.0127 506.424 88.0371C503.299 88.0127 501.199 91.3086 501.248 97.7051ZM522.83 123.438V78.6133H529.861V95.2148H536.209V101.025H529.861V123.438H522.83ZM563.016 82.5195V88.1348H559.305V106.982C560.94 106.86 562.552 106.689 564.09 106.494L564.432 111.523C555.374 113.159 545.291 113.354 537.674 113.379L536.941 107.715C538.431 107.715 540.042 107.715 541.727 107.69V88.1348H538.064V82.5195H563.016ZM548.514 107.568L552.566 107.422V88.1348H548.514V107.568ZM566.043 123.438V78.6133H573.074V95.4102H579.422V101.074H573.074V123.438H566.043ZM617.361 101.416V106.934H585.428V81.7383H617.02V87.4023H592.605V91.5039H615.945V96.9727H592.605V101.416H617.361ZM580.74 118.408V112.744H621.707V118.408H580.74ZM634.061 115.039L629.715 129.15H624.002L626.346 115.039H634.061ZM526.15 161.084C526.126 166.65 528.909 172.168 536.404 174.512L532.693 180.029C527.884 178.442 524.637 175.415 522.708 171.533C520.706 175.757 517.239 179.077 512.137 180.762L508.23 175.244C516.141 172.852 519.021 166.87 519.07 161.035V156.396H526.15V161.084ZM515.457 197.705V183.154H522.586V192.09H546.365V197.705H515.457ZM537.82 186.377V153.662H544.852V166.357H550.662V172.266H544.852V186.377H537.82ZM591.482 158.984V164.551H554.031V158.984H569.217V154.004H576.248V158.984H591.482ZM552.371 194.092V188.477H569.217V183.667C561.722 182.935 557.205 179.81 557.205 174.951C557.205 169.458 563.162 166.138 572.732 166.162C582.132 166.138 588.187 169.458 588.162 174.951C588.187 179.785 583.621 182.935 576.248 183.667V188.477H593.338V194.092H552.371ZM564.48 174.951C564.456 177.319 567.215 178.271 572.732 178.271C578.104 178.271 580.936 177.319 580.936 174.951C580.936 172.607 578.104 171.631 572.732 171.631C567.215 171.631 564.456 172.607 564.48 174.951ZM636.551 187.793V193.506H595.584V187.793H612.576V179.492H619.51V187.793H636.551ZM596.707 175.537C607.229 174.39 611.722 169.434 612.356 165.039H599.051V159.473H612.576V154.053H619.51V159.473H633.084V165.039H619.729C620.34 169.434 624.832 174.39 635.428 175.537L632.889 181.055C624.686 180.078 619.046 176.855 616.019 172.485C613.016 176.855 607.425 180.078 599.246 181.055L596.707 175.537Z" fill="black"/>
<path fill-rule="evenodd" clip-rule="evenodd" d="M67.1341 108.25C64.0469 109.685 62.0723 112.78 62.0723 116.185V125.451H94.0162V95.7549L67.1341 108.25ZM179.88 109.345H157.626V125.451H188.63V118.095C188.63 113.262 184.713 109.345 179.88 109.345Z" fill="url(#paint0_linear_152_435)"/>
<path fill-rule="evenodd" clip-rule="evenodd" d="M109.214 66.5625C104.381 66.5625 100.464 70.48 100.464 75.3125V88.205H92.623C87.7906 88.205 83.873 92.1225 83.873 96.955V125.451H49.875C45.0425 125.451 41.125 129.368 41.125 134.201V260.34H83.8735V260.34H157.626V96.955C157.626 92.1225 153.708 88.205 148.876 88.205H139.008V75.3125C139.008 70.48 135.091 66.5625 130.258 66.5625H109.214ZM200.375 125.451H157.627V260.34H200.375V125.451Z" fill="url(#paint1_linear_152_435)"/>
<rect x="56.3398" y="137.204" width="19.2723" height="19.0187" rx="8.75" fill="white"/>
<rect x="56.3398" y="168.177" width="19.2723" height="19.0187" rx="8.75" fill="white"/>
<rect x="56.3398" y="199.15" width="19.2723" height="19.0187" rx="8.75" fill="white"/>
<rect x="83.2197" y="137.204" width="19.2723" height="19.0187" rx="8.75" fill="white"/>
<rect x="97.9277" y="100.796" width="19.2723" height="19.0187" rx="8.75" fill="white"/>
<rect x="83.2197" y="168.177" width="19.2723" height="19.0187" rx="8.75" fill="white"/>
<rect x="83.2197" y="199.15" width="19.2723" height="19.0187" rx="8.75" fill="white"/>
<rect x="110.1" y="137.204" width="19.2723" height="19.0187" rx="8.75" fill="white"/>
<rect x="124.808" y="100.796" width="19.2723" height="19.0187" rx="8.75" fill="white"/>
<rect x="110.1" y="168.177" width="19.2723" height="19.0187" rx="8.75" fill="white"/>
<rect x="110.1" y="199.15" width="19.2723" height="19.0187" rx="8.75" fill="white"/>
<rect x="136.979" y="137.204" width="19.2723" height="19.0187" rx="8.75" fill="white"/>
<rect x="136.979" y="168.177" width="19.2723" height="19.0187" rx="8.75" fill="white"/>
<rect x="136.979" y="199.15" width="19.2723" height="19.0187" rx="8.75" fill="white"/>
<rect x="163.859" y="137.204" width="19.2723" height="19.0187" rx="8.75" fill="white"/>
<rect x="163.859" y="168.177" width="19.2723" height="19.0187" rx="8.75" fill="white"/>
<rect x="163.859" y="199.15" width="19.2723" height="19.0187" rx="8.75" fill="white"/>
<path d="M205.814 336.75C205.8 340.339 208.51 343.649 212.348 344.982L211.176 346.828C208.217 345.744 205.917 343.547 204.76 340.793C203.661 343.898 201.303 346.286 198.227 347.473L196.967 345.627C200.937 344.235 203.544 340.705 203.559 336.662V333.439H205.814V336.75ZM201.156 357.316V349.23H203.5V355.383H218.617V357.316H201.156ZM215.131 351.076V331.828H217.416V339.826H221.342V341.789H217.416V351.076H215.131ZM245.482 335.695V337.6H224.154V335.695H233.705V332.268H235.961V335.695H245.482ZM222.982 354.826V352.922H233.705V349.26C229.062 349.011 226.264 347.209 226.293 344.279C226.264 341.188 229.53 339.357 234.848 339.387C240.092 339.357 243.417 341.188 243.402 344.279C243.417 347.209 240.561 349.011 235.961 349.26V352.922H246.83V354.826H222.982ZM228.607 344.279C228.578 346.257 230.966 347.399 234.848 347.414C238.686 347.399 241.073 346.257 241.059 344.279C241.073 342.346 238.686 341.203 234.848 341.203C230.966 341.203 228.578 342.346 228.607 344.279ZM272.758 352.658V354.592H248.91V352.658H259.662V346.682H261.918V352.658H272.758ZM250.229 345.803C255.253 344.997 259.604 341.965 259.633 337.893H251.137V335.988H259.662V332.385H261.918V335.988H270.473V337.893H261.977C261.977 341.965 266.327 344.997 271.322 345.803L270.443 347.619C266.283 346.887 262.46 344.777 260.79 341.511C259.149 344.777 255.326 346.887 251.137 347.619L250.229 345.803ZM297.162 331.828V357.873H294.936V331.828H297.162ZM275.16 343.078C275.175 337.541 277.372 334.04 280.756 334.025C283.92 334.04 286.059 337.087 286.352 341.994H289.721V332.385H291.918V356.555H289.721V343.898H286.366C286.146 348.967 283.964 352.146 280.756 352.131C277.372 352.146 275.175 348.615 275.16 343.078ZM277.328 343.078C277.299 347.297 278.646 349.963 280.756 349.934C282.88 349.963 284.228 347.297 284.213 343.078C284.228 338.845 282.88 336.193 280.756 336.193C278.646 336.193 277.299 338.845 277.328 343.078ZM321.83 339.738V341.584H303.988V332.795H306.273V339.738H321.83ZM300.736 347.004V345.129H324.584V347.004H300.736ZM303.842 357.229V349.67H306.127V355.324H321.977V357.229H303.842ZM355.814 331.857V350.959H353.5V340.969H348.139V339.064H353.5V331.857H355.814ZM334.34 345.744C338.178 344.396 340.961 340.954 340.961 337.219V335.871H335.072V333.967H349.105V335.871H343.275V337.219C343.275 340.588 345.883 343.854 349.691 345.158L348.49 347.004C345.561 345.935 343.29 343.752 342.162 341.057C341.034 344.074 338.632 346.462 335.541 347.619L334.34 345.744ZM339.086 357.316V349.23H341.4V355.383H356.547V357.316H339.086ZM375.414 339.24C375.414 343.386 377.436 347.854 380.893 349.904L379.574 351.691C377.055 350.168 375.253 347.385 374.345 344.206C373.393 347.678 371.459 350.666 368.852 352.248L367.387 350.52C370.99 348.41 373.188 343.796 373.188 339.328V334.289H375.414V339.24ZM378.021 343.137V341.174H382.445V332.385H384.613V356.555H382.445V343.137H378.021ZM387.777 357.873V331.828H390.004V357.873H387.777ZM415.902 331.828V357.873H413.705V331.828H415.902ZM393.578 350.578C399.247 347.224 402.089 342.521 402.543 337.072H394.75V335.168H404.828C404.828 336.501 404.711 337.819 404.477 339.094H408.432V332.531H410.629V356.555H408.432V347.531H403.598V345.627H408.432V340.998H404.022C402.763 345.407 399.906 349.304 394.984 352.248L393.578 350.578ZM440.072 336.34V338.215H427.006V336.34H432.426V332.619H434.711V336.34H440.072ZM427.943 345.891C427.943 342.434 430.302 339.987 433.539 339.973C436.82 339.987 439.164 342.434 439.193 345.891C439.164 349.392 436.82 351.853 433.539 351.867C430.302 351.853 427.943 349.392 427.943 345.891ZM429.994 345.891C429.994 348.205 431.474 349.86 433.539 349.846C435.619 349.86 437.143 348.205 437.143 345.891C437.143 343.605 435.619 341.936 433.539 341.906C431.474 341.936 429.994 343.605 429.994 345.891ZM441.42 356.584V332.473H443.588V342.814H447.045V331.828H449.242V357.873H447.045V344.719H443.588V356.584H441.42ZM477.221 335.783V337.688H473.354V341.32H477.221V343.254H473.354V347.297H471.068V331.828H473.354V335.783H477.221ZM453.49 339.533C453.476 335.9 456.376 333.396 460.316 333.41C464.286 333.396 467.143 335.9 467.172 339.533C467.143 343.151 464.286 345.642 460.316 345.656C456.376 345.642 453.476 343.151 453.49 339.533ZM455.746 339.533C455.731 341.994 457.68 343.693 460.316 343.723C462.982 343.693 464.901 341.994 464.916 339.533C464.901 337.087 462.982 335.344 460.316 335.373C457.68 335.344 455.731 337.087 455.746 339.533ZM456.361 352.98C456.376 349.89 459.687 348.103 465.004 348.088C470.321 348.103 473.588 349.89 473.588 352.98C473.588 356.013 470.321 357.814 465.004 357.814C459.687 357.814 456.376 356.013 456.361 352.98ZM458.676 352.98C458.646 354.855 461.078 355.954 465.004 355.969C468.944 355.954 471.347 354.855 471.361 352.98C471.347 351.091 468.944 349.963 465.004 349.963C461.078 349.963 458.646 351.091 458.676 352.98ZM494.213 337.014C494.228 339.899 496.234 342.814 499.574 344.074L498.373 345.832C495.868 344.865 494.066 343.005 493.129 340.764C492.177 343.239 490.302 345.451 487.738 346.564L486.479 344.777C489.906 343.283 492.001 339.914 492.016 337.014V333.469H494.213V337.014ZM491.225 353.186C491.195 350.241 494.535 348.513 499.955 348.527C505.346 348.513 508.7 350.241 508.715 353.186C508.7 356.101 505.346 357.814 499.955 357.814C494.535 357.814 491.195 356.101 491.225 353.186ZM493.51 353.186C493.48 354.958 495.956 356.042 499.955 356.027C503.91 356.042 506.4 354.958 506.43 353.186C506.4 351.384 503.91 350.3 499.955 350.285C495.956 350.3 493.48 351.384 493.51 353.186ZM500.746 347.121V332.355H502.914V338.859H506.371V331.857H508.568V347.941H506.371V340.764H502.914V347.121H500.746ZM536.107 342.844V344.719H525.355V347.297H533.061V353.127H517.592V355.764H533.852V357.58H515.307V351.398H530.805V349.084H515.248V347.297H523.07V344.719H512.377V342.844H536.107ZM515.453 340.646V332.707H533.031V340.646H515.453ZM517.738 338.801H530.746V334.553H517.738V338.801ZM546.83 333.732C550.917 333.747 553.817 336.237 553.832 339.855C553.817 343.488 550.917 345.964 546.83 345.979C542.714 345.964 539.784 343.488 539.799 339.855C539.784 336.237 542.714 333.747 546.83 333.732ZM538.451 350.227C543.256 350.241 549.892 350.197 555.648 349.348L555.824 351.047C549.862 352.16 543.461 352.189 538.773 352.189L538.451 350.227ZM542.055 339.855C542.04 342.287 544.047 343.957 546.83 343.957C549.584 343.957 551.591 342.287 551.576 339.855C551.591 337.438 549.584 335.754 546.83 335.754C544.047 335.754 542.04 337.438 542.055 339.855ZM557.377 357.932V331.828H559.662V357.932H557.377ZM572.172 351.164V348.996L581.723 334.289H584.975V348.85H587.934V351.164H584.975V355.5H582.455V351.164H572.172ZM575.014 348.85H582.455V337.629H582.191L575.014 348.674V348.85ZM614.301 345.627V347.502H603.695V352.6H601.41V347.502H590.453V345.627H614.301ZM593.5 357.316V350.197H595.785V355.383H611.635V357.316H593.5ZM593.646 343.078V332.678H595.932V336.018H608.822V332.678H611.107V343.078H593.646ZM595.932 341.203H608.822V337.775H595.932V341.203ZM205.58 378.732C209.667 378.747 212.567 381.237 212.582 384.855C212.567 388.488 209.667 390.964 205.58 390.979C201.464 390.964 198.534 388.488 198.549 384.855C198.534 381.237 201.464 378.747 205.58 378.732ZM197.201 395.227C202.006 395.241 208.642 395.197 214.398 394.348L214.574 396.047C208.612 397.16 202.211 397.189 197.523 397.189L197.201 395.227ZM200.805 384.855C200.79 387.287 202.797 388.957 205.58 388.957C208.334 388.957 210.341 387.287 210.326 384.855C210.341 382.438 208.334 380.754 205.58 380.754C202.797 380.754 200.79 382.438 200.805 384.855ZM216.127 402.932V376.828H218.412V402.932H216.127ZM238.949 379.289V400.5H236.283V382.043H236.166L231.01 385.471V382.805L236.283 379.289H238.949ZM265.141 376.828V402.932H262.826V376.828H265.141ZM244.633 387.932C244.647 382.395 247.401 378.864 251.283 378.85C255.15 378.864 257.948 382.395 257.934 387.932C257.948 393.483 255.15 396.999 251.283 396.984C247.401 396.999 244.647 393.483 244.633 387.932ZM246.859 387.932C246.859 392.165 248.676 394.948 251.283 394.934C253.905 394.948 255.707 392.165 255.707 387.932C255.707 383.698 253.905 380.915 251.283 380.9C248.676 380.915 246.859 383.698 246.859 387.932ZM286.293 383.83C286.278 388.547 289.311 393.293 293.09 395.021L291.713 396.896C288.754 395.373 286.308 392.268 285.15 388.562C283.993 392.458 281.547 395.798 278.588 397.365L277.094 395.52C280.917 393.645 283.935 388.635 283.949 383.83V379.084H286.293V383.83ZM290.248 387.609V385.734H296.43V376.828H298.715V402.932H296.43V387.609H290.248ZM312.279 380.607C312.25 384.401 315.004 387.785 318.871 389.133L317.699 390.949C314.682 389.836 312.294 387.595 311.122 384.709C309.979 387.8 307.577 390.231 304.516 391.418L303.314 389.602C307.211 388.151 309.936 384.548 309.936 380.607V378.117H312.279V380.607ZM307.035 395.725V393.82H324.555V402.873H322.27V395.725H307.035ZM322.27 392.531V376.828H324.555V392.531H322.27ZM349.135 376.828V387.58H353.5V389.484H349.135V402.873H346.85V376.828H349.135ZM328.832 382.922V381.018H335.541V377.15H337.826V381.018H344.33V382.922H328.832ZM330.326 391.066C330.312 387.551 333.007 385.09 336.713 385.09C340.39 385.09 343.07 387.551 343.1 391.066C343.07 394.597 340.39 397.043 336.713 397.043C333.007 397.043 330.312 394.597 330.326 391.066ZM332.523 391.066C332.509 393.439 334.281 395.109 336.713 395.08C339.115 395.109 340.873 393.439 340.902 391.066C340.873 388.708 339.115 387.009 336.713 387.023C334.281 387.009 332.509 388.708 332.523 391.066ZM375.971 384.738V386.584H358.129V377.795H360.414V384.738H375.971ZM354.877 392.004V390.129H378.725V392.004H354.877ZM357.982 402.229V394.67H360.268V400.324H376.117V402.229H357.982ZM403.129 376.828V402.873H400.902V376.828H403.129ZM381.859 396.604V380.051H391.674V381.955H384.086V394.67C387.851 394.641 390.224 394.509 393.021 393.879L393.256 395.842C390.238 396.457 387.689 396.589 383.5 396.604H381.859ZM389.916 388.723V386.789H395.6V377.473H397.797V401.525H395.6V388.723H389.916ZM430.609 397.6V399.533H406.762V397.6H412.68V390.583C410.453 389.426 409.105 387.551 409.105 385.178C409.105 381.149 413.061 378.498 418.627 378.469C424.193 378.498 428.148 381.149 428.148 385.178C428.148 387.507 426.845 389.353 424.691 390.51V397.6H430.609ZM411.332 385.178C411.317 388.093 414.35 390.041 418.627 390.041C422.86 390.041 425.922 388.093 425.922 385.178C425.922 382.263 422.86 380.344 418.627 380.373C414.35 380.344 411.317 382.263 411.332 385.178ZM414.936 397.6H422.377V391.403C421.249 391.696 419.989 391.857 418.627 391.857C417.294 391.857 416.049 391.711 414.936 391.418V397.6ZM435.443 400.676C434.418 400.661 433.539 399.812 433.568 398.771C433.539 397.746 434.418 396.896 435.443 396.896C436.483 396.896 437.333 397.746 437.318 398.771C437.333 399.812 436.483 400.661 435.443 400.676ZM471.508 387.844V389.719H460.756V392.297H468.461V398.127H452.992V400.764H469.252V402.58H450.707V396.398H466.205V394.084H450.648V392.297H458.471V389.719H447.777V387.844H471.508ZM450.854 385.646V377.707H468.432V385.646H450.854ZM453.139 383.801H466.146V379.553H453.139V383.801ZM494.594 379.465V382.072C494.564 385.266 494.564 388.84 493.627 394.084L491.283 393.82C492.265 388.84 492.265 385.192 492.279 382.072V381.369H476.225V379.465H494.594ZM473.705 399.182V397.277H483.021V387.961H485.277V397.277H497.436V399.182H473.705ZM521.166 376.828V402.873H518.852V376.828H521.166ZM499.955 396.105C507.001 392.766 510.604 387.771 511.117 381.545H501.156V379.67H513.461C513.432 387.155 509.945 393.791 501.215 397.98L499.955 396.105ZM538.715 379.201V391.184H526.674V379.201H538.715ZM528.93 389.338H536.488V381.076H528.93V389.338ZM529.633 402.316V394.113H531.889V400.383H547.123V402.316H529.633ZM543.637 395.93V376.828H545.922V384.768H549.848V386.701H545.922V395.93H543.637ZM572.025 381.34V383.215H558.959V381.34H564.379V377.619H566.664V381.34H572.025ZM559.896 390.891C559.896 387.434 562.255 384.987 565.492 384.973C568.773 384.987 571.117 387.434 571.146 390.891C571.117 394.392 568.773 396.853 565.492 396.867C562.255 396.853 559.896 394.392 559.896 390.891ZM561.947 390.891C561.947 393.205 563.427 394.86 565.492 394.846C567.572 394.86 569.096 393.205 569.096 390.891C569.096 388.605 567.572 386.936 565.492 386.906C563.427 386.936 561.947 388.605 561.947 390.891ZM573.373 401.584V377.473H575.541V387.814H578.998V376.828H581.195V402.873H578.998V389.719H575.541V401.584H573.373ZM605.98 389.045V390.92H597.924V397.658H608.793V399.592H584.945V397.658H595.668V390.92H587.992V378.967H605.717V380.842H590.307V389.045H605.98ZM197.465 441.164V438.996L207.016 424.289H210.268V438.85H213.227V441.164H210.268V445.5H207.748V441.164H197.465ZM200.307 438.85H207.748V427.629H207.484L200.307 438.674V438.85ZM219.086 443.537L216.801 451.506H214.633L216.244 443.537H219.086ZM229.662 445.793C224.96 445.793 222.235 441.838 222.25 434.895C222.235 428.01 224.989 423.996 229.662 423.996C234.32 423.996 237.074 428.01 237.074 434.895C237.074 441.838 234.364 445.793 229.662 445.793ZM224.799 434.895C224.813 440.388 226.586 443.449 229.662 443.449C232.724 443.449 234.511 440.388 234.496 434.895C234.511 429.401 232.709 426.296 229.662 426.281C226.615 426.296 224.813 429.401 224.799 434.895ZM247.533 445.793C242.831 445.793 240.106 441.838 240.121 434.895C240.106 428.01 242.86 423.996 247.533 423.996C252.191 423.996 254.945 428.01 254.945 434.895C254.945 441.838 252.235 445.793 247.533 445.793ZM242.67 434.895C242.685 440.388 244.457 443.449 247.533 443.449C250.595 443.449 252.382 440.388 252.367 434.895C252.382 429.401 250.58 426.296 247.533 426.281C244.486 426.296 242.685 429.401 242.67 434.895ZM265.404 445.793C260.702 445.793 257.978 441.838 257.992 434.895C257.978 428.01 260.731 423.996 265.404 423.996C270.062 423.996 272.816 428.01 272.816 434.895C272.816 441.838 270.106 445.793 265.404 445.793ZM260.541 434.895C260.556 440.388 262.328 443.449 265.404 443.449C268.466 443.449 270.253 440.388 270.238 434.895C270.253 429.401 268.451 426.296 265.404 426.281C262.357 426.296 260.556 429.401 260.541 434.895ZM288.373 431.086V434.807H299.125V436.711H275.395V434.807H286.117V431.086H288.373ZM276.713 430.559C281.254 430.075 285.604 427.849 285.766 424.934H277.562V423.059H297.016V424.934H288.754C288.915 427.834 293.266 430.075 297.807 430.559L296.957 432.375C292.694 431.848 288.695 429.987 287.26 427.102C285.824 429.987 281.854 431.848 277.562 432.375L276.713 430.559ZM278.266 443.332C278.251 440.446 281.605 438.85 287.26 438.85C292.855 438.85 296.195 440.446 296.225 443.332C296.195 446.232 292.855 447.814 287.26 447.814C281.605 447.814 278.251 446.232 278.266 443.332ZM280.609 443.332C280.58 445.046 283.041 446.042 287.26 446.027C291.435 446.042 293.896 445.046 293.91 443.332C293.896 441.633 291.435 440.651 287.26 440.666C283.041 440.651 280.58 441.633 280.609 443.332ZM330.326 421.828V447.932H328.012V421.828H330.326ZM309.818 432.932C309.833 427.395 312.587 423.864 316.469 423.85C320.336 423.864 323.134 427.395 323.119 432.932C323.134 438.483 320.336 441.999 316.469 441.984C312.587 441.999 309.833 438.483 309.818 432.932ZM312.045 432.932C312.045 437.165 313.861 439.948 316.469 439.934C319.091 439.948 320.893 437.165 320.893 432.932C320.893 428.698 319.091 425.915 316.469 425.9C313.861 425.915 312.045 428.698 312.045 432.932ZM343.48 426.047C343.48 429.592 346.176 432.844 349.955 434.133L348.695 435.949C345.824 434.895 343.554 432.741 342.411 430.017C341.298 433.107 338.969 435.495 335.922 436.682L334.691 434.836C338.588 433.386 341.21 429.899 341.225 425.871V423.176H343.48V426.047ZM338.148 443.068C338.163 440.095 341.43 438.352 346.791 438.352C352.138 438.352 355.375 440.095 355.375 443.068C355.375 446.101 352.138 447.814 346.791 447.814C341.43 447.814 338.163 446.101 338.148 443.068ZM340.463 443.068C340.434 444.914 342.865 445.983 346.791 445.998C350.731 445.983 353.134 444.914 353.148 443.068C353.134 441.296 350.731 440.197 346.791 440.197C342.865 440.197 340.434 441.296 340.463 443.068ZM352.855 437.678V421.828H355.141V428.625H359.066V430.559H355.141V437.678H352.855ZM382.182 421.828V447.932H379.867V421.828H382.182ZM361.674 432.932C361.688 427.395 364.442 423.864 368.324 423.85C372.191 423.864 374.989 427.395 374.975 432.932C374.989 438.483 372.191 441.999 368.324 441.984C364.442 441.999 361.688 438.483 361.674 432.932ZM363.9 432.932C363.9 437.165 365.717 439.948 368.324 439.934C370.946 439.948 372.748 437.165 372.748 432.932C372.748 428.698 370.946 425.915 368.324 425.9C365.717 425.915 363.9 428.698 363.9 432.932ZM403.334 428.83C403.319 433.547 406.352 438.293 410.131 440.021L408.754 441.896C405.795 440.373 403.349 437.268 402.191 433.562C401.034 437.458 398.588 440.798 395.629 442.365L394.135 440.52C397.958 438.645 400.976 433.635 400.99 428.83V424.084H403.334V428.83ZM407.289 432.609V430.734H413.471V421.828H415.756V447.932H413.471V432.609H407.289ZM429.32 425.607C429.291 429.401 432.045 432.785 435.912 434.133L434.74 435.949C431.723 434.836 429.335 432.595 428.163 429.709C427.021 432.8 424.618 435.231 421.557 436.418L420.355 434.602C424.252 433.151 426.977 429.548 426.977 425.607V423.117H429.32V425.607ZM424.076 440.725V438.82H441.596V447.873H439.311V440.725H424.076ZM439.311 437.531V421.828H441.596V437.531H439.311ZM466.176 421.828V432.58H470.541V434.484H466.176V447.873H463.891V421.828H466.176ZM445.873 427.922V426.018H452.582V422.15H454.867V426.018H461.371V427.922H445.873ZM447.367 436.066C447.353 432.551 450.048 430.09 453.754 430.09C457.431 430.09 460.111 432.551 460.141 436.066C460.111 439.597 457.431 442.043 453.754 442.043C450.048 442.043 447.353 439.597 447.367 436.066ZM449.564 436.066C449.55 438.439 451.322 440.109 453.754 440.08C456.156 440.109 457.914 438.439 457.943 436.066C457.914 433.708 456.156 432.009 453.754 432.023C451.322 432.009 449.55 433.708 449.564 436.066ZM492.836 424.465V427.072C492.807 430.266 492.807 433.84 491.869 439.084L489.525 438.82C490.507 433.84 490.507 430.192 490.521 427.072V426.369H474.467V424.465H492.836ZM471.947 444.182V442.277H481.264V432.961H483.52V442.277H495.678V444.182H471.947ZM526.967 421.828V447.873H524.682V434.221H518.471V432.316H524.682V421.828H526.967ZM505.434 441.076C512.479 437.663 515.746 432.639 516.215 426.545H506.576V424.67H518.529C518.515 432.053 515.395 438.601 506.693 442.922L505.434 441.076ZM555.062 434.602V436.477H544.311V439.553H552.133V447.873H549.818V441.428H533.969V439.553H542.055V436.477H531.332V434.602H555.062ZM534.496 432.17V422.443H536.781V425.461H549.672V422.443H551.957V432.17H534.496ZM536.781 430.324H549.672V427.219H536.781V430.324ZM561.537 443.537L559.252 451.506H557.084L558.695 443.537H561.537ZM594.76 421.828V447.873H592.562V421.828H594.76ZM572.494 440.578C578.148 437.224 580.99 432.521 581.43 427.072H573.607V425.168H583.715C583.715 427.731 583.305 430.207 582.411 432.521H587.084V422.531H589.281V446.555H587.084V434.396H581.562C579.994 437.429 577.475 440.109 573.842 442.248L572.494 440.578ZM602.67 443.537L600.385 451.506H598.217L599.828 443.537H602.67ZM204.848 474.182C204.848 478.459 206.913 482.883 210.385 484.758L209.008 486.574C206.488 485.139 204.687 482.473 203.749 479.338C202.782 482.751 200.849 485.666 198.256 487.219L196.762 485.52C200.395 483.439 202.636 478.796 202.621 474.328V469.289H204.848V474.182ZM211.352 491.555V467.385H213.578V477.316H217.152V466.828H219.379V492.873H217.152V479.221H213.578V491.555H211.352ZM246.801 481.77V483.703H235.932V492.873H233.676V483.703H222.953V481.77H246.801ZM225.648 473.625C225.663 470.095 229.34 467.897 234.818 467.883C240.282 467.897 243.988 470.095 243.988 473.625C243.988 477.097 240.282 479.294 234.818 479.279C229.34 479.294 225.663 477.097 225.648 473.625ZM228.021 473.625C227.992 475.939 230.761 477.434 234.818 477.434C238.876 477.434 241.63 475.939 241.645 473.625C241.63 471.267 238.876 469.758 234.818 469.758C230.761 469.758 227.992 471.267 228.021 473.625ZM253.188 488.537L250.902 496.506H248.734L250.346 488.537H253.188ZM284.271 466.828V477.082H288.637V479.074H284.271V492.873H281.986V466.828H284.271ZM265.199 486.633V469.055H267.484V475.939H275.102V469.055H277.387V486.633H265.199ZM267.484 484.699H275.102V477.785H267.484V484.699ZM310.404 466.828V474.152H314.33V476.086H310.404V484.025H308.119V466.828H310.404ZM291.244 480.744V468.85H302.816V470.754H293.5V478.84C298.773 478.84 301.806 478.679 305.307 477.961L305.541 479.865C301.894 480.554 298.773 480.759 293.266 480.744H291.244ZM292.562 490.939C297.147 490.148 301.352 487.409 301.352 483.615V482.648H303.637V483.615C303.622 487.409 307.841 490.148 312.455 490.939L311.518 492.756C307.65 492.038 304.076 490.046 302.523 487.028C300.927 490.046 297.338 492.038 293.471 492.756L292.562 490.939ZM323.764 474.182C323.764 478.459 325.829 482.883 329.301 484.758L327.924 486.574C325.404 485.139 323.603 482.473 322.665 479.338C321.698 482.751 319.765 485.666 317.172 487.219L315.678 485.52C319.311 483.439 321.552 478.796 321.537 474.328V469.289H323.764V474.182ZM330.268 491.555V467.385H332.494V477.316H336.068V466.828H338.295V492.873H336.068V479.221H332.494V491.555H330.268ZM373.188 479.221V481.154H349.428V479.221H373.188ZM352.299 488.127C352.284 485.139 355.668 483.439 361.293 483.439C366.874 483.439 370.229 485.139 370.258 488.127C370.229 491.145 366.874 492.814 361.293 492.814C355.668 492.814 352.284 491.145 352.299 488.127ZM352.445 476.73V467.883H370.229V469.816H354.701V474.855H370.404V476.73H352.445ZM354.643 488.127C354.613 489.958 357.118 490.998 361.293 490.998C365.424 490.998 367.929 489.958 367.943 488.127C367.929 486.311 365.424 485.256 361.293 485.227C357.118 485.256 354.613 486.311 354.643 488.127ZM395.951 469.26C395.966 472.937 400.741 476.101 405.443 476.76L404.506 478.635C400.463 477.961 396.449 475.72 394.779 472.526C393.109 475.749 389.11 477.961 385.053 478.635L384.115 476.76C388.817 476.101 393.578 472.995 393.578 469.26V467.766H395.951V469.26ZM382.885 483.439V481.506H406.615V483.439H395.834V492.873H393.578V483.439H382.885ZM429.174 466.828V472.717H433.1V474.65H429.174V480.188H426.889V466.828H429.174ZM409.926 479.162V468.557H421.967V479.162H409.926ZM411.596 492.17V482.531H413.822V490.28C415.331 490.222 417.338 490.002 419.184 489.387L419.535 491.232C417.001 492.067 414.525 492.185 412.826 492.17H411.596ZM412.182 477.316H419.74V470.432H412.182V477.316ZM418.627 484.553V482.795H424.105V480.48H426.361V482.795H431.781V484.553H418.627ZM420.355 489.152C420.341 486.896 422.318 485.505 425.189 485.49C428.046 485.505 430.053 486.896 430.082 489.152C430.053 491.408 428.046 492.814 425.189 492.814C422.318 492.814 420.341 491.408 420.355 489.152ZM422.406 489.152C422.406 490.397 423.563 491.203 425.189 491.174C426.815 491.203 427.973 490.397 427.973 489.152C427.973 487.937 426.815 487.146 425.189 487.131C423.563 487.146 422.406 487.937 422.406 489.152ZM458.471 480.568V482.443H434.74V480.568H458.471ZM437.377 472.922C437.377 469.655 440.951 467.736 446.605 467.766C452.201 467.736 455.79 469.655 455.805 472.922C455.79 476.159 452.201 478.107 446.605 478.107C440.951 478.107 437.377 476.159 437.377 472.922ZM437.816 492.316V484.729H440.131V490.383H455.834V492.316H437.816ZM439.75 472.922C439.735 474.987 442.401 476.232 446.605 476.232C450.78 476.232 453.446 474.987 453.461 472.922C453.446 470.886 450.78 469.611 446.605 469.611C442.401 469.611 439.735 470.886 439.75 472.922ZM491.957 479.719V481.564H468.197V479.719H478.949V476.672H471.215V468.059H488.998V469.904H473.471V474.797H489.174V476.672H481.176V479.719H491.957ZM471.068 488.156C471.054 485.183 474.438 483.483 480.062 483.469C485.644 483.483 488.998 485.183 489.027 488.156C488.998 491.159 485.644 492.844 480.062 492.873C474.438 492.844 471.054 491.159 471.068 488.156ZM473.412 488.156C473.383 489.987 475.888 491.042 480.062 491.027C484.193 491.042 486.698 489.987 486.713 488.156C486.698 486.354 484.193 485.285 480.062 485.285C475.888 485.285 473.383 486.354 473.412 488.156ZM517.855 477.844V479.719H507.104V482.297H514.809V488.127H499.34V490.764H515.6V492.58H497.055V486.398H512.553V484.084H496.996V482.297H504.818V479.719H494.125V477.844H517.855ZM497.201 475.646V467.707H514.779V475.646H497.201ZM499.486 473.801H512.494V469.553H499.486V473.801ZM542.377 466.828V492.873H540.15V466.828H542.377ZM520.375 478.078C520.39 472.541 522.587 469.04 525.971 469.025C529.135 469.04 531.273 472.087 531.566 476.994H534.936V467.385H537.133V491.555H534.936V478.898H531.581C531.361 483.967 529.179 487.146 525.971 487.131C522.587 487.146 520.39 483.615 520.375 478.078ZM522.543 478.078C522.514 482.297 523.861 484.963 525.971 484.934C528.095 484.963 529.442 482.297 529.428 478.078C529.442 473.845 528.095 471.193 525.971 471.193C523.861 471.193 522.514 473.845 522.543 478.078ZM568.275 466.828V492.873H566.078V466.828H568.275ZM546.01 485.578C551.664 482.224 554.506 477.521 554.945 472.072H547.123V470.168H557.23C557.23 472.731 556.82 475.207 555.927 477.521H560.6V467.531H562.797V491.555H560.6V479.396H555.077C553.51 482.429 550.99 485.109 547.357 487.248L546.01 485.578ZM205.814 516.75C205.8 520.339 208.51 523.649 212.348 524.982L211.176 526.828C208.217 525.744 205.917 523.547 204.76 520.793C203.661 523.898 201.303 526.286 198.227 527.473L196.967 525.627C200.937 524.235 203.544 520.705 203.559 516.662V513.439H205.814V516.75ZM201.156 537.316V529.23H203.5V535.383H218.617V537.316H201.156ZM215.131 531.076V511.828H217.416V519.826H221.342V521.789H217.416V531.076H215.131ZM245.482 515.695V517.6H224.154V515.695H233.705V512.268H235.961V515.695H245.482ZM222.982 534.826V532.922H233.705V529.26C229.062 529.011 226.264 527.209 226.293 524.279C226.264 521.188 229.53 519.357 234.848 519.387C240.092 519.357 243.417 521.188 243.402 524.279C243.417 527.209 240.561 529.011 235.961 529.26V532.922H246.83V534.826H222.982ZM228.607 524.279C228.578 526.257 230.966 527.399 234.848 527.414C238.686 527.399 241.073 526.257 241.059 524.279C241.073 522.346 238.686 521.203 234.848 521.203C230.966 521.203 228.578 522.346 228.607 524.279ZM272.758 532.658V534.592H248.91V532.658H259.662V526.682H261.918V532.658H272.758ZM250.229 525.803C255.253 524.997 259.604 521.965 259.633 517.893H251.137V515.988H259.662V512.385H261.918V515.988H270.473V517.893H261.977C261.977 521.965 266.327 524.997 271.322 525.803L270.443 527.619C266.283 526.887 262.46 524.777 260.79 521.511C259.149 524.777 255.326 526.887 251.137 527.619L250.229 525.803ZM295.902 519.738V521.584H278.061V512.795H280.346V519.738H295.902ZM274.809 527.004V525.129H298.656V527.004H274.809ZM277.914 537.229V529.67H280.199V535.324H296.049V537.229H277.914ZM328.656 511.828V519.768H332.582V521.701H328.656V531.047H326.371V511.828H328.656ZM308.793 520.09C308.778 516.311 311.737 513.688 315.619 513.674C319.53 513.688 322.445 516.311 322.475 520.09C322.445 523.854 319.53 526.506 315.619 526.506C311.737 526.506 308.778 523.854 308.793 520.09ZM311.049 520.09C311.034 522.653 313.041 524.484 315.619 524.484C318.241 524.484 320.204 522.653 320.219 520.09C320.204 517.512 318.241 515.695 315.619 515.695C313.041 515.695 311.034 517.512 311.049 520.09ZM312.367 537.316V529.055H314.623V535.383H329.857V537.316H312.367ZM343.451 515.607C343.422 519.401 346.176 522.785 350.043 524.133L348.871 525.949C345.854 524.836 343.466 522.595 342.294 519.709C341.151 522.8 338.749 525.231 335.688 526.418L334.486 524.602C338.383 523.151 341.107 519.548 341.107 515.607V513.117H343.451V515.607ZM338.207 530.725V528.82H355.727V537.873H353.441V530.725H338.207ZM353.441 527.531V511.828H355.727V527.531H353.441ZM381.742 511.828V537.932H379.428V524.221H373.715V522.316H379.428V511.828H381.742ZM360.209 531.047C364.032 529.26 366.889 524.807 366.889 520.324V518.244H360.912V516.369H366.889V512.326H369.174V516.369H375.062V518.244H369.145V520.324C369.145 524.616 372.089 528.85 375.941 530.578L374.623 532.365C371.649 531.018 369.203 528.161 368.046 524.733C366.918 528.366 364.501 531.398 361.527 532.834L360.209 531.047ZM415.199 528.615V537.873H412.885V530.461H397.68V528.615H415.199ZM394.018 519.533C394.003 515.9 396.889 513.308 400.785 513.322C403.041 513.308 404.96 514.201 406.161 515.666H412.885V511.828H415.199V527.18H412.885V523.43H406.176C404.975 524.909 403.056 525.788 400.785 525.773C396.889 525.803 394.003 523.239 394.018 519.533ZM396.215 519.533C396.215 522.067 398.119 523.84 400.785 523.84C403.349 523.84 405.297 522.067 405.297 519.533C405.297 517.087 403.349 515.285 400.785 515.285C398.119 515.285 396.215 517.087 396.215 519.533ZM407.216 521.525H412.885V517.57H407.201C407.406 518.186 407.523 518.83 407.523 519.533C407.523 520.236 407.406 520.91 407.216 521.525ZM439.896 511.74V518.068H443.852V519.973H439.896V526.154H437.611V511.74H439.896ZM419.594 516.047V514.201H426.215V511.564H428.5V514.201H435.121V516.047H419.594ZM421.088 521.496C421.073 518.859 423.563 517.233 427.357 517.219C431.137 517.233 433.598 518.859 433.627 521.496C433.598 524.147 431.137 525.759 427.357 525.773C423.563 525.759 421.073 524.147 421.088 521.496ZM423.285 529.23V527.502H439.896V533.273H425.6V535.822H440.863V537.58H423.344V531.574H437.611V529.23H423.285ZM423.285 521.496C423.271 523.063 424.882 524.045 427.357 524.045C429.818 524.045 431.43 523.063 431.459 521.496C431.43 519.943 429.818 518.933 427.357 518.918C424.882 518.933 423.271 519.943 423.285 521.496ZM457.328 512.297C463.114 512.297 466.513 513.894 466.527 516.779C466.513 519.738 463.114 521.335 457.328 521.35C451.513 521.335 448.1 519.738 448.1 516.779C448.1 513.894 451.513 512.297 457.328 512.297ZM445.463 524.982V523.107H469.193V524.982H445.463ZM448.334 528.996V527.238H466.146V533.068H450.678V535.764H466.938V537.58H448.393V531.369H463.891V528.996H448.334ZM450.502 516.779C450.473 518.596 453.007 519.592 457.328 519.592C461.649 519.592 464.169 518.596 464.184 516.779C464.169 515.065 461.649 514.04 457.328 514.025C453.007 514.04 450.473 515.065 450.502 516.779ZM499.076 511.828V522.58H503.441V524.484H499.076V537.873H496.791V511.828H499.076ZM478.773 517.922V516.018H485.482V512.15H487.768V516.018H494.271V517.922H478.773ZM480.268 526.066C480.253 522.551 482.948 520.09 486.654 520.09C490.331 520.09 493.012 522.551 493.041 526.066C493.012 529.597 490.331 532.043 486.654 532.043C482.948 532.043 480.253 529.597 480.268 526.066ZM482.465 526.066C482.45 528.439 484.223 530.109 486.654 530.08C489.057 530.109 490.814 528.439 490.844 526.066C490.814 523.708 489.057 522.009 486.654 522.023C484.223 522.009 482.45 523.708 482.465 526.066ZM514.164 519.826C514.179 524.25 517.387 528.747 521.225 530.402L519.936 532.219C516.889 530.842 514.267 527.839 513.051 524.235C511.835 528.059 509.198 531.369 506.225 532.863L504.848 531.047C508.583 529.26 511.835 524.338 511.85 519.826V516.428H505.697V514.523H520.375V516.428H514.164V519.826ZM524.008 537.873V511.828H526.322V537.873H524.008ZM554.623 532.6V534.533H530.775V532.6H536.693V525.583C534.467 524.426 533.119 522.551 533.119 520.178C533.119 516.149 537.074 513.498 542.641 513.469C548.207 513.498 552.162 516.149 552.162 520.178C552.162 522.507 550.858 524.353 548.705 525.51V532.6H554.623ZM535.346 520.178C535.331 523.093 538.363 525.041 542.641 525.041C546.874 525.041 549.936 523.093 549.936 520.178C549.936 517.263 546.874 515.344 542.641 515.373C538.363 515.344 535.331 517.263 535.346 520.178ZM538.949 532.6H546.391V526.403C545.263 526.696 544.003 526.857 542.641 526.857C541.308 526.857 540.062 526.711 538.949 526.418V532.6ZM559.457 535.676C558.432 535.661 557.553 534.812 557.582 533.771C557.553 532.746 558.432 531.896 559.457 531.896C560.497 531.896 561.347 532.746 561.332 533.771C561.347 534.812 560.497 535.661 559.457 535.676ZM218.529 556.828V582.932H216.215V556.828H218.529ZM198.021 567.932C198.036 562.395 200.79 558.864 204.672 558.85C208.539 558.864 211.337 562.395 211.322 567.932C211.337 573.483 208.539 576.999 204.672 576.984C200.79 576.999 198.036 573.483 198.021 567.932ZM200.248 567.932C200.248 572.165 202.064 574.948 204.672 574.934C207.294 574.948 209.096 572.165 209.096 567.932C209.096 563.698 207.294 560.915 204.672 560.9C202.064 560.915 200.248 563.698 200.248 567.932ZM246.742 567.785V569.631H222.982V567.785H246.742ZM225.854 573.762V571.975H243.666V578.01H228.197V580.705H244.457V582.58H225.912V576.281H241.41V573.762H225.854ZM226.146 565.646V557.736H243.637V559.582H228.461V563.771H243.9V565.646H226.146ZM272.641 570.568V572.443H248.91V570.568H272.641ZM251.547 562.922C251.547 559.655 255.121 557.736 260.775 557.766C266.371 557.736 269.96 559.655 269.975 562.922C269.96 566.159 266.371 568.107 260.775 568.107C255.121 568.107 251.547 566.159 251.547 562.922ZM251.986 582.316V574.729H254.301V580.383H270.004V582.316H251.986ZM253.92 562.922C253.905 564.987 256.571 566.232 260.775 566.232C264.95 566.232 267.616 564.987 267.631 562.922C267.616 560.886 264.95 559.611 260.775 559.611C256.571 559.611 253.905 560.886 253.92 562.922ZM291.127 561.75C291.112 565.339 293.822 568.649 297.66 569.982L296.488 571.828C293.529 570.744 291.229 568.547 290.072 565.793C288.974 568.898 286.615 571.286 283.539 572.473L282.279 570.627C286.249 569.235 288.856 565.705 288.871 561.662V558.439H291.127V561.75ZM286.469 582.316V574.23H288.812V580.383H303.93V582.316H286.469ZM300.443 576.076V556.828H302.729V564.826H306.654V566.789H302.729V576.076H300.443ZM330.795 560.695V562.6H309.467V560.695H319.018V557.268H321.273V560.695H330.795ZM308.295 579.826V577.922H319.018V574.26C314.374 574.011 311.576 572.209 311.605 569.279C311.576 566.188 314.843 564.357 320.16 564.387C325.404 564.357 328.729 566.188 328.715 569.279C328.729 572.209 325.873 574.011 321.273 574.26V577.922H332.143V579.826H308.295ZM313.92 569.279C313.891 571.257 316.278 572.399 320.16 572.414C323.998 572.399 326.386 571.257 326.371 569.279C326.386 567.346 323.998 566.203 320.16 566.203C316.278 566.203 313.891 567.346 313.92 569.279ZM358.07 577.658V579.592H334.223V577.658H344.975V571.682H347.23V577.658H358.07ZM335.541 570.803C340.565 569.997 344.916 566.965 344.945 562.893H336.449V560.988H344.975V557.385H347.23V560.988H355.785V562.893H347.289C347.289 566.965 351.64 569.997 356.635 570.803L355.756 572.619C351.596 571.887 347.772 569.777 346.103 566.511C344.462 569.777 340.639 571.887 336.449 572.619L335.541 570.803ZM382.475 556.828V582.873H380.248V556.828H382.475ZM360.473 568.078C360.487 562.541 362.685 559.04 366.068 559.025C369.232 559.04 371.371 562.087 371.664 566.994H375.033V557.385H377.23V581.555H375.033V568.898H371.679C371.459 573.967 369.276 577.146 366.068 577.131C362.685 577.146 360.487 573.615 360.473 568.078ZM362.641 568.078C362.611 572.297 363.959 574.963 366.068 574.934C368.192 574.963 369.54 572.297 369.525 568.078C369.54 563.845 368.192 561.193 366.068 561.193C363.959 561.193 362.611 563.845 362.641 568.078ZM413.969 556.828V562.482H417.895V564.416H413.969V570.1H411.684V556.828H413.969ZM394.105 563.566C394.091 560.153 396.962 557.81 400.873 557.795C404.799 557.81 407.641 560.153 407.641 563.566C407.641 566.994 404.799 569.353 400.873 569.367C396.962 569.353 394.091 566.994 394.105 563.566ZM396.361 563.566C396.347 565.852 398.266 567.492 400.873 567.492C403.466 567.492 405.399 565.852 405.385 563.566C405.399 561.311 403.466 559.699 400.873 559.729C398.266 559.699 396.347 561.311 396.361 563.566ZM397.357 573.176V571.33H413.969V577.688H399.672V580.676H414.936V582.521H397.416V575.93H411.684V573.176H397.357ZM431.4 557.297C437.187 557.297 440.585 558.894 440.6 561.779C440.585 564.738 437.187 566.335 431.4 566.35C425.585 566.335 422.172 564.738 422.172 561.779C422.172 558.894 425.585 557.297 431.4 557.297ZM419.535 569.982V568.107H443.266V569.982H419.535ZM422.406 573.996V572.238H440.219V578.068H424.75V580.764H441.01V582.58H422.465V576.369H437.963V573.996H422.406ZM424.574 561.779C424.545 563.596 427.079 564.592 431.4 564.592C435.722 564.592 438.241 563.596 438.256 561.779C438.241 560.065 435.722 559.04 431.4 559.025C427.079 559.04 424.545 560.065 424.574 561.779ZM473.354 556.828V562.219H477.279V564.152H473.354V570.363H471.068V556.828H473.354ZM454.252 568.283V558.029H456.566V566.379C460.258 566.35 464.081 566.071 468.314 565.207L468.607 567.111C464.154 568.049 460.243 568.298 456.332 568.283H454.252ZM456.215 573.967V572.121H464.213V569.484H466.469V572.121H474.496V573.967H456.215ZM458.031 578.977C458.031 576.501 460.771 575.109 465.326 575.08C469.882 575.109 472.621 576.501 472.621 578.977C472.621 581.438 469.882 582.814 465.326 582.814C460.771 582.814 458.031 581.438 458.031 578.977ZM460.404 578.977C460.39 580.339 462.279 581.115 465.326 581.115C468.373 581.115 470.233 580.339 470.248 578.977C470.233 577.614 468.373 576.838 465.326 576.867C462.279 576.838 460.39 577.614 460.404 578.977ZM499.809 559.465V562.072C499.779 565.266 499.779 568.84 498.842 574.084L496.498 573.82C497.479 568.84 497.479 565.192 497.494 562.072V561.369H481.439V559.465H499.809ZM478.92 579.182V577.277H488.236V567.961H490.492V577.277H502.65V579.182H478.92ZM509.125 578.537L506.84 586.506H504.672L506.283 578.537H509.125ZM543.9 577.688V579.65H520.053V577.688H530.746V571.682H522.221V569.836H526.293V561.281H522.162V559.377H541.615V561.281H537.484V569.836H541.557V571.682H533.002V577.688H543.9ZM528.578 569.836H535.229V561.281H528.578V569.836ZM555.209 560.607C555.18 564.401 557.934 567.785 561.801 569.133L560.629 570.949C557.611 569.836 555.224 567.595 554.052 564.709C552.909 567.8 550.507 570.231 547.445 571.418L546.244 569.602C550.141 568.151 552.865 564.548 552.865 560.607V558.117H555.209V560.607ZM549.965 575.725V573.82H567.484V582.873H565.199V575.725H549.965ZM565.199 572.531V556.828H567.484V572.531H565.199ZM580.727 564.826C580.697 569.001 583.715 573.601 587.494 575.402L586.176 577.219C583.246 575.783 580.771 572.707 579.599 569.177C578.397 573 575.79 576.369 572.875 577.863L571.469 576.047C575.219 574.216 578.441 569.265 578.471 564.826V561.428H572.406V559.523H586.586V561.428H580.727V564.826ZM589.779 582.873V556.828H592.064V567.375H596.43V569.338H592.064V582.873H589.779ZM621.684 577.717V579.65H597.836V577.717H608.559V572.795H600.824V564.768H616.41V560.666H600.766V558.762H618.666V566.643H603.109V570.891H619.281V572.795H610.814V577.717H621.684ZM220.873 617.297V619.172H210.004V627.873H207.748V619.172H197.025V617.297H220.873ZM200.072 614.133V602.912H202.357V606.516H215.482V602.912H217.797V614.133H200.072ZM202.357 612.258H215.482V608.391H202.357V612.258ZM244.574 601.828V627.932H242.289V613.576H236.781V611.672H242.289V601.828H244.574ZM224.184 621.633V604.23H236.342V606.135H226.498V611.555H235.199V613.43H226.498V619.729C231.273 619.714 234.35 619.582 237.924 618.938L238.188 620.842C234.394 621.457 231.215 621.633 226.176 621.633H224.184ZM277.27 618.967V627.521H259.34V618.967H277.27ZM256.439 616.389V614.484H267.162V611.525H259.516V602.795H277.152V611.525H269.447V614.484H280.17V616.389H256.439ZM261.625 625.646H275.014V620.812H261.625V625.646ZM261.771 609.65H274.867V604.67H261.771V609.65ZM294.232 602.297C300.019 602.297 303.417 603.894 303.432 606.779C303.417 609.738 300.019 611.335 294.232 611.35C288.417 611.335 285.004 609.738 285.004 606.779C285.004 603.894 288.417 602.297 294.232 602.297ZM282.367 614.982V613.107H306.098V614.982H282.367ZM285.238 618.996V617.238H303.051V623.068H287.582V625.764H303.842V627.58H285.297V621.369H300.795V618.996H285.238ZM287.406 606.779C287.377 608.596 289.911 609.592 294.232 609.592C298.554 609.592 301.073 608.596 301.088 606.779C301.073 605.065 298.554 604.04 294.232 604.025C289.911 604.04 287.377 605.065 287.406 606.779ZM337.357 601.828V627.873H335.043V601.828H337.357ZM315.795 619.465C316.923 619.465 318.139 619.45 319.398 619.436V606.574H316.469V604.67H331.352V606.574H328.393V619.099C329.857 618.996 331.308 618.864 332.699 618.703L332.846 620.432C327.162 621.311 320.878 621.398 316.059 621.428L315.795 619.465ZM321.654 619.392C323.119 619.362 324.628 619.304 326.137 619.23V606.574H321.654V619.392ZM361.908 601.828V612.58H366.273V614.484H361.908V627.873H359.623V601.828H361.908ZM341.605 607.922V606.018H348.314V602.15H350.6V606.018H357.104V607.922H341.605ZM343.1 616.066C343.085 612.551 345.78 610.09 349.486 610.09C353.163 610.09 355.844 612.551 355.873 616.066C355.844 619.597 353.163 622.043 349.486 622.043C345.78 622.043 343.085 619.597 343.1 616.066ZM345.297 616.066C345.282 618.439 347.055 620.109 349.486 620.08C351.889 620.109 353.646 618.439 353.676 616.066C353.646 613.708 351.889 612.009 349.486 612.023C347.055 612.009 345.282 613.708 345.297 616.066ZM380.863 604.113V606.428H386.957V601.857H389.271V620.871H386.957V613.928H380.863V616.271H368.91V604.113H380.863ZM371.195 614.426H378.607V606.018H371.195V614.426ZM372.426 627.316V619.172H374.74V625.383H389.857V627.316H372.426ZM380.863 612.023H386.957V608.361H380.863V612.023ZM402.777 608.83C402.763 613.547 405.795 618.293 409.574 620.021L408.197 621.896C405.238 620.373 402.792 617.268 401.635 613.562C400.478 617.458 398.031 620.798 395.072 622.365L393.578 620.52C397.401 618.645 400.419 613.635 400.434 608.83V604.084H402.777V608.83ZM406.732 612.609V610.734H412.914V601.828H415.199V627.932H412.914V612.609H406.732ZM447.221 601.828V612.141H451.586V614.074H447.221V627.932H444.936V601.828H447.221ZM428.207 621.398V604.377H440.365V606.281H430.492V619.465C435.209 619.45 438.534 619.245 442.416 618.527L442.709 620.52C438.622 621.252 435.209 621.398 430.258 621.398H428.207ZM477.221 605.783V607.688H473.354V611.32H477.221V613.254H473.354V617.297H471.068V601.828H473.354V605.783H477.221ZM453.49 609.533C453.476 605.9 456.376 603.396 460.316 603.41C464.286 603.396 467.143 605.9 467.172 609.533C467.143 613.151 464.286 615.642 460.316 615.656C456.376 615.642 453.476 613.151 453.49 609.533ZM455.746 609.533C455.731 611.994 457.68 613.693 460.316 613.723C462.982 613.693 464.901 611.994 464.916 609.533C464.901 607.087 462.982 605.344 460.316 605.373C457.68 605.344 455.731 607.087 455.746 609.533ZM456.361 622.98C456.376 619.89 459.687 618.103 465.004 618.088C470.321 618.103 473.588 619.89 473.588 622.98C473.588 626.013 470.321 627.814 465.004 627.814C459.687 627.814 456.376 626.013 456.361 622.98ZM458.676 622.98C458.646 624.855 461.078 625.954 465.004 625.969C468.944 625.954 471.347 624.855 471.361 622.98C471.347 621.091 468.944 619.963 465.004 619.963C461.078 619.963 458.646 621.091 458.676 622.98ZM499.281 601.857V610.441H503.207V612.375H499.281V621.369H496.996V601.857H499.281ZM478.979 606.926V605.051H485.6V601.857H487.885V605.051H494.506V606.926H478.979ZM480.473 613.225C480.458 610.266 482.978 608.361 486.742 608.361C490.463 608.361 492.982 610.266 493.012 613.225C492.982 616.154 490.463 618.044 486.742 618.029C482.978 618.044 480.458 616.154 480.473 613.225ZM482.67 613.225C482.655 615.056 484.281 616.242 486.742 616.213C489.174 616.242 490.814 615.056 490.844 613.225C490.814 611.364 489.174 610.163 486.742 610.178C484.281 610.163 482.655 611.364 482.67 613.225ZM482.992 627.316V619.816H485.248V625.383H500.482V627.316H482.992ZM525.385 606.34V608.215H512.318V606.34H517.738V602.619H520.023V606.34H525.385ZM513.256 615.891C513.256 612.434 515.614 609.987 518.852 609.973C522.133 609.987 524.477 612.434 524.506 615.891C524.477 619.392 522.133 621.853 518.852 621.867C515.614 621.853 513.256 619.392 513.256 615.891ZM515.307 615.891C515.307 618.205 516.786 619.86 518.852 619.846C520.932 619.86 522.455 618.205 522.455 615.891C522.455 613.605 520.932 611.936 518.852 611.906C516.786 611.936 515.307 613.605 515.307 615.891ZM526.732 626.584V602.473H528.9V612.814H532.357V601.828H534.555V627.873H532.357V614.719H528.9V626.584H526.732ZM562.533 605.783V607.688H558.666V611.32H562.533V613.254H558.666V617.297H556.381V601.828H558.666V605.783H562.533ZM538.803 609.533C538.788 605.9 541.688 603.396 545.629 603.41C549.599 603.396 552.455 605.9 552.484 609.533C552.455 613.151 549.599 615.642 545.629 615.656C541.688 615.642 538.788 613.151 538.803 609.533ZM541.059 609.533C541.044 611.994 542.992 613.693 545.629 613.723C548.295 613.693 550.214 611.994 550.229 609.533C550.214 607.087 548.295 605.344 545.629 605.373C542.992 605.344 541.044 607.087 541.059 609.533ZM541.674 622.98C541.688 619.89 544.999 618.103 550.316 618.088C555.634 618.103 558.9 619.89 558.9 622.98C558.9 626.013 555.634 627.814 550.316 627.814C544.999 627.814 541.688 626.013 541.674 622.98ZM543.988 622.98C543.959 624.855 546.391 625.954 550.316 625.969C554.257 625.954 556.659 624.855 556.674 622.98C556.659 621.091 554.257 619.963 550.316 619.963C546.391 619.963 543.959 621.091 543.988 622.98ZM204.818 652.014C204.833 654.899 206.84 657.814 210.18 659.074L208.979 660.832C206.474 659.865 204.672 658.005 203.734 655.764C202.782 658.239 200.907 660.451 198.344 661.564L197.084 659.777C200.512 658.283 202.606 654.914 202.621 652.014V648.469H204.818V652.014ZM201.83 668.186C201.801 665.241 205.141 663.513 210.561 663.527C215.951 663.513 219.306 665.241 219.32 668.186C219.306 671.101 215.951 672.814 210.561 672.814C205.141 672.814 201.801 671.101 201.83 668.186ZM204.115 668.186C204.086 669.958 206.562 671.042 210.561 671.027C214.516 671.042 217.006 669.958 217.035 668.186C217.006 666.384 214.516 665.3 210.561 665.285C206.562 665.3 204.086 666.384 204.115 668.186ZM211.352 662.121V647.355H213.52V653.859H216.977V646.857H219.174V662.941H216.977V655.764H213.52V662.121H211.352ZM234.35 649.846V651.721H226.234V656.73H233.969V658.576H226.234V664.465C230.102 664.45 232.504 664.333 235.346 663.82L235.551 665.725C232.489 666.311 229.984 666.442 225.707 666.428H224.037V649.846H234.35ZM237.279 671.555V647.385H239.506V657.316H243.08V646.828H245.307V672.873H243.08V659.221H239.506V671.555H237.279ZM271.205 646.828V672.873H269.008V646.828H271.205ZM248.881 665.578C254.55 662.224 257.392 657.521 257.846 652.072H250.053V650.168H260.131C260.131 651.501 260.014 652.819 259.779 654.094H263.734V647.531H265.932V671.555H263.734V662.531H258.9V660.627H263.734V655.998H259.325C258.065 660.407 255.209 664.304 250.287 667.248L248.881 665.578ZM298.656 658.928V660.744H274.809V658.928H298.656ZM277.68 664.553V662.824H295.668V668.361H280.023V670.852H296.518V672.521H277.709V666.779H293.383V664.553H277.68ZM277.826 649.289V647.619H295.58V653.01H280.199V655.295H296.049V656.965H277.914V651.428H293.266V649.289H277.826ZM321.449 649.201V661.184H309.408V649.201H321.449ZM311.664 659.338H319.223V651.076H311.664V659.338ZM312.367 672.316V664.113H314.623V670.383H329.857V672.316H312.367ZM326.371 665.93V646.828H328.656V654.768H332.582V656.701H328.656V665.93H326.371ZM357.982 657.785V659.631H334.223V657.785H357.982ZM337.094 663.762V661.975H354.906V668.01H339.438V670.705H355.697V672.58H337.152V666.281H352.65V663.762H337.094ZM337.387 655.646V647.736H354.877V649.582H339.701V653.771H355.141V655.646H337.387ZM367.152 648.85C370.697 648.864 373.261 651.911 373.612 656.789H379.457V646.828H381.742V672.932H379.457V658.693H373.642C373.393 663.806 370.785 666.999 367.152 666.984C363.3 666.999 360.604 663.483 360.619 657.932C360.604 652.395 363.3 648.864 367.152 648.85ZM362.816 657.932C362.831 662.165 364.589 664.948 367.152 664.934C369.701 664.948 371.488 662.165 371.488 657.932C371.488 653.698 369.701 650.915 367.152 650.9C364.589 650.915 362.831 653.698 362.816 657.932ZM408.197 646.857V661.037H406V655.061H402.309V660.803H400.141V647.355H402.309V653.215H406V646.857H408.197ZM387.396 659.309V648.557H389.682V657.404C392.421 657.39 395.072 657.243 398.236 656.643L398.5 658.576C394.97 659.235 392.128 659.309 389.037 659.309H387.396ZM391.029 672.521V662.209H393.314V665.373H405.941V662.209H408.197V672.521H391.029ZM393.314 670.617H405.941V667.219H393.314V670.617ZM433.48 646.828V672.873H431.195V646.828H433.48ZM413.705 666.164V649.406H415.961V664.172C419.945 664.143 424.047 663.835 428.412 662.912L428.734 664.875C424.105 665.842 419.989 666.164 415.814 666.164H413.705ZM458.09 646.828V657.141H462.455V659.074H458.09V672.932H455.805V646.828H458.09ZM439.076 666.398V649.377H451.234V651.281H441.361V664.465C446.078 664.45 449.403 664.245 453.285 663.527L453.578 665.52C449.491 666.252 446.078 666.398 441.127 666.398H439.076ZM466.615 670.676C465.59 670.661 464.711 669.812 464.74 668.771C464.711 667.746 465.59 666.896 466.615 666.896C467.655 666.896 468.505 667.746 468.49 668.771C468.505 669.812 467.655 670.661 466.615 670.676Z" fill="black"/>
<defs>
<linearGradient id="paint0_linear_152_435" x1="120.28" y1="95.7549" x2="120.01" y2="165.213" gradientUnits="userSpaceOnUse">
<stop stop-color="#828282"/>
<stop offset="1" stop-color="#FFF9E9"/>
</linearGradient>
<linearGradient id="paint1_linear_152_435" x1="120.75" y1="66.5625" x2="120.75" y2="260.34" gradientUnits="userSpaceOnUse">
<stop stop-color="#A6A6A6"/>
<stop offset="1" stop-color="#FFF9E9"/>
</linearGradient>
</defs>
</svg>
