<svg width="108" height="30" viewBox="0 0 108 30" fill="none" xmlns="http://www.w3.org/2000/svg">
<path d="M0.772812 29.88V17.72C0.772812 14.1733 2.95948 12.4 7.33281 12.4H18.6128C19.2528 12.4 19.7061 12.28 19.9728 12.04C20.2661 11.8 20.4128 11.44 20.4128 10.96V6.88C20.4128 6.4 20.2661 6.05333 19.9728 5.84C19.7061 5.6 19.2528 5.48 18.6128 5.48H2.13281V0.68H19.3728C23.7728 0.68 25.9728 2.45333 25.9728 6V11.84C25.9728 15.4133 23.7728 17.2 19.3728 17.2H8.13281C6.93281 17.2 6.33281 17.6533 6.33281 18.56V25.08H25.9728V29.88H0.772812ZM32.1791 24.36V6.2C32.1791 2.52 34.4857 0.68 39.0991 0.68H51.2991C55.8857 0.68 58.1791 2.52 58.1791 6.2V24.36C58.1791 28.04 55.8857 29.88 51.2991 29.88H39.0991C34.4857 29.88 32.1791 28.04 32.1791 24.36ZM37.7391 23.6C37.7391 24.5867 38.3524 25.08 39.5791 25.08H50.7791C52.0057 25.08 52.6191 24.5867 52.6191 23.6V6.96C52.6191 5.97333 52.0057 5.48 50.7791 5.48H39.5791C38.3524 5.48 37.7391 5.97333 37.7391 6.96V23.6ZM63.0384 5.48V0.68H76.5584V29.88H70.9984V5.48H63.0384ZM82.6097 24.96V20.16L100.89 0.68H108.01V29.88H102.45V24.96H82.6097ZM89.7297 20.16H102.45V6.64L89.7297 20.16Z" fill="white"/>
</svg>
