<svg width="119" height="30" viewBox="0 0 119 30" fill="none" xmlns="http://www.w3.org/2000/svg">
<path d="M0.100937 29.88V17.72C0.100937 14.1733 2.2876 12.4 6.66094 12.4H17.9409C18.5809 12.4 19.0343 12.28 19.3009 12.04C19.5943 11.8 19.7409 11.44 19.7409 10.96V6.88C19.7409 6.4 19.5943 6.05333 19.3009 5.84C19.0343 5.6 18.5809 5.48 17.9409 5.48H1.46094V0.68H18.7009C23.1009 0.68 25.3009 2.45333 25.3009 6V11.84C25.3009 15.4133 23.1009 17.2 18.7009 17.2H7.46094C6.26094 17.2 5.66094 17.6533 5.66094 18.56V25.08H25.3009V29.88H0.100937ZM31.5072 24.36V6.2C31.5072 2.52 33.8139 0.68 38.4272 0.68H50.6272C55.2139 0.68 57.5072 2.52 57.5072 6.2V24.36C57.5072 28.04 55.2139 29.88 50.6272 29.88H38.4272C33.8139 29.88 31.5072 28.04 31.5072 24.36ZM37.0672 23.6C37.0672 24.5867 37.6805 25.08 38.9072 25.08H50.1072C51.3339 25.08 51.9472 24.5867 51.9472 23.6V6.96C51.9472 5.97333 51.3339 5.48 50.1072 5.48H38.9072C37.6805 5.48 37.0672 5.97333 37.0672 6.96V23.6ZM62.3666 29.88V17.72C62.3666 14.1733 64.5532 12.4 68.9266 12.4H80.2066C80.8466 12.4 81.2999 12.28 81.5666 12.04C81.8599 11.8 82.0066 11.44 82.0066 10.96V6.88C82.0066 6.4 81.8599 6.05333 81.5666 5.84C81.2999 5.6 80.8466 5.48 80.2066 5.48H63.7266V0.68H80.9666C85.3666 0.68 87.5666 2.45333 87.5666 6V11.84C87.5666 15.4133 85.3666 17.2 80.9666 17.2H69.7266C68.5266 17.2 67.9266 17.6533 67.9266 18.56V25.08H87.5666V29.88H62.3666ZM93.7728 29.88V17.72C93.7728 14.1733 95.9595 12.4 100.333 12.4H111.613C112.253 12.4 112.706 12.28 112.973 12.04C113.266 11.8 113.413 11.44 113.413 10.96V6.88C113.413 6.4 113.266 6.05333 112.973 5.84C112.706 5.6 112.253 5.48 111.613 5.48H95.1328V0.68H112.373C116.773 0.68 118.973 2.45333 118.973 6V11.84C118.973 15.4133 116.773 17.2 112.373 17.2H101.133C99.9328 17.2 99.3328 17.6533 99.3328 18.56V25.08H118.973V29.88H93.7728Z" fill="white"/>
</svg>
