<svg width="700" height="750" viewBox="0 0 700 750" fill="none" xmlns="http://www.w3.org/2000/svg">
<rect width="700" height="750" rx="35" fill="#FFE9E9"/>
<path d="M413.324 90.332C413.275 97.0459 416.425 104.907 424.066 108.398L420.16 113.916C415.229 111.694 411.859 107.397 409.882 102.295C407.929 107.959 404.413 112.695 399.262 115.088L395.209 109.521C402.997 105.933 406.195 97.6562 406.195 90.332V88.5742H397.064V82.8613H422.016V88.5742H413.324V90.332ZM424.848 123.438V78.6133H431.879V95.4102H438.227V101.221H431.879V123.438H424.848ZM477.484 78.6621V111.328H470.502V101.172H460.663C458.49 103.345 455.463 104.663 452.094 104.639C445.282 104.663 440.033 99.6582 440.082 92.9688C440.033 86.1572 445.282 81.2012 452.094 81.2012C455.463 81.2012 458.515 82.5195 460.688 84.7168H470.502V78.6621H477.484ZM446.723 92.9688C446.723 96.4844 448.944 98.4131 452.094 98.4375C455.023 98.4131 457.318 96.4844 457.318 92.9688C457.318 89.4043 455.023 87.4268 452.094 87.4512C448.944 87.4268 446.723 89.4043 446.723 92.9688ZM447.455 122.705V108.057H454.486V117.09H478.51V122.705H447.455ZM463.715 90.2832C463.91 91.1377 464.008 92.041 464.008 92.9688C464.008 93.8721 463.91 94.7266 463.715 95.5566H470.502V90.2832H463.715ZM531.781 78.6133V123.438H524.652V78.6133H531.781ZM493.939 110.4C505.341 105.029 510.126 98.3887 511.127 88.7207H496.479V83.252H518.305C518.28 97.0703 513.91 108.325 497.602 115.967L493.939 110.4ZM553.9 85.6445C553.9 90.8447 556.586 95.9229 563.861 98.0957L560.15 103.516C555.487 102.051 552.313 99.1943 550.434 95.5322C548.505 99.7803 545.16 103.125 540.131 104.785L536.322 99.3164C544.037 96.8018 546.796 90.8447 546.82 84.9121V81.0547H553.9V85.6445ZM542.572 114.6C542.548 109.082 548.554 105.786 558.051 105.811C567.377 105.786 573.285 109.082 573.285 114.6C573.285 120.215 567.377 123.486 558.051 123.438C548.554 123.486 542.548 120.215 542.572 114.6ZM549.604 114.6C549.579 116.968 552.484 117.944 558.051 117.969C563.568 117.944 566.327 116.968 566.352 114.6C566.327 112.402 563.568 111.255 558.051 111.279C552.484 111.255 549.579 112.402 549.604 114.6ZM565.814 104.98V78.6133H572.846V88.7207H578.656V94.5312H572.846V104.98H565.814ZM605.951 83.0566V88.5742H597.284C597.479 92.749 600.434 97.1191 607.611 98.9258L604.34 104.297C599.335 103.076 595.917 100.439 593.866 97.0459C591.913 100.952 588.446 104.028 583.197 105.469L579.926 100C587.104 98.0225 590.058 93.2373 590.229 88.5742H581.586V83.0566H590.229V78.4668H597.309V83.0566H605.951ZM587.348 114.795C587.348 109.351 593.305 106.323 602.826 106.299C612.47 106.323 618.427 109.351 618.451 114.795C618.427 120.288 612.47 123.486 602.826 123.438C593.305 123.486 587.348 120.288 587.348 114.795ZM594.33 114.795C594.33 117.017 597.235 118.14 602.826 118.164C608.637 118.14 611.42 117.017 611.469 114.795C611.42 112.622 608.637 111.621 602.826 111.67C597.235 111.621 594.33 112.622 594.33 114.795ZM604.633 95.9961V90.3809H611.322V78.6133H618.305V105.713H611.322V95.9961H604.633ZM633.686 115.039L629.34 129.15H623.627L625.971 115.039H633.686ZM525.775 161.084C525.751 166.65 528.534 172.168 536.029 174.512L532.318 180.029C527.509 178.442 524.262 175.415 522.333 171.533C520.331 175.757 516.864 179.077 511.762 180.762L507.855 175.244C515.766 172.852 518.646 166.87 518.695 161.035V156.396H525.775V161.084ZM515.082 197.705V183.154H522.211V192.09H545.99V197.705H515.082ZM537.445 186.377V153.662H544.477V166.357H550.287V172.266H544.477V186.377H537.445ZM591.107 158.984V164.551H553.656V158.984H568.842V154.004H575.873V158.984H591.107ZM551.996 194.092V188.477H568.842V183.667C561.347 182.935 556.83 179.81 556.83 174.951C556.83 169.458 562.787 166.138 572.357 166.162C581.757 166.138 587.812 169.458 587.787 174.951C587.812 179.785 583.246 182.935 575.873 183.667V188.477H592.963V194.092H551.996ZM564.105 174.951C564.081 177.319 566.84 178.271 572.357 178.271C577.729 178.271 580.561 177.319 580.561 174.951C580.561 172.607 577.729 171.631 572.357 171.631C566.84 171.631 564.081 172.607 564.105 174.951ZM636.176 187.793V193.506H595.209V187.793H612.201V179.492H619.135V187.793H636.176ZM596.332 175.537C606.854 174.39 611.347 169.434 611.981 165.039H598.676V159.473H612.201V154.053H619.135V159.473H632.709V165.039H619.354C619.965 169.434 624.457 174.39 635.053 175.537L632.514 181.055C624.311 180.078 618.671 176.855 615.644 172.485C612.641 176.855 607.05 180.078 598.871 181.055L596.332 175.537Z" fill="black"/>
<ellipse cx="213.5" cy="128.438" rx="29.75" ry="31.875" fill="url(#paint0_linear_152_471)"/>
<path d="M215.25 59.0625L215.25 86.25" stroke="#FF6A6A" stroke-width="8.75" stroke-linecap="round"/>
<path d="M242.981 96.261L260.858 77.1074" stroke="#FF6A6A" stroke-width="8.75" stroke-linecap="round"/>
<path d="M174.299 180.242L192.176 161.089" stroke="#FF6A6A" stroke-width="8.75" stroke-linecap="round"/>
<path d="M237.742 161.318L255.619 180.471" stroke="#FF6A6A" stroke-width="8.75" stroke-linecap="round"/>
<path d="M165.508 76.7065L183.385 95.8602" stroke="#FF6A6A" stroke-width="8.75" stroke-linecap="round"/>
<path d="M255.5 128.438H280.875" stroke="#FF6A6A" stroke-width="8.75" stroke-linecap="round"/>
<path d="M148.75 128.438H174.125" stroke="#FF6A6A" stroke-width="8.75" stroke-linecap="round"/>
<path fill-rule="evenodd" clip-rule="evenodd" d="M98.1747 250.44C92.3571 254.683 85.2336 257.179 77.539 257.179C57.9113 257.179 42 240.937 42 220.901C42 200.865 57.9113 184.622 77.539 184.622C81.0118 184.622 84.3684 185.131 87.541 186.079C87.0367 183.563 86.7735 180.972 86.7735 178.326C86.7735 154.316 108.448 134.852 135.185 134.852C161.755 134.852 183.326 154.074 183.594 177.877C185.879 177.58 188.215 177.427 190.592 177.427C217.329 177.427 239.003 196.891 239.003 220.901C239.003 244.911 217.329 264.375 190.592 264.375C178.145 264.375 166.795 260.157 158.219 253.225C150.634 260.157 140.596 264.375 129.588 264.375C117.174 264.375 105.995 259.011 98.1747 250.44Z" fill="url(#paint1_linear_152_471)"/>
<path d="M215.25 172.5L215.25 199.688" stroke="#FF6A6A" stroke-width="8.75" stroke-linecap="round"/>
<path d="M208.422 418.346V420.221H200.307V425.23H208.041V427.076H200.307V432.965C204.174 432.95 206.576 432.833 209.418 432.32L209.623 434.225C206.562 434.811 204.057 434.942 199.779 434.928H198.109V418.346H208.422ZM211.352 440.055V415.885H213.578V425.816H217.152V415.328H219.379V441.373H217.152V427.721H213.578V440.055H211.352ZM237.602 417.32V419.225H234.936V427.56C236.137 427.472 237.323 427.369 238.451 427.223L238.568 428.98C233.485 429.757 227.567 429.845 223.334 429.83L223.041 427.896C224.081 427.896 225.209 427.896 226.41 427.882V419.225H223.773V417.32H237.602ZM227.201 436.627C227.187 433.653 230.482 431.954 235.932 431.969C241.381 431.954 244.662 433.653 244.662 436.627C244.662 439.601 241.381 441.314 235.932 441.314C230.482 441.314 227.187 439.601 227.201 436.627ZM228.637 427.838C229.97 427.809 231.347 427.765 232.709 427.691V419.225H228.637V427.838ZM229.486 436.627C229.472 438.443 231.918 439.498 235.932 439.498C239.931 439.498 242.377 438.443 242.377 436.627C242.377 434.84 239.931 433.756 235.932 433.756C231.918 433.756 229.472 434.84 229.486 436.627ZM237.865 426.578V424.674H242.26V421.92H237.865V420.016H242.26V415.328H244.574V431.412H242.26V426.578H237.865ZM273.139 419.283V421.188H269.271V424.82H273.139V426.754H269.271V430.797H266.986V415.328H269.271V419.283H273.139ZM249.408 423.033C249.394 419.4 252.294 416.896 256.234 416.91C260.204 416.896 263.061 419.4 263.09 423.033C263.061 426.651 260.204 429.142 256.234 429.156C252.294 429.142 249.394 426.651 249.408 423.033ZM251.664 423.033C251.649 425.494 253.598 427.193 256.234 427.223C258.9 427.193 260.819 425.494 260.834 423.033C260.819 420.587 258.9 418.844 256.234 418.873C253.598 418.844 251.649 420.587 251.664 423.033ZM252.279 436.48C252.294 433.39 255.604 431.603 260.922 431.588C266.239 431.603 269.506 433.39 269.506 436.48C269.506 439.513 266.239 441.314 260.922 441.314C255.604 441.314 252.294 439.513 252.279 436.48ZM254.594 436.48C254.564 438.355 256.996 439.454 260.922 439.469C264.862 439.454 267.265 438.355 267.279 436.48C267.265 434.591 264.862 433.463 260.922 433.463C256.996 433.463 254.564 434.591 254.594 436.48ZM306.127 428.219V430.064H282.367V428.219H293.119V425.172H285.385V416.559H303.168V418.404H287.641V423.297H303.344V425.172H295.346V428.219H306.127ZM285.238 436.656C285.224 433.683 288.607 431.983 294.232 431.969C299.813 431.983 303.168 433.683 303.197 436.656C303.168 439.659 299.813 441.344 294.232 441.373C288.607 441.344 285.224 439.659 285.238 436.656ZM287.582 436.656C287.553 438.487 290.058 439.542 294.232 439.527C298.363 439.542 300.868 438.487 300.883 436.656C300.868 434.854 298.363 433.785 294.232 433.785C290.058 433.785 287.553 434.854 287.582 436.656ZM332.113 430.797V432.672H321.244V441.373H318.988V432.672H308.266V430.797H332.113ZM311.312 427.633V416.412H313.598V420.016H326.723V416.412H329.037V427.633H311.312ZM313.598 425.758H326.723V421.891H313.598V425.758ZM342.748 417.232C346.835 417.247 349.735 419.737 349.75 423.355C349.735 426.988 346.835 429.464 342.748 429.479C338.632 429.464 335.702 426.988 335.717 423.355C335.702 419.737 338.632 417.247 342.748 417.232ZM334.369 433.727C339.174 433.741 345.81 433.697 351.566 432.848L351.742 434.547C345.78 435.66 339.379 435.689 334.691 435.689L334.369 433.727ZM337.973 423.355C337.958 425.787 339.965 427.457 342.748 427.457C345.502 427.457 347.509 425.787 347.494 423.355C347.509 420.938 345.502 419.254 342.748 419.254C339.965 419.254 337.958 420.938 337.973 423.355ZM353.295 441.432V415.328H355.58V441.432H353.295ZM389.271 415.328V430.357H386.957V422.389H381.156V420.484H386.957V415.328H389.271ZM367.68 427.779C371.635 426.446 374.271 423.106 374.301 419.225V416.471H376.557V419.312C376.527 422.755 379.223 425.963 383.002 427.223L381.801 429.068C378.886 427.999 376.586 425.875 375.443 423.209C374.33 426.183 371.986 428.482 368.91 429.625L367.68 427.779ZM372.25 441.021V431.676H389.271V441.021H372.25ZM374.535 439.146H387.016V433.521H374.535V439.146ZM417.367 426.285V428.131H393.607V426.285H417.367ZM396.479 432.262V430.475H414.291V436.51H398.822V439.205H415.082V441.08H396.537V434.781H412.035V432.262H396.479ZM396.771 424.146V416.236H414.262V418.082H399.086V422.271H414.525V424.146H396.771ZM441.859 415.328V441.373H439.633V415.328H441.859ZM419.857 426.578C419.872 421.041 422.069 417.54 425.453 417.525C428.617 417.54 430.756 420.587 431.049 425.494H434.418V415.885H436.615V440.055H434.418V427.398H431.063C430.844 432.467 428.661 435.646 425.453 435.631C422.069 435.646 419.872 432.115 419.857 426.578ZM422.025 426.578C421.996 430.797 423.344 433.463 425.453 433.434C427.577 433.463 428.925 430.797 428.91 426.578C428.925 422.345 427.577 419.693 425.453 419.693C423.344 419.693 421.996 422.345 422.025 426.578ZM466.527 423.238V425.084H448.686V416.295H450.971V423.238H466.527ZM445.434 430.504V428.629H469.281V430.504H445.434ZM448.539 440.729V433.17H450.824V438.824H466.674V440.729H448.539ZM491.986 417.76C492.001 421.437 496.776 424.601 501.479 425.26L500.541 427.135C496.498 426.461 492.484 424.22 490.814 421.026C489.145 424.249 485.146 426.461 481.088 427.135L480.15 425.26C484.853 424.601 489.613 421.495 489.613 417.76V416.266H491.986V417.76ZM478.92 431.939V430.006H502.65V431.939H491.869V441.373H489.613V431.939H478.92ZM508.217 416.998V421.129H514.018V416.998H516.186V429.127H506.049V416.998H508.217ZM508.217 427.223H514.018V422.975H508.217V427.223ZM509.418 434.459V432.555H526.967V441.373H524.711V434.459H509.418ZM519.145 430.826V415.855H521.312V422.125H524.77V415.357H526.967V430.973H524.77V424.029H521.312V430.826H519.145ZM559.896 415.357V434.635H557.582V425.611H550.082V423.766H557.582V420.631H550.082V418.785H557.582V415.357H559.896ZM539.857 430.768V417.232H542.172V428.805C545.761 428.79 549.218 428.585 553.188 427.867L553.422 429.771C549.188 430.562 545.644 430.738 541.82 430.768H539.857ZM543.109 440.816V432.994H545.424V438.883H560.6V440.816H543.109ZM586.908 423.883V425.758H581.635V429.391C584.066 429.288 586.498 429.112 588.754 428.863L588.93 430.562C583.319 431.339 577.123 431.5 572.23 431.5L571.879 429.625C574.164 429.61 576.728 429.581 579.35 429.493V425.758H574.252V417.027H586.703V418.932H576.566V423.883H586.908ZM576.332 440.816V433.492H578.617V438.883H594.086V440.816H576.332ZM590.922 434.84V415.357H593.236V434.84H590.922ZM205.814 465.25C205.8 468.839 208.51 472.149 212.348 473.482L211.176 475.328C208.217 474.244 205.917 472.047 204.76 469.293C203.661 472.398 201.303 474.786 198.227 475.973L196.967 474.127C200.937 472.735 203.544 469.205 203.559 465.162V461.939H205.814V465.25ZM201.156 485.816V477.73H203.5V483.883H218.617V485.816H201.156ZM215.131 479.576V460.328H217.416V468.326H221.342V470.289H217.416V479.576H215.131ZM245.482 464.195V466.1H224.154V464.195H233.705V460.768H235.961V464.195H245.482ZM222.982 483.326V481.422H233.705V477.76C229.062 477.511 226.264 475.709 226.293 472.779C226.264 469.688 229.53 467.857 234.848 467.887C240.092 467.857 243.417 469.688 243.402 472.779C243.417 475.709 240.561 477.511 235.961 477.76V481.422H246.83V483.326H222.982ZM228.607 472.779C228.578 474.757 230.966 475.899 234.848 475.914C238.686 475.899 241.073 474.757 241.059 472.779C241.073 470.846 238.686 469.703 234.848 469.703C230.966 469.703 228.578 470.846 228.607 472.779ZM272.67 471.285V473.131H248.91V471.285H272.67ZM251.781 477.262V475.475H269.594V481.51H254.125V484.205H270.385V486.08H251.84V479.781H267.338V477.262H251.781ZM252.074 469.146V461.236H269.564V463.082H254.389V467.271H269.828V469.146H252.074ZM296.312 460.328V486.432H293.998V460.328H296.312ZM275.805 471.432C275.819 465.895 278.573 462.364 282.455 462.35C286.322 462.364 289.12 465.895 289.105 471.432C289.12 476.983 286.322 480.499 282.455 480.484C278.573 480.499 275.819 476.983 275.805 471.432ZM278.031 471.432C278.031 475.665 279.848 478.448 282.455 478.434C285.077 478.448 286.879 475.665 286.879 471.432C286.879 467.198 285.077 464.415 282.455 464.4C279.848 464.415 278.031 467.198 278.031 471.432ZM317.113 477.818C317.099 480.118 318.344 482.564 320.819 483.971C323.31 482.433 324.628 479.825 324.613 477.818V476.383H326.869V477.818C326.854 480.499 328.832 483.165 332.172 484.322L331.029 486.021C328.422 485.099 326.605 483.282 325.697 481.1C324.892 483.209 323.295 485.216 320.893 486.227C318.358 485.26 316.747 483.355 315.971 481.173C315.033 483.268 313.246 485.084 310.756 486.021L309.584 484.322C312.88 483.092 314.857 480.309 314.887 477.818V476.383H317.113V477.818ZM308.91 467.975C308.896 464.342 311.781 461.866 315.736 461.881C319.691 461.866 322.548 464.342 322.562 467.975C322.548 471.549 319.691 474.01 315.736 474.01C311.781 474.01 308.896 471.549 308.91 467.975ZM311.166 467.975C311.137 470.392 313.056 472.091 315.736 472.105C318.388 472.091 320.307 470.392 320.307 467.975C320.307 465.543 318.388 463.814 315.736 463.844C313.056 463.814 311.137 465.543 311.166 467.975ZM327.514 475.24V460.357H329.799V475.24H327.514ZM355.287 468.238V470.084H337.445V461.295H339.73V468.238H355.287ZM334.193 475.504V473.629H358.041V475.504H334.193ZM337.299 485.729V478.17H339.584V483.824H355.434V485.729H337.299ZM382.445 460.328V486.373H380.219V460.328H382.445ZM361.176 480.104V463.551H370.99V465.455H363.402V478.17C367.167 478.141 369.54 478.009 372.338 477.379L372.572 479.342C369.555 479.957 367.006 480.089 362.816 480.104H361.176ZM369.232 472.223V470.289H374.916V460.973H377.113V485.025H374.916V472.223H369.232ZM409.926 481.1V483.033H386.078V481.1H391.996V474.083C389.77 472.926 388.422 471.051 388.422 468.678C388.422 464.649 392.377 461.998 397.943 461.969C403.51 461.998 407.465 464.649 407.465 468.678C407.465 471.007 406.161 472.853 404.008 474.01V481.1H409.926ZM390.648 468.678C390.634 471.593 393.666 473.541 397.943 473.541C402.177 473.541 405.238 471.593 405.238 468.678C405.238 465.763 402.177 463.844 397.943 463.873C393.666 463.844 390.634 465.763 390.648 468.678ZM394.252 481.1H401.693V474.903C400.565 475.196 399.306 475.357 397.943 475.357C396.61 475.357 395.365 475.211 394.252 474.918V481.1ZM414.76 484.176C413.734 484.161 412.855 483.312 412.885 482.271C412.855 481.246 413.734 480.396 414.76 480.396C415.8 480.396 416.649 481.246 416.635 482.271C416.649 483.312 415.8 484.161 414.76 484.176ZM435.854 465.25C435.839 468.839 438.549 472.149 442.387 473.482L441.215 475.328C438.256 474.244 435.956 472.047 434.799 469.293C433.7 472.398 431.342 474.786 428.266 475.973L427.006 474.127C430.976 472.735 433.583 469.205 433.598 465.162V461.939H435.854V465.25ZM431.195 485.816V477.73H433.539V483.883H448.656V485.816H431.195ZM445.17 479.576V460.328H447.455V468.326H451.381V470.289H447.455V479.576H445.17ZM475.521 464.195V466.1H454.193V464.195H463.744V460.768H466V464.195H475.521ZM453.021 483.326V481.422H463.744V477.76C459.101 477.511 456.303 475.709 456.332 472.779C456.303 469.688 459.569 467.857 464.887 467.887C470.131 467.857 473.456 469.688 473.441 472.779C473.456 475.709 470.6 477.511 466 477.76V481.422H476.869V483.326H453.021ZM458.646 472.779C458.617 474.757 461.005 475.899 464.887 475.914C468.725 475.899 471.112 474.757 471.098 472.779C471.112 470.846 468.725 469.703 464.887 469.703C461.005 469.703 458.617 470.846 458.646 472.779ZM510.297 474.127V476.002H499.691V481.1H497.406V476.002H486.449V474.127H510.297ZM489.496 485.816V478.697H491.781V483.883H507.631V485.816H489.496ZM489.643 471.578V461.178H491.928V464.518H504.818V461.178H507.104V471.578H489.643ZM491.928 469.703H504.818V466.275H491.928V469.703ZM521.283 464.518C521.269 468.106 523.949 471.417 527.729 472.721L526.469 474.566C523.583 473.497 521.312 471.285 520.199 468.502C519.101 471.578 516.757 473.98 513.695 475.182L512.436 473.277C516.391 471.886 518.998 468.443 519.027 464.43V461.676H521.283V464.518ZM516.479 479.02V477.174H533.998V486.373H531.684V479.02H516.479ZM525.883 467.74V465.807H531.684V460.328H533.998V475.738H531.684V467.74H525.883ZM550.199 460.797C555.985 460.797 559.384 462.394 559.398 465.279C559.384 468.238 555.985 469.835 550.199 469.85C544.384 469.835 540.971 468.238 540.971 465.279C540.971 462.394 544.384 460.797 550.199 460.797ZM538.334 473.482V471.607H562.064V473.482H538.334ZM541.205 477.496V475.738H559.018V481.568H543.549V484.264H559.809V486.08H541.264V479.869H556.762V477.496H541.205ZM543.373 465.279C543.344 467.096 545.878 468.092 550.199 468.092C554.521 468.092 557.04 467.096 557.055 465.279C557.04 463.565 554.521 462.54 550.199 462.525C545.878 462.54 543.344 463.565 543.373 465.279ZM595.521 474.156V476.031H571.762V474.156H582.484V471.578H574.926V461.09H592.562V462.965H577.24V465.396H591.859V467.154H577.24V469.732H592.709V471.578H584.77V474.156H595.521ZM574.662 482.154C574.647 479.444 577.885 477.965 583.656 477.994C589.369 477.965 592.592 479.444 592.621 482.154C592.592 484.894 589.369 486.314 583.656 486.314C577.885 486.314 574.647 484.894 574.662 482.154ZM576.977 482.154C576.947 483.736 579.35 484.557 583.656 484.527C587.919 484.557 590.292 483.736 590.307 482.154C590.292 480.602 587.919 479.737 583.656 479.723C579.35 479.737 576.947 480.602 576.977 482.154ZM610.727 464.84V466.715H597.66V464.84H603.08V461.119H605.365V464.84H610.727ZM598.598 474.391C598.598 470.934 600.956 468.487 604.193 468.473C607.475 468.487 609.818 470.934 609.848 474.391C609.818 477.892 607.475 480.353 604.193 480.367C600.956 480.353 598.598 477.892 598.598 474.391ZM600.648 474.391C600.648 476.705 602.128 478.36 604.193 478.346C606.273 478.36 607.797 476.705 607.797 474.391C607.797 472.105 606.273 470.436 604.193 470.406C602.128 470.436 600.648 472.105 600.648 474.391ZM612.074 485.084V460.973H614.242V471.314H617.699V460.328H619.896V486.373H617.699V473.219H614.242V485.084H612.074ZM218.588 505.328V531.373H216.273V505.328H218.588ZM197.377 524.605C204.423 521.266 208.026 516.271 208.539 510.045H198.578V508.17H210.883C210.854 515.655 207.367 522.291 198.637 526.48L197.377 524.605ZM245.336 508.316V510.221H224.213V508.316H233.705V505.182H235.961V508.316H245.336ZM222.982 524.107V522.203H246.83V524.107H235.961V531.432H233.705V524.107H222.982ZM226.352 516.08C226.322 513.268 229.516 511.715 234.848 511.715C240.136 511.715 243.329 513.268 243.344 516.08C243.329 518.834 240.136 520.387 234.848 520.416C229.516 520.387 226.322 518.834 226.352 516.08ZM228.725 516.08C228.695 517.691 230.966 518.644 234.848 518.629C238.686 518.644 240.941 517.691 240.971 516.08C240.941 514.439 238.686 513.487 234.848 513.473C230.966 513.487 228.695 514.439 228.725 516.08ZM264.496 508.141V510.016H248.969V508.141H255.59V505.211H257.875V508.141H264.496ZM250.463 516.08C250.448 513.209 252.968 511.393 256.732 511.363C260.468 511.393 262.973 513.209 263.002 516.08C262.973 518.907 260.468 520.753 256.732 520.768C252.968 520.753 250.448 518.907 250.463 516.08ZM252.221 524.928V523.053H269.271V531.373H266.986V524.928H252.221ZM252.66 516.08C252.646 517.809 254.271 518.937 256.732 518.922C259.164 518.937 260.805 517.809 260.834 516.08C260.805 514.308 259.164 513.165 256.732 513.15C254.271 513.165 252.646 514.308 252.66 516.08ZM266.986 521.617V505.328H269.271V512.564H273.197V514.498H269.271V521.617H266.986ZM283.656 513.326C283.627 517.501 286.645 522.101 290.424 523.902L289.105 525.719C286.176 524.283 283.7 521.207 282.528 517.677C281.327 521.5 278.72 524.869 275.805 526.363L274.398 524.547C278.148 522.716 281.371 517.765 281.4 513.326V509.928H275.336V508.023H289.516V509.928H283.656V513.326ZM292.709 531.373V505.328H294.994V515.875H299.359V517.838H294.994V531.373H292.709ZM324.525 516.285V518.131H300.766V516.285H324.525ZM303.637 522.262V520.475H321.449V526.51H305.98V529.205H322.24V531.08H303.695V524.781H319.193V522.262H303.637ZM303.93 514.146V506.236H321.42V508.082H306.244V512.271H321.684V514.146H303.93ZM350.424 519.068V520.943H326.693V519.068H350.424ZM329.33 511.422C329.33 508.155 332.904 506.236 338.559 506.266C344.154 506.236 347.743 508.155 347.758 511.422C347.743 514.659 344.154 516.607 338.559 516.607C332.904 516.607 329.33 514.659 329.33 511.422ZM329.77 530.816V523.229H332.084V528.883H347.787V530.816H329.77ZM331.703 511.422C331.688 513.487 334.354 514.732 338.559 514.732C342.733 514.732 345.399 513.487 345.414 511.422C345.399 509.386 342.733 508.111 338.559 508.111C334.354 508.111 331.688 509.386 331.703 511.422ZM373.158 509.84V511.715H360.092V509.84H365.512V506.119H367.797V509.84H373.158ZM361.029 519.391C361.029 515.934 363.388 513.487 366.625 513.473C369.906 513.487 372.25 515.934 372.279 519.391C372.25 522.892 369.906 525.353 366.625 525.367C363.388 525.353 361.029 522.892 361.029 519.391ZM363.08 519.391C363.08 521.705 364.56 523.36 366.625 523.346C368.705 523.36 370.229 521.705 370.229 519.391C370.229 517.105 368.705 515.436 366.625 515.406C364.56 515.436 363.08 517.105 363.08 519.391ZM374.506 530.084V505.973H376.674V516.314H380.131V505.328H382.328V531.373H380.131V518.219H376.674V530.084H374.506ZM410.307 509.283V511.188H406.439V514.82H410.307V516.754H406.439V520.797H404.154V505.328H406.439V509.283H410.307ZM386.576 513.033C386.562 509.4 389.462 506.896 393.402 506.91C397.372 506.896 400.229 509.4 400.258 513.033C400.229 516.651 397.372 519.142 393.402 519.156C389.462 519.142 386.562 516.651 386.576 513.033ZM388.832 513.033C388.817 515.494 390.766 517.193 393.402 517.223C396.068 517.193 397.987 515.494 398.002 513.033C397.987 510.587 396.068 508.844 393.402 508.873C390.766 508.844 388.817 510.587 388.832 513.033ZM389.447 526.48C389.462 523.39 392.772 521.603 398.09 521.588C403.407 521.603 406.674 523.39 406.674 526.48C406.674 529.513 403.407 531.314 398.09 531.314C392.772 531.314 389.462 529.513 389.447 526.48ZM391.762 526.48C391.732 528.355 394.164 529.454 398.09 529.469C402.03 529.454 404.433 528.355 404.447 526.48C404.433 524.591 402.03 523.463 398.09 523.463C394.164 523.463 391.732 524.591 391.762 526.48ZM434.33 505.328V531.373H432.104V505.328H434.33ZM412.328 516.578C412.343 511.041 414.54 507.54 417.924 507.525C421.088 507.54 423.227 510.587 423.52 515.494H426.889V505.885H429.086V530.055H426.889V517.398H423.534C423.314 522.467 421.132 525.646 417.924 525.631C414.54 525.646 412.343 522.115 412.328 516.578ZM414.496 516.578C414.467 520.797 415.814 523.463 417.924 523.434C420.048 523.463 421.396 520.797 421.381 516.578C421.396 512.345 420.048 509.693 417.924 509.693C415.814 509.693 414.467 512.345 414.496 516.578ZM447.104 512.33C447.089 517.047 450.121 521.793 453.9 523.521L452.523 525.396C449.564 523.873 447.118 520.768 445.961 517.062C444.804 520.958 442.357 524.298 439.398 525.865L437.904 524.02C441.728 522.145 444.745 517.135 444.76 512.33V507.584H447.104V512.33ZM451.059 516.109V514.234H457.24V505.328H459.525V531.432H457.24V516.109H451.059ZM492.953 505.328V518.922H490.668V513.062H484.516V517.867H472.709V506.559H474.994V510.279H482.26V506.559H484.516V511.129H490.668V505.328H492.953ZM474.994 515.992H482.26V512.125H474.994V515.992ZM476.078 522.027V520.182H492.953V526.334H478.422V529.176H493.949V531.021H476.137V524.576H490.668V522.027H476.078ZM504.32 507.35C507.865 507.364 510.429 510.411 510.78 515.289H516.625V505.328H518.91V531.432H516.625V517.193H510.81C510.561 522.306 507.953 525.499 504.32 525.484C500.468 525.499 497.772 521.983 497.787 516.432C497.772 510.895 500.468 507.364 504.32 507.35ZM499.984 516.432C499.999 520.665 501.757 523.448 504.32 523.434C506.869 523.448 508.656 520.665 508.656 516.432C508.656 512.198 506.869 509.415 504.32 509.4C501.757 509.415 499.999 512.198 499.984 516.432ZM532.621 510.924C532.636 514.439 535.404 517.604 539.301 518.834L538.129 520.68C535.097 519.64 532.694 517.501 531.508 514.762C530.38 517.721 527.934 520.064 524.828 521.207L523.627 519.361C527.538 517.999 530.292 514.615 530.307 510.924V509.4H524.213V507.525H538.627V509.4H532.621V510.924ZM527.934 530.816V522.643H530.219V528.883H545.57V530.816H527.934ZM542.465 524.459V505.357H544.75V524.459H542.465ZM219.174 550.357V563.922H216.977V550.357H219.174ZM197.348 557.301C197.333 553.858 199.794 551.588 203.295 551.617C206.415 551.588 208.729 553.419 209.184 556.275H212.025V550.885H214.193V563.775H212.025V558.18H209.213C208.803 561.08 206.459 563.043 203.295 563.014C199.794 563.043 197.333 560.685 197.348 557.301ZM199.428 557.301C199.398 559.557 201.054 561.153 203.295 561.168C205.507 561.153 207.162 559.557 207.191 557.301C207.162 555.045 205.507 553.404 203.295 553.404C201.054 553.404 199.398 555.045 199.428 557.301ZM201.889 566.969V565.123H219.174V571.275H204.232V574.176H220.229V576.021H201.947V569.518H216.918V566.969H201.889ZM244.457 550.328V576.373H242.172V550.328H244.457ZM224.682 569.664V552.906H226.938V567.672C230.922 567.643 235.023 567.335 239.389 566.412L239.711 568.375C235.082 569.342 230.966 569.664 226.791 569.664H224.682ZM270.004 562.281V564.215H266.137V570.953H272.758V572.828H248.91V570.953H255.59V564.215H251.781V552.701H254.066V562.281H270.004ZM257.875 570.953H263.852V564.215H257.875V570.953ZM297.162 550.328V576.373H294.936V550.328H297.162ZM275.16 561.578C275.175 556.041 277.372 552.54 280.756 552.525C283.92 552.54 286.059 555.587 286.352 560.494H289.721V550.885H291.918V575.055H289.721V562.398H286.366C286.146 567.467 283.964 570.646 280.756 570.631C277.372 570.646 275.175 567.115 275.16 561.578ZM277.328 561.578C277.299 565.797 278.646 568.463 280.756 568.434C282.88 568.463 284.228 565.797 284.213 561.578C284.228 557.345 282.88 554.693 280.756 554.693C278.646 554.693 277.299 557.345 277.328 561.578ZM322.738 552.35V553.727C322.724 555.44 322.724 558.033 322.064 561.432L319.75 561.256C320.38 558.15 320.438 555.938 320.468 554.283H309.76V552.35H322.738ZM308.148 563.863C309.833 563.863 311.737 563.849 313.744 563.79V558.121H316.029V563.717C318.915 563.6 321.903 563.395 324.613 563.014L324.76 564.713C319.296 565.65 313.026 565.753 308.383 565.768L308.148 563.863ZM312.162 575.816V568.17H314.477V573.883H329.564V575.816H312.162ZM326.371 569.928V550.328H328.715V558.824H332.523V560.787H328.715V569.928H326.371ZM354.584 550.357V558.941H358.51V560.875H354.584V569.869H352.299V550.357H354.584ZM334.281 555.426V553.551H340.902V550.357H343.188V553.551H349.809V555.426H334.281ZM335.775 561.725C335.761 558.766 338.28 556.861 342.045 556.861C345.766 556.861 348.285 558.766 348.314 561.725C348.285 564.654 345.766 566.544 342.045 566.529C338.28 566.544 335.761 564.654 335.775 561.725ZM337.973 561.725C337.958 563.556 339.584 564.742 342.045 564.713C344.477 564.742 346.117 563.556 346.146 561.725C346.117 559.864 344.477 558.663 342.045 558.678C339.584 558.663 337.958 559.864 337.973 561.725ZM338.295 575.816V568.316H340.551V573.883H355.785V575.816H338.295ZM389.359 550.328V576.373H387.074V550.328H389.359ZM367.504 562.779C371.005 562.765 375.033 562.721 379.032 562.53C379.721 558.795 379.823 556.041 379.853 554.254H369.818V552.35H382.152V553.404C382.123 555.074 382.123 558.106 381.405 562.398C382.68 562.311 383.939 562.208 385.17 562.076L385.346 563.805C382.68 564.142 379.911 564.361 377.201 564.508V574.82H374.887V564.596C372.411 564.684 370.009 564.713 367.826 564.713L367.504 562.779ZM417.338 562.516V564.42H406.586V567.203C411.493 567.423 414.408 569.02 414.438 571.773C414.408 574.688 411.054 576.314 405.473 576.314C399.818 576.314 396.464 574.688 396.479 571.773C396.464 569.02 399.364 567.423 404.33 567.203V564.42H393.607V562.516H417.338ZM394.955 559.117C399.467 558.648 403.817 556.349 403.979 553.434H395.775V551.559H415.229V553.434H406.967C407.128 556.349 411.435 558.648 416.02 559.117L415.17 560.934C410.907 560.421 406.908 558.502 405.473 555.616C404.037 558.502 400.067 560.421 395.775 560.934L394.955 559.117ZM398.822 571.773C398.793 573.502 401.298 574.542 405.473 574.527C409.604 574.542 412.108 573.502 412.123 571.773C412.108 570.001 409.604 568.99 405.473 568.961C401.298 568.99 398.793 570.001 398.822 571.773ZM439.896 550.357V558.941H443.822V560.875H439.896V569.869H437.611V550.357H439.896ZM419.594 555.426V553.551H426.215V550.357H428.5V553.551H435.121V555.426H419.594ZM421.088 561.725C421.073 558.766 423.593 556.861 427.357 556.861C431.078 556.861 433.598 558.766 433.627 561.725C433.598 564.654 431.078 566.544 427.357 566.529C423.593 566.544 421.073 564.654 421.088 561.725ZM423.285 561.725C423.271 563.556 424.896 564.742 427.357 564.713C429.789 564.742 431.43 563.556 431.459 561.725C431.43 559.864 429.789 558.663 427.357 558.678C424.896 558.663 423.271 559.864 423.285 561.725ZM423.607 575.816V568.316H425.863V573.883H441.098V575.816H423.607ZM461.811 558.326C461.781 562.501 464.799 567.101 468.578 568.902L467.26 570.719C464.33 569.283 461.854 566.207 460.683 562.677C459.481 566.5 456.874 569.869 453.959 571.363L452.553 569.547C456.303 567.716 459.525 562.765 459.555 558.326V554.928H453.49V553.023H467.67V554.928H461.811V558.326ZM470.863 576.373V550.328H473.148V560.875H477.514V562.838H473.148V576.373H470.863ZM502.768 571.217V573.15H478.92V571.217H485.629V566.266H481.908V558.238H497.494V554.166H481.85V552.262H499.75V560.143H484.193V564.361H500.365V566.266H496.293V571.217H502.768ZM487.885 571.217H494.037V566.266H487.885V571.217ZM528.666 562.428V564.244H504.818V562.428H528.666ZM507.689 568.053V566.324H525.678V571.861H510.033V574.352H526.527V576.021H507.719V570.279H523.393V568.053H507.689ZM507.836 552.789V551.119H525.59V556.51H510.209V558.795H526.059V560.465H507.924V554.928H523.275V552.789H507.836ZM560.043 566.764V568.668H545.277V574.146H560.424V576.021H542.963V566.764H560.043ZM538.715 557.945C538.7 554.312 541.586 551.749 545.482 551.764C548.954 551.749 551.635 553.844 552.133 556.92H557.582V550.328H559.896V565.299H557.582V558.854H552.147C551.693 561.974 548.998 564.098 545.482 564.127C541.586 564.098 538.7 561.549 538.715 557.945ZM540.912 557.945C540.912 560.362 542.816 562.135 545.482 562.135C548.046 562.135 549.994 560.362 549.994 557.945C549.994 555.455 548.046 553.697 545.482 553.727C542.816 553.697 540.912 555.455 540.912 557.945ZM576.098 550.797C581.884 550.797 585.282 552.394 585.297 555.279C585.282 558.238 581.884 559.835 576.098 559.85C570.282 559.835 566.869 558.238 566.869 555.279C566.869 552.394 570.282 550.797 576.098 550.797ZM564.232 563.482V561.607H587.963V563.482H564.232ZM567.104 567.496V565.738H584.916V571.568H569.447V574.264H585.707V576.08H567.162V569.869H582.66V567.496H567.104ZM569.271 555.279C569.242 557.096 571.776 558.092 576.098 558.092C580.419 558.092 582.938 557.096 582.953 555.279C582.938 553.565 580.419 552.54 576.098 552.525C571.776 552.54 569.242 553.565 569.271 555.279ZM610.756 552.76C610.771 556.437 615.546 559.601 620.248 560.26L619.311 562.135C615.268 561.461 611.254 559.22 609.584 556.026C607.914 559.249 603.915 561.461 599.857 562.135L598.92 560.26C603.622 559.601 608.383 556.495 608.383 552.76V551.266H610.756V552.76ZM597.689 566.939V565.006H621.42V566.939H610.639V576.373H608.383V566.939H597.689ZM205.873 612.818C205.858 615.118 207.104 617.564 209.579 618.971C212.069 617.433 213.388 614.825 213.373 612.818V611.383H215.629V612.818C215.614 615.499 217.592 618.165 220.932 619.322L219.789 621.021C217.182 620.099 215.365 618.282 214.457 616.1C213.651 618.209 212.055 620.216 209.652 621.227C207.118 620.26 205.507 618.355 204.73 616.173C203.793 618.268 202.006 620.084 199.516 621.021L198.344 619.322C201.64 618.092 203.617 615.309 203.646 612.818V611.383H205.873V612.818ZM197.67 602.975C197.655 599.342 200.541 596.866 204.496 596.881C208.451 596.866 211.308 599.342 211.322 602.975C211.308 606.549 208.451 609.01 204.496 609.01C200.541 609.01 197.655 606.549 197.67 602.975ZM199.926 602.975C199.896 605.392 201.815 607.091 204.496 607.105C207.147 607.091 209.066 605.392 209.066 602.975C209.066 600.543 207.147 598.814 204.496 598.844C201.815 598.814 199.896 600.543 199.926 602.975ZM216.273 610.24V595.357H218.559V610.24H216.273ZM228.285 610.973V614.02H241.293V610.973H243.607V621.021H226V610.973H228.285ZM222.982 609.127V607.223H246.713V609.127H222.982ZM224.33 603.531C228.974 602.901 233.676 600.162 233.676 596.852V595.621H236.049V596.852C236.034 600.06 240.78 602.945 245.365 603.531L244.516 605.377C240.487 604.776 236.518 602.726 234.862 599.811C233.207 602.74 229.223 604.776 225.209 605.377L224.33 603.531ZM228.285 619.176H241.293V615.836H228.285V619.176ZM270.385 595.328V621.373H268.1V595.328H270.385ZM250.609 614.664V597.906H252.865V612.672C256.85 612.643 260.951 612.335 265.316 611.412L265.639 613.375C261.01 614.342 256.894 614.664 252.719 614.664H250.609ZM294.994 595.328V605.641H299.359V607.574H294.994V621.432H292.709V595.328H294.994ZM275.98 614.898V597.877H288.139V599.781H278.266V612.965C282.982 612.95 286.308 612.745 290.189 612.027L290.482 614.02C286.396 614.752 282.982 614.898 278.031 614.898H275.98ZM303.52 619.176C302.494 619.161 301.615 618.312 301.645 617.271C301.615 616.246 302.494 615.396 303.52 615.396C304.56 615.396 305.409 616.246 305.395 617.271C305.409 618.312 304.56 619.161 303.52 619.176ZM337.328 595.328V621.432H335.014V595.328H337.328ZM316.82 606.432C316.835 600.895 319.589 597.364 323.471 597.35C327.338 597.364 330.136 600.895 330.121 606.432C330.136 611.983 327.338 615.499 323.471 615.484C319.589 615.499 316.835 611.983 316.82 606.432ZM319.047 606.432C319.047 610.665 320.863 613.448 323.471 613.434C326.093 613.448 327.895 610.665 327.895 606.432C327.895 602.198 326.093 599.415 323.471 599.4C320.863 599.415 319.047 602.198 319.047 606.432ZM365.6 607.428V609.244H341.752V607.428H365.6ZM344.623 613.053V611.324H362.611V616.861H346.967V619.352H363.461V621.021H344.652V615.279H360.326V613.053H344.623ZM344.77 597.789V596.119H362.523V601.51H347.143V603.795H362.992V605.465H344.857V599.928H360.209V597.789H344.77ZM398.969 609.156V611.031H375.209V609.156H385.932V606.578H378.373V596.09H396.01V597.965H380.688V600.396H395.307V602.154H380.688V604.732H396.156V606.578H388.217V609.156H398.969ZM378.109 617.154C378.095 614.444 381.332 612.965 387.104 612.994C392.816 612.965 396.039 614.444 396.068 617.154C396.039 619.894 392.816 621.314 387.104 621.314C381.332 621.314 378.095 619.894 378.109 617.154ZM380.424 617.154C380.395 618.736 382.797 619.557 387.104 619.527C391.366 619.557 393.739 618.736 393.754 617.154C393.739 615.602 391.366 614.737 387.104 614.723C382.797 614.737 380.395 615.602 380.424 617.154ZM414.174 599.84V601.715H401.107V599.84H406.527V596.119H408.812V599.84H414.174ZM402.045 609.391C402.045 605.934 404.403 603.487 407.641 603.473C410.922 603.487 413.266 605.934 413.295 609.391C413.266 612.892 410.922 615.353 407.641 615.367C404.403 615.353 402.045 612.892 402.045 609.391ZM404.096 609.391C404.096 611.705 405.575 613.36 407.641 613.346C409.721 613.36 411.244 611.705 411.244 609.391C411.244 607.105 409.721 605.436 407.641 605.406C405.575 605.436 404.096 607.105 404.096 609.391ZM415.521 620.084V595.973H417.689V606.314H421.146V595.328H423.344V621.373H421.146V608.219H417.689V620.084H415.521ZM454.984 595.328V600.777H458.91V602.711H454.984V608.482H452.699V595.328H454.984ZM435.883 607.223V596.5H438.197V605.23C441.889 605.245 445.712 604.981 449.945 604.117L450.238 606.051C445.785 606.959 441.874 607.208 437.963 607.223H435.883ZM438.373 611.588V609.742H454.984V616.1H440.717V619.146H455.951V621.021H438.432V614.283H452.699V611.588H438.373ZM482.377 595.328V621.373H480.062V595.328H482.377ZM460.199 613.785C463.393 611.456 464.33 606.915 464.33 603.619V597.672H466.498V603.619C466.498 606.227 467.025 610.079 469.149 612.672C471.244 610.138 471.757 606.388 471.771 603.619V597.672H473.998V603.619C473.983 607.047 474.906 611.544 478.129 613.785L476.664 615.455C474.687 614.034 473.515 611.69 472.885 609.142C472.299 611.734 471.171 614.195 469.164 615.66C467.143 614.181 466 611.69 465.399 609.098C464.77 611.617 463.627 613.961 461.723 615.396L460.199 613.785ZM510.297 607.428V609.244H486.449V607.428H510.297ZM489.32 613.053V611.324H507.309V616.861H491.664V619.352H508.158V621.021H489.35V615.279H505.023V613.053H489.32ZM489.467 597.789V596.119H507.221V601.51H491.84V603.795H507.689V605.465H489.555V599.928H504.906V597.789H489.467ZM543.754 610.182V612.086H537.455V621.373H535.141V612.086H528.461V621.373H526.088V612.086H519.906V610.182H543.754ZM522.602 602.066C522.616 598.595 526.293 596.397 531.771 596.383C537.235 596.397 540.941 598.595 540.941 602.066C540.941 605.538 537.235 607.706 531.771 607.691C526.293 607.706 522.616 605.538 522.602 602.066ZM524.975 602.066C524.945 604.366 527.714 605.846 531.771 605.846C535.829 605.846 538.583 604.366 538.598 602.066C538.583 599.752 535.829 598.258 531.771 598.258C527.714 598.258 524.945 599.752 524.975 602.066ZM569.594 611.09V613.023H558.842V621.432H556.586V613.023H545.863V611.09H569.594ZM547.357 607.223C552.001 606.593 556.571 603.751 556.586 600.484V600.455H548.178V598.58H556.586V595.328H558.842V598.58H567.309V600.455H558.871V600.484C558.871 603.736 563.412 606.593 568.07 607.223L567.221 609.068C563.192 608.453 559.398 606.432 557.743 603.604C556.088 606.461 552.235 608.453 548.207 609.068L547.357 607.223ZM591.947 595.328V606.08H596.312V607.984H591.947V621.373H589.662V595.328H591.947ZM571.645 601.422V599.518H578.354V595.65H580.639V599.518H587.143V601.422H571.645ZM573.139 609.566C573.124 606.051 575.819 603.59 579.525 603.59C583.202 603.59 585.883 606.051 585.912 609.566C585.883 613.097 583.202 615.543 579.525 615.543C575.819 615.543 573.124 613.097 573.139 609.566ZM575.336 609.566C575.321 611.939 577.094 613.609 579.525 613.58C581.928 613.609 583.686 611.939 583.715 609.566C583.686 607.208 581.928 605.509 579.525 605.523C577.094 605.509 575.321 607.208 575.336 609.566ZM618.783 603.238V605.084H600.941V596.295H603.227V603.238H618.783ZM597.689 610.504V608.629H621.537V610.504H597.689ZM600.795 620.729V613.17H603.08V618.824H618.93V620.729H600.795ZM219.35 640.328V666.373H217.123V640.328H219.35ZM198.08 660.104V643.551H207.895V645.455H200.307V658.17C204.071 658.141 206.444 658.009 209.242 657.379L209.477 659.342C206.459 659.957 203.91 660.089 199.721 660.104H198.08ZM206.137 652.223V650.289H211.82V640.973H214.018V665.025H211.82V652.223H206.137ZM245.307 640.328V666.373H243.08V640.328H245.307ZM223.305 651.578C223.319 646.041 225.517 642.54 228.9 642.525C232.064 642.54 234.203 645.587 234.496 650.494H237.865V640.885H240.062V665.055H237.865V652.398H234.511C234.291 657.467 232.108 660.646 228.9 660.631C225.517 660.646 223.319 657.115 223.305 651.578ZM225.473 651.578C225.443 655.797 226.791 658.463 228.9 658.434C231.024 658.463 232.372 655.797 232.357 651.578C232.372 647.345 231.024 644.693 228.9 644.693C226.791 644.693 225.443 647.345 225.473 651.578ZM277.152 641.734V643.932C277.152 646.437 277.152 649.234 276.435 653.16H280.258V655.064H256.439V653.16H274.105C274.442 651.49 274.633 650.011 274.735 648.663L259.135 649.381L258.842 647.418L274.838 646.935C274.882 645.865 274.867 644.869 274.867 643.932V643.639H259.457V641.734H277.152ZM259.457 665.816V657.672H261.771V663.883H277.709V665.816H259.457ZM310.932 652.545V654.42H302.875V661.158H313.744V663.092H289.896V661.158H300.619V654.42H292.943V642.467H310.668V644.342H295.258V652.545H310.932ZM327.689 640.826C333.358 640.841 336.874 642.643 336.889 645.748C336.874 648.795 333.358 650.597 327.689 650.582C322.021 650.597 318.461 648.795 318.461 645.748C318.461 642.643 322.021 640.841 327.689 640.826ZM315.824 654.479V652.574H339.555V654.479H328.803V657.467H336.654V666.021H318.725V657.467H326.547V654.479H315.824ZM320.834 645.748C320.819 647.652 323.471 648.766 327.689 648.766C331.864 648.766 334.53 647.652 334.545 645.748C334.53 643.8 331.864 642.643 327.689 642.643C323.471 642.643 320.819 643.8 320.834 645.748ZM321.01 664.146H334.398V659.312H321.01V664.146ZM363.227 640.328V666.432H360.912V640.328H363.227ZM342.719 651.432C342.733 645.895 345.487 642.364 349.369 642.35C353.236 642.364 356.034 645.895 356.02 651.432C356.034 656.983 353.236 660.499 349.369 660.484C345.487 660.499 342.733 656.983 342.719 651.432ZM344.945 651.432C344.945 655.665 346.762 658.448 349.369 658.434C351.991 658.448 353.793 655.665 353.793 651.432C353.793 647.198 351.991 644.415 349.369 644.4C346.762 644.415 344.945 647.198 344.945 651.432ZM396.713 640.357V655.328H394.398V640.357H396.713ZM375.297 652.779C377.509 652.779 380.087 652.779 382.768 652.691V649.879H377.67V641.646H390.033V643.551H379.984V648.033H390.268V649.879H385.082V652.589C387.499 652.472 389.945 652.281 392.23 651.959L392.377 653.629C386.664 654.596 380.351 654.684 375.648 654.684L375.297 652.779ZM379.545 666.021V656.5H381.83V659.283H394.457V656.5H396.713V666.021H379.545ZM381.83 664.146H394.457V661.07H381.83V664.146ZM422.611 640.328V666.373H420.326V640.328H422.611ZM402.836 659.664V642.906H405.092V657.672C409.076 657.643 413.178 657.335 417.543 656.412L417.865 658.375C413.236 659.342 409.12 659.664 404.945 659.664H402.836ZM447.221 640.328V650.641H451.586V652.574H447.221V666.432H444.936V640.328H447.221ZM428.207 659.898V642.877H440.365V644.781H430.492V657.965C435.209 657.95 438.534 657.745 442.416 657.027L442.709 659.02C438.622 659.752 435.209 659.898 430.258 659.898H428.207ZM455.746 664.176C454.721 664.161 453.842 663.312 453.871 662.271C453.842 661.246 454.721 660.396 455.746 660.396C456.786 660.396 457.636 661.246 457.621 662.271C457.636 663.312 456.786 664.161 455.746 664.176Z" fill="black"/>
<defs>
<linearGradient id="paint0_linear_152_471" x1="213.5" y1="96.5625" x2="213.5" y2="160.312" gradientUnits="userSpaceOnUse">
<stop stop-color="#FF0000"/>
<stop offset="1" stop-color="#FFF9E9"/>
</linearGradient>
<linearGradient id="paint1_linear_152_471" x1="145.259" y1="134.852" x2="145.259" y2="264.375" gradientUnits="userSpaceOnUse">
<stop stop-color="#A0A0A0"/>
<stop offset="1" stop-color="#FFF9E9"/>
</linearGradient>
</defs>
</svg>
