<svg width="667" height="488" viewBox="0 0 667 488" fill="none" xmlns="http://www.w3.org/2000/svg">
<path d="M394.612 0C401.904 1.99348 409.618 3.0885 416.053 6.94912C418.259 6.47181 420.451 5.96642 422.629 5.44699C424.329 10.0376 425.172 14.8529 427.195 19.3593C431.34 17.1271 435.007 14.1369 439.616 12.6488C442.44 14.0106 444.07 16.5094 445.742 18.8539C447.723 17.5623 449.732 16.3269 451.798 15.1477C453.61 20.5947 454.214 26.2943 454.65 31.9098C453.835 39.3503 451.952 46.8048 453.048 54.3014C454.692 65.3919 457.488 76.314 460.046 87.2922C460.734 90.5351 461.366 93.9325 460.551 97.2035C456.589 100.081 450.674 101.303 448.735 106.02C447.344 110.652 448.426 115.524 447.344 120.185C445.756 122.333 443.325 123.821 441.302 125.618C433.855 117.924 426.296 110.287 418.554 102.819C413.116 97.5685 405.318 94.7327 400.274 89.1593C396.129 82.6875 401.778 76.0051 404.222 69.9826C409.309 59.257 403.126 46.5521 392.701 40.3751C386.589 33.3839 388.064 23.4024 390.354 15.4004C395.061 11.259 393.811 5.32064 394.598 0L394.612 0Z" fill="#00B3FF" fill-opacity="0.5"/>
<path d="M482.036 16.5938C491.197 16.0041 500.301 11.3152 509.364 14.853C510.853 17.5203 512.076 20.314 513.72 22.9392C519.466 24.0061 525.382 23.6973 531.185 24.4835C533.489 31.7414 524.778 34.9142 522.53 40.7963C523.935 47.9841 525.494 55.4527 529.878 61.756C528.192 64.7182 525.171 66.7819 522.979 69.4211C521.897 76.4264 522.74 83.544 522.993 90.5773C523.344 95.3224 524.384 101.233 529.752 103.535C536.552 104.883 543.479 103.535 550.336 103.381C552.837 110.105 555.998 116.942 555.787 124.158C552.092 131.444 543.226 136.526 543.563 145.356C531.634 150.747 518.314 145.061 506.02 148.697C496.395 150.915 486.953 154.987 476.795 154.481C467.268 153.358 465.737 143.04 458.206 139.235C452.656 136.568 447.949 132.791 443.691 128.65C446.502 126.081 450 123.877 451.644 120.466C452.389 116.184 451.644 111.818 452.515 107.564C454.721 103.605 459.962 102.538 463.896 100.446C464.388 97.8915 465.062 95.3645 465.189 92.7674C462.547 74.3908 454.173 56.1827 458.037 37.4832C459.203 32.682 461.508 28.1054 461.704 23.1358C468.898 21.9144 474.49 16.7061 482.022 16.6359L482.036 16.5938Z" fill="#00B3FF" fill-opacity="0.5"/>
<path d="M364.966 36.0793C371.682 35.237 378.524 35.223 385.114 33.7349C386.716 37.1884 386.814 41.7088 390.875 43.7444C397.17 47.24 400.781 53.6136 401.849 60.0011C403.549 70.1651 391.142 78.3917 395.54 88.5697C398.856 96.2348 408.691 98.8601 414.733 104.461C423.683 112.814 432.409 121.378 440.488 130.433C443.888 134.308 447.892 137.747 452.459 140.555C448.103 143.04 442.694 145.44 442.09 150.606C440.727 157.892 431.833 163.999 423.571 161.795C416.967 160.026 410.096 160.307 403.282 160.054C400.331 158.833 398.378 156.32 396.27 154.186C391.802 150.129 393.081 143.966 391.395 138.884C385.901 137.326 379.283 136.975 376.136 131.963C368.675 122.038 352.756 119.637 348.133 107.817C346.18 104.476 349.271 101.106 349.735 97.7931C349.398 91.7004 340.63 87.6713 342.513 81.2977C347.88 78.3637 352.713 74.854 355.018 69.4211C358.924 68.0453 363.687 67.4416 366.132 63.9741C367.242 59.6642 367.972 55.242 368.029 50.8058C367.27 47.0294 364.432 43.9129 362.633 40.4874C363.223 39.3924 364.375 37.1743 364.952 36.0653L364.966 36.0793Z" fill="#00B3FF" fill-opacity="0.5"/>
<path d="M267.341 93.9746C276.01 89.1593 278.525 77.2827 289.429 75.5559C292.07 78.5461 293.138 82.4489 296.075 85.2285C300.121 86.9693 307.905 85.8181 307.905 91.4476C307.905 96.3752 312.5 100.039 312.5 104.911C312.753 109.586 313.905 114.232 313.764 118.935C312.879 122.782 311.277 126.432 310.013 130.166C304.308 132.721 297.03 133.648 292.941 138.337C295.077 147.279 296.552 156.404 294.304 165.487C289.991 167.832 284.876 169.741 282.136 173.742C281.026 177.083 281.645 180.818 279.888 183.962C275.322 189.255 266.863 189.241 261.468 193.551C257.281 196.555 259.164 202.409 255.398 205.708C252.391 208.951 246.068 212.32 242.134 208.417C239.521 207.224 236.865 202.381 233.957 205.54C227.339 211.717 221.199 218.357 215.087 224.969C203.607 218.722 200.109 206.438 190.709 198.464C195.458 199.756 199.968 203.223 205.181 202.058C210.605 201.468 213.612 196.33 213.71 191.838C214.16 181.028 214.665 170.204 215.86 159.437C217.518 152.839 224.234 148.529 227.072 142.394C228.14 135.824 227.62 129.141 228.266 122.543C229.966 120.339 233.774 120.1 234.983 117.588C235.531 113.741 235.179 109.88 235.179 106.034C247.544 106.988 257.52 99.5198 267.327 94.0027L267.341 93.9746Z" fill="#00B3FF" fill-opacity="0.5"/>
<path d="M334.658 122.824C339.674 121.308 344.662 119.623 349.467 117.616C355.172 121.182 361.087 124.439 366.581 128.271C370.936 131.374 373.929 135.697 378.018 139.011C381.081 140.541 384.678 140.751 388.036 141.524C387.376 150.199 392.785 157.752 400.049 163.017C406.822 164.828 414.184 163.185 421.027 165.08C431.944 168.422 444.463 160.897 446.416 150.986C447.4 146.198 453.442 144.752 457.249 142.085C461.212 146.507 464.078 151.814 469.066 155.422C474.068 158.861 480.616 158.117 486.475 157.64C486.278 161.992 486.278 166.33 486.447 170.682C477.37 171.047 472.677 179.189 464.401 181.281C457.854 183.302 451.531 185.998 444.534 186.531C439.686 187.093 440.684 193.129 436.679 194.842C431.157 197.271 429.808 202.69 427.223 207.14C420.423 211.492 413.903 216.181 408.536 221.965C405.951 220.013 403.379 218.034 400.794 216.083C396.93 216.307 393.08 216.462 389.216 216.434C384.664 210.299 381.952 202.184 373.873 198.97C367.382 197.538 360.595 198.534 353.991 198.197C351.181 193.635 346.277 191.024 341.388 188.553C337.397 182.151 347.964 181.463 351.209 177.729C356.267 170.148 354.961 160.335 350.956 152.6C348.062 146.788 347.851 140.33 346.053 134.266C344.802 129.956 339.14 130.728 335.332 130.166C335.093 127.709 334.868 125.253 334.644 122.81L334.658 122.824Z" fill="#00B3FF" fill-opacity="0.5"/>
<path d="M313.681 131.963C318.95 128.72 325.582 127.766 330.541 124.003C331.061 127.218 331.511 130.433 332.045 133.62C335.445 134.055 338.817 134.462 342.217 134.925C343.608 141.467 344.466 148.192 347.416 154.383C350.634 160.826 351.66 168.562 348.133 175.076C345.168 177.841 340.728 178.782 337.609 181.365C336.569 184.032 336.26 186.938 336.808 189.718C340.503 193.017 345.871 194.449 348.976 198.352C355.228 206.213 367.986 198.408 375.56 204.164C380.786 207.968 381.812 214.538 386.646 218.638C389.203 221.08 393.165 220.294 396.509 220.505C401.764 220.154 405.108 224.801 409.927 226.064C409.815 228.507 409.759 230.978 409.731 233.434C395.905 233.21 383.302 239.766 369.42 239.316C352.657 241.745 335.726 234.599 319.203 238.98C313.948 233.42 308.355 228.114 302.581 223.004C305.587 218.989 309.395 214.973 309.353 209.863C309.409 203.434 309.817 197.004 309.69 190.588C308.032 187.584 304.801 185.647 302.272 183.302C302.468 177.294 302.229 171.215 298.323 166.063C300.136 156.91 299.911 147.644 297.017 138.688C302.735 136.834 308.524 134.953 313.681 131.977V131.963Z" fill="#00B3FF" fill-opacity="0.5"/>
<path d="M548.171 149.511C552.232 148.276 556.897 146.086 561.098 148.206C564.105 150.494 562.7 154.2 562.854 157.233C562.405 163.55 564.105 169.853 563.36 176.157C561.561 178.108 559.468 179.849 557.501 181.646C559.257 186.138 560.536 190.785 561.042 195.516C558.541 196.962 556.04 198.408 553.567 199.854C553.286 202.956 553.51 206.143 552.667 209.175C548.101 217.29 535.75 221.824 536.495 232.03C524.721 234.403 512.693 234.95 500.68 233.869C499.992 229.223 499.584 224.534 498.362 219.971C496.226 213.668 491.112 208.586 488.906 202.325C487.163 195.712 494.048 190.251 492.657 183.569C491.14 174.57 490.044 165.543 490.746 156.432C501.495 153.891 512.286 149.75 523.639 151.294C531.957 152.712 539.966 149.989 548.185 149.525L548.171 149.511Z" fill="#00B3FF" fill-opacity="0.5"/>
<path d="M288.881 172.521C291.031 170.822 293.827 170.148 296.496 169.432C298.309 174.163 297.564 179.203 298.562 184.046C300.458 187.079 303.803 189.142 305.727 192.161C305.517 198.029 305.376 203.911 305.208 209.793C305.109 214.721 300.908 218.315 298 222.119C306.275 231.764 316.111 240.285 323.797 250.337C315.577 255.77 305.882 260.95 295.26 260.15C285.101 259.841 274.521 261.034 264.7 258.198C259.15 256.528 261.608 251.698 262.915 248.147C249.539 238.994 234.069 232.831 219.147 226.022C224.445 220.055 230.402 214.608 236.036 208.895C239.24 210.846 241.98 214.454 246.335 213.85C256.101 213.415 262.213 204.992 263.519 197.046C268.929 192.175 277.935 192.048 282.853 186.517C287.026 182.586 283.401 175.609 288.867 172.507L288.881 172.521Z" fill="#00B3FF" fill-opacity="0.5"/>
<path d="M254.021 284.83C264.025 286.416 274.844 284.984 284.075 289.406C289.274 292.088 294.332 295.401 297.69 299.921C300.992 311.587 297.1 324.924 304.898 335.509C311.109 341.883 321.52 341.475 330.133 342.374C336.99 343.034 343.861 348.747 350.717 344.943C359.092 340.942 360.581 331.719 366.131 325.542C373.03 319.73 382.008 316.529 389.511 311.433C397.127 306.716 403.843 300.876 408.873 293.885C418.441 293.169 428.319 292.649 437.663 295.022C450.603 299.486 459.568 309.748 471.932 315.097C479.351 316.304 486.952 315.322 494.427 315.322C503.251 315.378 512.539 314.128 519.648 309.102C527.221 303.796 535.371 298.784 541.384 291.975C548.438 281.432 549.197 268.755 552.4 257.047C552.442 257.089 552.47 257.117 552.513 257.159C552.527 256.963 552.569 256.78 552.625 256.598C552.597 256.57 552.569 256.556 552.541 256.528C552.218 256.64 551.894 256.78 551.543 256.991C547.272 258.507 540.134 262.312 537.422 256.865C534.275 249.101 536.2 240.482 542.073 234.15C528.837 237.786 515.011 238.811 501.228 237.786C499.317 244.862 494.568 251.109 493.584 258.409C491.772 267.52 486.011 275.438 481.023 283.384C475.164 292.13 470.12 301.269 464.64 310.211C464.19 309.411 463.291 307.783 462.841 306.983C470.092 288.789 486.77 274.104 490.24 254.618C476.063 252.372 461.605 248.764 450.28 240.439C446.992 238.235 444.126 234.768 439.616 234.852C434.965 234.262 431.438 237.491 427.35 238.797C422.685 239.302 417.95 238.825 413.271 238.783C415.168 243.57 421.898 248.905 416.966 253.86C413.074 258.1 407.707 260.95 402.944 264.319C401.988 267.394 402.789 271.353 399.74 273.599C395.736 276.743 391.324 279.453 387.277 282.569C390.846 289.884 400.555 292.593 403.857 299.823C397.562 298.545 392.996 294.207 388.64 290.249C384.242 286.514 383.891 280.66 380.392 276.42C375.742 273.922 371.287 277.937 367.227 279.579C360.328 276.055 353.907 271.212 345.926 269.907C336.723 269.247 327.506 270.412 318.303 270.075C318.668 277.403 310.448 280.702 305.952 285.644C303.156 289.322 300.936 293.323 298.533 297.24C297.747 296.692 296.187 295.639 295.414 295.092C299.376 286.416 306.289 279.439 314.256 273.514C312.767 269.724 311.151 265.976 309.802 262.143C299.334 265.428 288.206 264.024 277.387 263.716C270.292 263.224 261.777 263.182 257.253 257.412C256.564 254.253 257.505 251.067 257.871 247.936C243.146 239.639 226.861 233.954 211.462 226.766C204.296 222.793 199.603 216.096 195.584 209.653C192.718 204.079 185.974 201.623 180.311 198.871C178.667 204.95 180.452 211.408 178.695 217.36C172.345 223.144 163.226 224.969 154.444 224.253C147.573 223.298 143.667 230.318 137.021 230.205C137.021 230.205 137.021 230.205 137.007 230.205C136.726 230.36 136.431 230.486 136.122 230.598C159.432 239.541 180.396 252.583 200.348 266.453C216.014 276.757 235.053 281.952 254.021 284.816V284.83Z" fill="#00B3FF" fill-opacity="0.5"/>
<path d="M663.864 250.519C662.262 243.795 656.74 238.629 654.211 232.255C652.553 227.805 655.574 223.705 657.176 219.648C653.382 219.859 649.462 219.845 645.992 221.347C632.334 227.285 621.206 237.337 606.846 241.984C595.732 242.208 584.506 243.065 573.898 246.125C567.491 249.129 566.662 256.359 562.278 261.132C561.856 262.621 561.154 264.01 560.367 265.33C555.758 285.139 545.628 305.438 525.76 316.515C506.497 327.058 482.737 323.548 461.563 320.937C449.409 319.744 444 308.85 435.527 302.574C431.776 299.275 425.72 299.149 421.35 301.479C410.376 306.477 401.005 313.749 390.691 319.674C386.097 322.565 380.968 324.812 376.866 328.265C372.566 333.263 371.049 339.959 365.386 344.087C360.286 347.821 356.141 353.254 349.762 355.163C336.147 355.542 323.066 351.204 309.9 348.579C296.37 346.094 291.48 332.266 290.525 321.442C289.443 315.209 291.396 307.025 284.75 302.841C277.191 298.124 269.083 293.183 259.627 292.453C244.593 291.161 228.589 291.793 215.059 284.788C198.268 277.993 186.508 264.797 171.052 256.219C152.913 246.055 128.338 239.962 120.231 220.252C120.315 220.28 120.385 220.322 120.456 220.336C120.048 219.69 119.739 218.96 119.556 218.216C109.426 213.878 99.9277 207.884 93.7454 199.433C84.739 189.241 73.2175 181.154 62.2861 172.703C57.1435 177.224 50.4554 180.93 47.6032 187.079C48.5446 191.74 53.5044 194.744 56.0476 198.787C51.0737 203.504 43.9359 206.971 41.6878 213.527C38.9761 220.28 34.7609 226.85 28.2695 231.272C23.0567 234.543 15.357 234.15 11.2963 238.839C10.1863 243.837 10.9029 249.747 6.43481 253.608C4.32722 254.268 2.17747 254.829 0.0136719 255.32C1.01127 260.431 2.57089 265.442 4.38342 270.37C9.38544 271.423 14.1627 273.079 18.8415 274.932C25.2627 275.747 32.9624 274.483 37.9082 279.158C42.0532 284.759 35.8147 294.334 44.3575 297.717C44.9897 293.73 43.2475 288.143 48.2635 285.953C55.3872 282.64 64.0986 281.643 71.9108 283.313C74.5101 285.363 75.9714 288.339 78.7253 290.263C82.5752 290.684 86.4813 290.403 90.3452 290.263C92.7057 283.594 92.1156 275.438 98.0168 270.215C102.878 270.145 106.841 273.894 106.616 278.189C106.307 289.28 111.168 299.668 114.639 310.099C120.933 312.921 128.31 310.773 135.026 310.956C140.689 310.366 148.304 311.868 152.056 306.969C154.655 294.572 152.463 281.825 154.247 269.345C162.762 271.451 171.375 273.486 180.34 273.121C178.527 269.05 176.63 265.007 175.099 260.824C178.162 262.845 182.391 264.446 183.122 268.194C187.576 280.604 197.776 291.512 198.591 304.807C193.786 309.51 187.463 312.893 183.557 318.312C183.669 324.026 183.543 330.539 188.278 334.934C192.283 341.096 201.401 343.329 203.902 350.376C206.923 359.964 206.811 370.016 208.722 379.787C209.27 383.914 213.963 385.487 217.391 387.396C220.201 382.791 222.688 377.808 227.241 374.312C231.048 370.999 236.402 369.805 240.715 367.152C245.239 362.576 244.467 355.851 247.473 350.587C250.522 344.887 253.136 339.061 255.398 333.094C267.552 331.354 279.902 331.466 292.154 330.961C291.199 333.123 289.246 334.709 286.534 334.597C277.078 335.551 267.566 335.537 258.096 336.225C256.747 341.391 254.499 346.305 251.745 350.994C248.078 356.89 248.991 364.625 243.497 369.665C239.043 372.894 233.072 373.989 229.011 377.709C225.765 380.278 224.051 383.886 222.365 387.368C230.023 386.525 236.135 381.879 243.553 380.278C249.525 379.408 251.899 372.669 258.11 372.669C275.589 372.332 292.899 375.744 310.378 375.295C314.678 383.086 313.343 392.632 318.738 399.932C324.555 406.966 334.995 404.804 343.383 404.93C342.779 393.278 347.725 382.033 346.39 370.325C347.5 364.541 343.369 360.021 339.435 355.977C342.034 356.764 345.631 356.413 347.205 358.869C351.701 363.53 350.254 370.044 350.507 375.688C351.167 387.733 344.353 399.722 348.989 411.613C352.052 418.856 355.705 426.03 355.635 433.976C358.53 433.499 361.41 432.979 364.304 432.46C364.698 428.796 365.007 425.132 365.344 421.482C369.897 421.468 374.449 421.496 379.001 421.51C382.542 427.083 384.678 433.33 388.851 438.567C396.059 444.477 406.625 440.364 413.959 436.784C418.02 433.485 418.427 427.968 420.76 423.7C423.977 425.848 429.275 427.518 428.684 431.926C428.544 441.796 432.422 451.426 430.947 461.295C430.413 465.086 430.989 468.876 431.705 472.596C434.642 473.2 437.649 473.677 440.515 474.52C445.278 477.889 447.878 483.097 452.542 486.551C457.839 488.221 463.404 485.428 468.855 485.863C474.967 485.638 481.824 487.997 487.388 484.81C490.184 480.065 487.978 474.492 488.976 469.367C495.692 467.795 502.984 468.736 509.461 466.363C515.222 464.356 514.126 457.926 515.461 453.56C515.925 448.885 520.463 446.176 524.06 443.368C522.655 430.677 505.879 422.787 509.574 409.015C505.429 409.029 501.298 409.058 497.153 409.072C496.647 411.486 496.156 413.887 495.664 416.315C492.193 416.386 488.709 416.386 485.238 416.372C484.086 418.169 482.948 419.98 481.768 421.762C472.761 422.324 463.235 424.542 454.481 421.833C449.718 412.736 443.719 404.116 440.108 394.542C435.246 394.57 430.089 395.328 425.481 393.601C422.376 389.038 421.238 383.704 418.666 378.917C409.702 361.34 407.608 341.756 399.881 323.815C396.565 322.439 392.715 323.001 389.216 322.453C392.139 321.035 394.836 317.863 398.574 318.972C402.424 318.747 403.379 322.172 404.574 324.713C410.138 337.966 412.526 352.075 417.402 365.524C420.31 373.849 424.343 381.808 427.729 389.993C431.832 391.734 436.876 390.204 441.316 391.13C446.458 395.005 446.318 401.701 450.266 406.334C453.61 410.124 454.509 415.08 457.573 418.997C464.752 419.292 472.115 419.432 479.21 418.098C480.573 416.386 481.754 414.547 483.004 412.778C485.871 412.75 488.751 412.722 491.631 412.665C492.938 410.532 493.233 407.696 495.495 406.151C501.312 404.074 507.649 405.436 513.424 406.867C513.972 411.191 512.173 416.049 515.082 419.909C519.283 427.097 526.097 432.993 528.514 441.009C533.53 437.949 538.237 434.566 542.719 430.902C548.789 428.81 553.454 433.709 558.835 435.057C564.695 434.074 567.786 428.613 570.287 424.289C569.317 410.335 556.925 400.648 549.703 389.137C544.883 381.57 536.34 377.106 527.755 373.652C515.447 366.773 499.851 369.005 487.177 362.927C484.859 361.719 482.035 360.189 481.936 357.48C480.798 346.586 480.222 335.649 479.168 324.741C480.208 324.741 482.288 324.727 483.327 324.727C484.311 335.958 485.196 347.203 486.025 358.462C498.909 365.552 515.321 362.898 528.191 369.862C534.022 372.683 540.471 374.789 545.375 378.945C553.075 385.178 556.91 394.078 563.556 401.126C569.163 406.713 571.706 413.943 574.277 420.92C579.771 421.594 585.532 422.689 590.435 419.601C586.262 416.793 583.916 412.932 583.382 408.299C590.506 408.061 597.714 408.749 604.809 407.878C608.406 405.646 609.671 401.687 611.61 398.346C616.064 389.46 625.211 383.325 630.044 374.663C632.334 369.777 633.683 362.604 628.288 358.926C619.885 355.205 608.898 359.052 601.409 353.324C596.73 348.003 599.709 340.844 603.545 335.874C591.011 330.806 578.141 325.415 568.277 316.613C561.969 311.405 568.797 304.385 570.23 298.658C564.133 295.766 557.557 293.955 551.051 292.06C551.951 291.428 553.791 290.192 554.705 289.575C561.055 291.049 567.673 293 572.661 296.973C577.424 302.532 565.214 309.706 571.917 314.872C581.513 323.057 593.934 327.858 605.75 332.954C606.453 327.212 610.457 322.916 614.42 318.705C619.787 308.092 624.143 296.861 632.292 287.595C634.344 285.504 636.1 282.387 639.697 282.443C648.366 281.783 657.176 282.626 665.747 280.899C666.238 270.805 666.491 260.501 663.934 250.603L663.864 250.519Z" fill="#00B3FF" fill-opacity="0.5"/>
<path d="M467.843 183.92C474.995 181.646 479.421 174.781 487.43 174.402C488.09 179.105 488.68 183.878 488.118 188.623C487.079 192.764 483.566 196.414 484.212 200.823C485.997 208.01 491.814 213.654 494.385 220.547C496.731 230.641 497.898 241.9 491.139 250.912C475.726 249.003 460.242 244.441 448.777 234.656C443.606 230.023 434.838 230.135 429.078 233.855C424.61 236.663 418.835 234.852 413.805 234.838C413.959 230.276 413.299 225.474 415.168 221.108C419.973 214.356 430.876 212.503 433.237 204.178C434.74 197.804 444.983 197.425 444.744 190.237C452.908 189.704 460.214 186.236 467.843 183.92Z" fill="#00B3FF" fill-opacity="0.5"/>
<path d="M382.542 241.801C391.268 240.159 399.754 237.407 408.733 236.916C409.239 242.644 418.4 249.382 411.178 254.043C407.44 257.216 402.775 259.42 399.347 262.901C398.237 265.555 398.251 268.503 396.888 271.086C393.881 273.725 390.369 275.817 387.067 278.105C385.17 275.957 383.231 273.851 381.25 271.788C376.177 271.563 371.344 272.63 367.34 275.508C359.584 271.254 351.729 265.709 342.147 265.976C333.365 266.102 324.569 266.509 315.76 266.425C315.001 264.446 314.298 262.48 313.624 260.487C318.682 257.595 325.609 255.475 327.703 249.916C326.143 246.967 323.797 244.455 321.858 241.731C342.048 240.369 362.408 244.679 382.542 241.801Z" fill="#00B3FF" fill-opacity="0.5"/>
<path d="M98.3405 275.213C99.1976 274.848 100.912 274.118 101.783 273.753C102.05 286.725 106.026 299.261 111.056 311.349C113.023 315.49 118.981 315.055 123.14 315.097C130.868 314.718 138.68 315.027 146.366 313.876C150.539 313.258 155.316 311.208 156.117 307.095C158.562 296.327 156.932 285.237 157.929 274.357C166.079 276.238 174.495 276.771 182.883 276.673C187.183 285.644 192.606 294.264 194.967 303.88C189.726 307.179 184.611 310.801 180.846 315.49C177.502 319.238 180.298 324.222 180.48 328.476C174.874 334.47 170.111 341.209 169.029 349.127C164.308 349.141 159.559 349.407 154.824 349.042C150.777 347.933 148.052 344.536 143.907 343.581C136.938 342.206 129.196 342.458 122.789 345.561C118.096 348.06 114.92 352.159 111.309 355.711C109.441 353.043 108.021 349.983 105.338 347.877C100.715 345.027 94.884 344.887 89.5308 344.227C87.662 337.615 92.2004 331.648 92.7343 325.177C92.9872 321.19 96.3453 318.228 97.6801 314.578C96.3453 310.787 91.7086 308.12 92.2847 303.852C91.7929 293.969 96.3313 284.788 98.3265 275.213H98.3405Z" fill="#00B3FF" fill-opacity="0.5"/>
<path d="M172.598 351.864C173.905 344.929 176.054 337.896 181.871 332.828C184.934 336.689 187.73 340.872 192.072 343.736C194.924 345.898 198.788 347.54 199.884 351.036C203.425 361.27 202.287 372.29 205.49 382.567C206.881 387.34 212.544 389.01 217.026 390.793C216.422 391.776 215.185 393.713 214.581 394.682C207.668 395.047 200.741 395.609 193.843 395.272C188.293 391.945 184.162 387.045 178.331 384.069C171.727 380.98 167.821 375.028 162.102 370.943C151.283 378.327 142.277 387.564 132.694 396.156C130.095 395.356 127.524 394.528 124.938 393.713C125.486 398.711 125.781 403.723 125.542 408.749C120.47 408.538 115.215 408.314 110.621 406.166C106.476 404.79 102.556 401.603 97.8626 402.895C91.863 403.737 86.4957 406.531 80.5382 407.457C77.9388 406.91 74.946 404.593 76.0841 402.024C78.7538 398.669 82.9549 396.058 82.9549 391.509C83.0392 387.045 88.8702 384.069 87.4792 379.492C85.8353 372.038 73.9063 372.262 72.3467 364.808C75.7188 364.611 79.1191 364.541 82.5193 364.429C83.812 358.547 87.0577 353.296 89.9943 347.976C94.1954 348.481 98.6073 348.593 102.429 350.404C105.239 352.636 106.321 356.02 108.19 358.855C115.538 359.796 118.25 352.777 123.224 349.52C128.788 346.01 136.179 346.024 142.642 347.007C146.408 348.341 149.007 351.612 153.054 352.454C159.475 353.83 166.191 353.072 172.57 351.864H172.598Z" fill="#00B3FF" fill-opacity="0.5"/>
<path d="M246.687 383.03C251.478 382.174 253.782 377.667 258.11 376.221C274.999 375.8 291.775 379.633 308.65 378.566C310.308 387.958 310.111 399.792 320.003 405.73C326.86 410.307 335.641 408.398 343.538 408.51C346.137 417.158 352.755 425.328 350.816 434.65C347.894 437.065 344.901 439.395 341.767 441.599C338.578 443.775 333.716 443.214 331.103 446.204C326.199 451.244 320.832 455.989 316.49 461.436C316.153 464.286 316.097 467.149 315.886 470.013C310.421 471.852 304.604 471.319 298.927 470.828C288.825 469.747 280.999 477.791 270.924 476.794C269.87 471.179 268.255 465.563 263.407 461.562C259.29 458.474 260.836 453.56 259.642 449.503C254.822 442.441 246.434 438.637 238.776 434.608C229.559 424.514 235.938 410.7 233.578 399.076C230.627 394.752 223.714 395.454 218.853 394.233C219.415 393.376 220.525 391.65 221.073 390.793C230.599 391.214 237.694 384.701 246.659 383.016L246.687 383.03Z" fill="#00B3FF" fill-opacity="0.5"/>
<path d="M172.921 385.515C180.537 388.224 185.173 394.626 192.002 398.374C204.507 400.241 217.434 396.844 229.868 399.68C230.964 412.118 225.611 426.943 236.079 437.191C243.146 441.332 251.099 444.617 256.298 450.921C250.804 456.48 248.148 463.429 244.579 469.957C239.887 472.049 234.449 471.571 229.363 472.217C229.222 474.744 229.096 477.285 228.969 479.812C221.846 479.531 216.591 474.702 210.324 472.273C206.558 464.313 206.868 455.076 206.053 446.498C199.927 445.361 194.672 442.104 190.583 437.963C190.737 434.229 193.576 430.368 190.948 426.858C184.401 414.013 176.237 401.856 168.453 389.586C169.563 388.575 171.811 386.568 172.921 385.557V385.515Z" fill="#00B3FF" fill-opacity="0.5"/>
</svg>
