<svg width="700" height="750" viewBox="0 0 700 750" fill="none" xmlns="http://www.w3.org/2000/svg">
<rect width="700" height="750" rx="35" fill="white"/>
<path d="M285.719 91.8169C285.641 102.559 290.68 115.137 302.906 120.723L296.656 129.551C288.766 125.997 283.375 119.122 280.211 110.958C277.086 120.02 271.461 127.598 263.219 131.426L256.734 122.52C269.195 116.778 274.312 103.536 274.312 91.8169V89.0044H259.703V79.8638H299.625V89.0044H285.719V91.8169ZM304.156 144.786V73.0669H315.406V99.9419H325.562V109.239H315.406V144.786H304.156ZM388.375 73.145V125.411H377.203V109.161H361.461C357.984 112.637 353.141 114.747 347.75 114.708C336.852 114.747 328.453 106.739 328.531 96.0356C328.453 85.1372 336.852 77.2075 347.75 77.2075C353.141 77.2075 358.023 79.3169 361.5 82.8325H377.203V73.145H388.375ZM339.156 96.0356C339.156 101.661 342.711 104.747 347.75 104.786C352.438 104.747 356.109 101.661 356.109 96.0356C356.109 90.3325 352.438 87.1685 347.75 87.2075C342.711 87.1685 339.156 90.3325 339.156 96.0356ZM340.328 143.614V120.176H351.578V134.629H390.016V143.614H340.328ZM366.344 91.7388C366.656 93.106 366.812 94.5513 366.812 96.0356C366.812 97.481 366.656 98.8481 366.344 100.176H377.203V91.7388H366.344ZM475.25 73.0669V144.786H463.844V73.0669H475.25ZM414.703 123.926C432.945 115.333 440.602 104.708 442.203 89.2388H418.766V80.4888H453.688C453.648 102.598 446.656 120.606 420.562 132.833L414.703 123.926ZM510.641 84.3169C510.641 92.6372 514.938 100.762 526.578 104.239L520.641 112.911C513.18 110.567 508.102 105.997 505.094 100.137C502.008 106.934 496.656 112.286 488.609 114.942L482.516 106.192C494.859 102.168 499.273 92.6372 499.312 83.145V76.9731H510.641V84.3169ZM492.516 130.645C492.477 121.817 502.086 116.543 517.281 116.583C532.203 116.543 541.656 121.817 541.656 130.645C541.656 139.629 532.203 144.864 517.281 144.786C502.086 144.864 492.477 139.629 492.516 130.645ZM503.766 130.645C503.727 134.434 508.375 135.997 517.281 136.036C526.109 135.997 530.523 134.434 530.562 130.645C530.523 127.129 526.109 125.293 517.281 125.333C508.375 125.293 503.727 127.129 503.766 130.645ZM529.703 115.254V73.0669H540.953V89.2388H550.25V98.5356H540.953V115.254H529.703ZM593.922 80.1763V89.0044H580.055C580.367 95.6841 585.094 102.676 596.578 105.567L591.344 114.161C583.336 112.208 577.867 107.989 574.586 102.559C571.461 108.809 565.914 113.731 557.516 116.036L552.281 107.286C563.766 104.122 568.492 96.4653 568.766 89.0044H554.938V80.1763H568.766V72.8325H580.094V80.1763H593.922ZM564.156 130.958C564.156 122.247 573.688 117.403 588.922 117.364C604.352 117.403 613.883 122.247 613.922 130.958C613.883 139.747 604.352 144.864 588.922 144.786C573.688 144.864 564.156 139.747 564.156 130.958ZM575.328 130.958C575.328 134.512 579.977 136.309 588.922 136.348C598.219 136.309 602.672 134.512 602.75 130.958C602.672 127.481 598.219 125.879 588.922 125.958C579.977 125.879 575.328 127.481 575.328 130.958ZM591.812 100.879V91.895H602.516V73.0669H613.688V116.426H602.516V100.879H591.812ZM638.297 131.348L631.344 153.926H622.203L625.953 131.348H638.297ZM465.641 205.02C465.602 213.926 470.055 222.754 482.047 226.504L476.109 235.333C468.414 232.793 463.219 227.95 460.133 221.739C456.93 228.497 451.383 233.809 443.219 236.504L436.969 227.676C449.625 223.848 454.234 214.278 454.312 204.942V197.52H465.641V205.02ZM448.531 263.614V240.333H459.938V254.629H497.984V263.614H448.531ZM484.312 245.489V193.145H495.562V213.458H504.859V222.911H495.562V245.489H484.312ZM570.172 201.661V210.567H510.25V201.661H534.547V193.692H545.797V201.661H570.172ZM507.594 257.833V248.848H534.547V241.153C522.555 239.981 515.328 234.981 515.328 227.208C515.328 218.418 524.859 213.106 540.172 213.145C555.211 213.106 564.898 218.418 564.859 227.208C564.898 234.942 557.594 239.981 545.797 241.153V248.848H573.141V257.833H507.594ZM526.969 227.208C526.93 230.997 531.344 232.52 540.172 232.52C548.766 232.52 553.297 230.997 553.297 227.208C553.297 223.458 548.766 221.895 540.172 221.895C531.344 221.895 526.93 223.458 526.969 227.208ZM642.281 247.754V256.895H576.734V247.754H603.922V234.473H615.016V247.754H642.281ZM578.531 228.145C595.367 226.309 602.555 218.379 603.57 211.348H582.281V202.442H603.922V193.77H615.016V202.442H636.734V211.348H615.367C616.344 218.379 623.531 226.309 640.484 228.145L636.422 236.973C623.297 235.411 614.273 230.254 609.43 223.262C604.625 230.254 595.68 235.411 582.594 236.973L578.531 228.145Z" fill="black"/>
<ellipse cx="486.603" cy="447.561" rx="62.1447" ry="62.4332" fill="url(#paint0_linear_152_762)"/>
<path d="M489.304 313L489.304 365.739" stroke="#FF6A6A" stroke-width="17.5" stroke-linecap="round"/>
<path d="M547.203 384.945L584.077 347.901" stroke="#FF6A6A" stroke-width="17.5" stroke-linecap="round"/>
<path d="M405.535 547.371L442.409 510.326" stroke="#FF6A6A" stroke-width="17.5" stroke-linecap="round"/>
<path d="M536.396 510.77L573.269 547.815" stroke="#FF6A6A" stroke-width="17.5" stroke-linecap="round"/>
<path d="M387.402 347.125L424.276 384.17" stroke="#FF6A6A" stroke-width="17.5" stroke-linecap="round"/>
<path d="M572.678 447.949H625.173" stroke="#FF6A6A" stroke-width="17.5" stroke-linecap="round"/>
<path d="M353.435 447.949H405.157" stroke="#FF6A6A" stroke-width="17.5" stroke-linecap="round"/>
<path d="M489.304 533.261L489.304 586" stroke="#FF6A6A" stroke-width="17.5" stroke-linecap="round"/>
<path fill-rule="evenodd" clip-rule="evenodd" d="M201.652 667.297C190.581 675.371 177.024 680.122 162.38 680.122C125.027 680.122 94.7461 649.211 94.7461 611.08C94.7461 572.949 125.027 542.038 162.38 542.038C168.99 542.038 175.378 543.006 181.416 544.811C180.456 540.023 179.955 535.092 179.955 530.056C179.955 484.362 221.204 447.32 272.086 447.32C322.652 447.32 363.703 483.902 364.213 529.203C368.561 528.637 373.008 528.345 377.53 528.345C428.413 528.345 469.662 565.387 469.662 611.08C469.662 656.774 428.413 693.816 377.53 693.816C353.843 693.816 332.244 685.789 315.922 672.598C301.486 685.789 282.384 693.816 261.435 693.816C237.811 693.816 216.535 683.607 201.652 667.297Z" fill="url(#paint1_linear_152_762)"/>
<defs>
<linearGradient id="paint0_linear_152_762" x1="486.603" y1="385.128" x2="486.603" y2="509.994" gradientUnits="userSpaceOnUse">
<stop stop-color="#FF0000"/>
<stop offset="1" stop-color="#FFF9E9"/>
</linearGradient>
<linearGradient id="paint1_linear_152_762" x1="291.257" y1="447.32" x2="291.257" y2="693.816" gradientUnits="userSpaceOnUse">
<stop stop-color="#A0A0A0"/>
<stop offset="1" stop-color="#FFF9E9"/>
</linearGradient>
</defs>
</svg>
