<svg width="1728" height="432" viewBox="0 0 1728 432" fill="none" xmlns="http://www.w3.org/2000/svg">
<path d="M226 49.185C114.612 49.185 -13 23.9675 -13 23.9675V38.7928V352C-13 396.183 22.8172 432 67 432H1661C1705.18 432 1741 396.183 1741 352V30.29C1741 30.29 1712.5 53.8506 1674 49.185C1597.86 39.9582 1523.5 0 1399.5 0C1253 0 1197.5 49.185 1079 49.185C899.5 49.185 793 0 617 0C441 0 326.5 49.1849 226 49.185Z" fill="#001AFF"/>
<rect width="1785" height="237.141" fill="#001AFF"/>
<path d="M226 56.9704C114.612 56.9705 -13 34.3241 -13 34.3241V47.6378V74.7458C-13 74.7458 114.612 97.3922 226 97.3921C326.5 97.3921 441 53.2219 617 53.2219C793 53.2219 899.5 97.3921 1079 97.3921C1197.5 97.3921 1253 53.2219 1399.5 53.2219C1523.5 53.2219 1597.86 89.1061 1674 97.3921C1712.5 101.582 1741 80.4237 1741 80.4237V40.002C1741 40.002 1712.5 61.1603 1674 56.9704C1597.86 48.6844 1523.5 12.8002 1399.5 12.8002C1253 12.8002 1197.5 56.9704 1079 56.9704C899.5 56.9704 793 12.8002 617 12.8002C441 12.8002 326.5 56.9704 226 56.9704Z" fill="white"/>
</svg>
