<svg width="197" height="197" viewBox="0 0 197 197" fill="none" xmlns="http://www.w3.org/2000/svg">
<circle cx="98.5" cy="98.5" r="98.5" fill="white" fill-opacity="0.4"/>
<mask id="mask0_179_24" style="mask-type:alpha" maskUnits="userSpaceOnUse" x="0" y="0" width="197" height="197">
<circle cx="98.5" cy="98.5" r="98.5" fill="#D9D9D9"/>
</mask>
<g mask="url(#mask0_179_24)">
<rect x="59.6377" y="71.5273" width="54" height="164.579" rx="27" transform="rotate(-15 59.6377 71.5273)" fill="#05FF00"/>
<rect x="68" y="91.1641" width="47" height="129" rx="23.5" transform="rotate(-15 68 91.1641)" fill="#FFF241"/>
<circle cx="97" cy="47" r="14" fill="#05FF00"/>
<circle cx="133" cy="72" r="14" fill="#05FF00"/>
<circle cx="61" cy="57" r="14" fill="#05FF00"/>
<circle cx="14" cy="14" r="14" transform="matrix(-0.817167 0.576401 0.576401 0.817167 49.8809 75)" fill="#05FF00"/>
<circle cx="146" cy="108" r="14" fill="#05FF00"/>
<circle cx="14" cy="14" r="14" transform="matrix(-0.817167 0.576401 0.576401 0.817167 59.8809 111)" fill="#05FF00"/>
<circle cx="154" cy="144" r="14" fill="#05FF00"/>
<circle cx="14" cy="14" r="14" transform="matrix(-0.817167 0.576401 0.576401 0.817167 72.8809 148)" fill="#05FF00"/>
<circle cx="130.5" cy="69.5" r="2.5" fill="#00B3FF"/>
<circle cx="135.5" cy="64.5" r="2.5" fill="#00B3FF"/>
<circle cx="135.5" cy="74.5" r="2.5" fill="#00B3FF"/>
<circle cx="146.5" cy="101.5" r="2.5" fill="#00B3FF"/>
<circle cx="151.5" cy="112.5" r="2.5" fill="#00B3FF"/>
<circle cx="138.5" cy="112.5" r="2.5" fill="#00B3FF"/>
<circle cx="154.5" cy="135.5" r="2.5" fill="#00B3FF"/>
<circle cx="149.5" cy="142.5" r="2.5" fill="#00B3FF"/>
<circle cx="70.5" cy="160.5" r="2.5" fill="#00B3FF"/>
<circle cx="77.5" cy="168.5" r="2.5" fill="#00B3FF"/>
<circle cx="57.5" cy="130.5" r="2.5" fill="#00B3FF"/>
<circle cx="49.5" cy="127.5" r="2.5" fill="#00B3FF"/>
<circle cx="55.5" cy="125.5" r="2.5" fill="#00B3FF"/>
<circle cx="54.5" cy="90.5" r="2.5" fill="#00B3FF"/>
<circle cx="40.5" cy="96.5" r="2.5" fill="#00B3FF"/>
<circle cx="42.5" cy="89.5" r="2.5" fill="#00B3FF"/>
<circle cx="61.5" cy="63.5" r="2.5" fill="#00B3FF"/>
<circle cx="58.5" cy="53.5" r="2.5" fill="#00B3FF"/>
<circle cx="65.5" cy="55.5" r="2.5" fill="#00B3FF"/>
<circle cx="98.5" cy="49.5" r="2.5" fill="#00B3FF"/>
<circle cx="98.5" cy="40.5" r="2.5" fill="#00B3FF"/>
<circle cx="91.5" cy="43.5" r="2.5" fill="#00B3FF"/>
</g>
</svg>
