<svg width="700" height="750" viewBox="0 0 700 750" fill="none" xmlns="http://www.w3.org/2000/svg">
<rect width="700" height="750" rx="35" fill="white"/>
<path d="M274.938 85.3995V94.2277H261.031C261.07 101.767 265.562 109.97 277.516 113.603L272.125 122.275C264.234 120.048 258.805 115.4 255.562 109.501C252.398 115.907 246.891 120.946 238.688 123.368L233.297 114.618C245.25 111.103 249.781 102.509 249.781 94.2277H235.953V85.3995H249.781V77.8214H261.109V85.3995H274.938ZM246.656 147.9V126.025H257.906V138.915H296.344V147.9H246.656ZM272.594 106.962V97.9777H283.531V77.4308H294.703V130.478H283.531V106.962H272.594ZM363.844 77.4308V129.696H352.672V113.446H336.93C333.453 116.923 328.609 119.032 323.219 118.993C312.32 119.032 303.922 111.025 304 100.321C303.922 89.423 312.32 81.4933 323.219 81.4933C328.609 81.4933 333.492 83.6027 336.969 87.1183H352.672V77.4308H363.844ZM314.625 100.321C314.625 105.946 318.18 109.032 323.219 109.071C327.906 109.032 331.578 105.946 331.578 100.321C331.578 94.6183 327.906 91.4542 323.219 91.4933C318.18 91.4542 314.625 94.6183 314.625 100.321ZM315.797 147.9V124.462H327.047V138.915H365.484V147.9H315.797ZM341.812 96.0245C342.125 97.3917 342.281 98.837 342.281 100.321C342.281 101.767 342.125 103.134 341.812 104.462H352.672V96.0245H341.812ZM423.609 120.946C438.609 120.868 447.984 126.064 447.984 134.931C447.984 143.915 438.609 149.189 423.609 149.228C408.336 149.189 398.805 143.915 398.844 134.931C398.805 126.064 408.336 120.868 423.609 120.946ZM392.047 115.712V81.8839H403.141V90.3995H415.875V81.8839H427.125V115.712H392.047ZM403.141 106.962H415.875V98.9933H403.141V106.962ZM410.094 134.931C410.055 138.72 414.703 140.478 423.609 140.478C432.438 140.478 436.852 138.72 436.891 134.931C436.852 131.181 432.438 129.579 423.609 129.54C414.703 129.579 410.055 131.181 410.094 134.931ZM436.031 119.384V77.3527H447.281V93.6027H456.578V102.9H447.281V119.384H436.031ZM500.094 83.6027V92.587H494.156V122.743C496.773 122.548 499.352 122.275 501.812 121.962L502.359 130.009C487.867 132.626 471.734 132.939 459.547 132.978L458.375 123.915C460.758 123.915 463.336 123.915 466.031 123.876V92.587H460.172V83.6027H500.094ZM476.891 123.681L483.375 123.446V92.587H476.891V123.681ZM504.938 149.071V77.3527H516.188V104.228H526.344V113.29H516.188V149.071H504.938ZM590.641 77.3527V149.071H580.016V77.3527H590.641ZM526.812 127.509C537.516 120.868 540.836 108.056 540.797 96.1808V93.2902H529.703V84.3058H561.812V93.2902H551.656V96.1808C551.617 107.939 554.742 119.853 565.406 125.946L558.922 134.15C552.711 130.556 548.727 124.618 546.344 117.47C543.922 125.282 539.82 131.923 533.531 135.79L526.812 127.509ZM556.812 110.556V101.571H565.406V78.3683H575.875V145.868H565.406V110.556H556.812ZM613.766 135.634L606.812 158.212H597.672L601.422 135.634H613.766ZM455.641 209.306C455.602 218.212 460.055 227.04 472.047 230.79L466.109 239.618C458.414 237.079 453.219 232.235 450.133 226.025C446.93 232.782 441.383 238.095 433.219 240.79L426.969 231.962C439.625 228.134 444.234 218.564 444.312 209.228V201.806H455.641V209.306ZM438.531 267.9V244.618H449.938V258.915H487.984V267.9H438.531ZM474.312 249.775V197.431H485.562V217.743H494.859V227.196H485.562V249.775H474.312ZM560.172 205.946V214.853H500.25V205.946H524.547V197.978H535.797V205.946H560.172ZM497.594 262.118V253.134H524.547V245.439C512.555 244.267 505.328 239.267 505.328 231.493C505.328 222.704 514.859 217.392 530.172 217.431C545.211 217.392 554.898 222.704 554.859 231.493C554.898 239.228 547.594 244.267 535.797 245.439V253.134H563.141V262.118H497.594ZM516.969 231.493C516.93 235.282 521.344 236.806 530.172 236.806C538.766 236.806 543.297 235.282 543.297 231.493C543.297 227.743 538.766 226.181 530.172 226.181C521.344 226.181 516.93 227.743 516.969 231.493ZM632.281 252.04V261.181H566.734V252.04H593.922V238.759H605.016V252.04H632.281ZM568.531 232.431C585.367 230.595 592.555 222.665 593.57 215.634H572.281V206.728H593.922V198.056H605.016V206.728H626.734V215.634H605.367C606.344 222.665 613.531 230.595 630.484 232.431L626.422 241.259C613.297 239.696 604.273 234.54 599.43 227.548C594.625 234.54 585.68 239.696 572.594 241.259L568.531 232.431Z" fill="black"/>
<path d="M476.078 515.689C558.647 470.672 581.091 381.968 634 398.855V580.119H69.1878V539.64C102.76 519.613 315.004 459.798 360.457 477.031C418.872 499.179 422.9 544.682 476.078 515.689Z" fill="url(#paint0_linear_262_35)"/>
<path d="M300.422 486.36C238.408 405.419 116.301 423.644 63 442.874V649.286H632V603.191C598.179 580.385 517.341 576.511 455.747 582.429C406.318 587.177 377.939 587.536 300.422 486.36Z" fill="url(#paint1_linear_262_35)"/>
<defs>
<linearGradient id="paint0_linear_262_35" x1="351.594" y1="384.413" x2="351.594" y2="580.119" gradientUnits="userSpaceOnUse">
<stop stop-color="#041DFF"/>
<stop offset="1" stop-color="white"/>
</linearGradient>
<linearGradient id="paint1_linear_262_35" x1="347.5" y1="426.429" x2="347.5" y2="649.286" gradientUnits="userSpaceOnUse">
<stop stop-color="#041DFF"/>
<stop offset="1" stop-color="white"/>
</linearGradient>
</defs>
</svg>
