<svg width="197" height="197" viewBox="0 0 197 197" fill="none" xmlns="http://www.w3.org/2000/svg">
<circle cx="98.5" cy="98.5" r="98.5" fill="white" fill-opacity="0.4"/>
<mask id="mask0_179_26" style="mask-type:alpha" maskUnits="userSpaceOnUse" x="0" y="0" width="197" height="197">
<circle cx="98.5" cy="98.5" r="98.5" fill="#D9D9D9"/>
</mask>
<g mask="url(#mask0_179_26)">
<rect x="59.6377" y="71.5273" width="54" height="164.579" rx="27" transform="rotate(-15 59.6377 71.5273)" fill="white"/>
<circle cx="97" cy="47" r="14" fill="white"/>
<circle cx="133" cy="72" r="14" fill="white"/>
<circle cx="61" cy="57" r="14" fill="white"/>
<circle cx="14" cy="14" r="14" transform="matrix(-0.817167 0.576401 0.576401 0.817167 49.8809 75)" fill="white"/>
<circle cx="146" cy="108" r="14" fill="white"/>
<circle cx="14" cy="14" r="14" transform="matrix(-0.817167 0.576401 0.576401 0.817167 59.8809 111)" fill="white"/>
<circle cx="154" cy="144" r="14" fill="white"/>
<circle cx="14" cy="14" r="14" transform="matrix(-0.817167 0.576401 0.576401 0.817167 72.8809 148)" fill="white"/>
</g>
</svg>
