<svg width="700" height="750" viewBox="0 0 700 750" fill="none" xmlns="http://www.w3.org/2000/svg">
<rect width="700" height="750" rx="35" fill="white"/>
<path d="M249.266 77.3527V103.759H259.422V113.056H249.266V149.071H238.016V77.3527H249.266ZM194.422 132.665V82.9777H205.672V99.9308H218.641V82.9777H229.812V132.665H194.422ZM205.672 123.525H218.641V108.603H205.672V123.525ZM318.406 77.3527V103.446H328.562V112.587H318.406V149.228H307.156V77.3527H318.406ZM264.266 132.04V83.9152H297.938V92.9777H275.516V122.743C285.125 122.665 293.484 122.118 302.547 120.556L303.719 129.931C292.664 131.806 282.781 132.04 270.438 132.04H264.266ZM353.797 82.0402C365.203 82.0011 373.797 89.462 373.875 99.8527C373.797 110.282 365.203 117.704 353.797 117.665C342.508 117.704 333.719 110.282 333.719 99.8527C333.719 89.462 342.508 82.0011 353.797 82.0402ZM330.984 125.868C343.602 125.907 361.141 125.712 376.297 123.603L377.156 131.728C361.453 134.775 344.656 134.931 332.234 134.931L330.984 125.868ZM344.891 99.8527C344.891 105.204 348.797 108.017 353.797 107.978C358.914 108.017 362.859 105.204 362.938 99.8527C362.859 94.6183 358.953 91.7277 353.797 91.7277C348.758 91.7277 344.891 94.6183 344.891 99.8527ZM380.125 149.228V77.3527H391.297V149.228H380.125ZM437.078 82.2745C448.055 82.2355 456.141 92.1964 456.219 107.9C456.141 123.837 448.055 133.759 437.078 133.759C425.945 133.759 417.781 123.837 417.859 107.9C417.781 92.1964 425.945 82.2355 437.078 82.2745ZM428.797 107.9C428.719 118.329 432.078 123.525 437.078 123.525C442.117 123.525 445.398 118.329 445.438 107.9C445.398 97.6652 442.117 92.3917 437.078 92.4308C432.078 92.3917 428.719 97.6652 428.797 107.9ZM463.328 149.071V77.3527H474.578V103.915H484.734V113.212H474.578V149.071H463.328ZM527.625 83.6027V92.587H521.688V122.743C524.305 122.548 526.883 122.275 529.344 121.962L529.891 130.009C515.398 132.626 499.266 132.939 487.078 132.978L485.906 123.915C488.289 123.915 490.867 123.915 493.562 123.876V92.587H487.703V83.6027H527.625ZM504.422 123.681L510.906 123.446V92.587H504.422V123.681ZM532.469 149.071V77.3527H543.719V104.228H553.875V113.29H543.719V149.071H532.469ZM614.578 113.837V122.665H563.484V82.3527H614.031V91.4152H574.969V97.9777H612.312V106.728H574.969V113.837H614.578ZM555.984 141.025V131.962H621.531V141.025H555.984ZM641.297 135.634L634.344 158.212H625.203L628.953 135.634H641.297ZM468.641 209.306C468.602 218.212 473.055 227.04 485.047 230.79L479.109 239.618C471.414 237.079 466.219 232.235 463.133 226.025C459.93 232.782 454.383 238.095 446.219 240.79L439.969 231.962C452.625 228.134 457.234 218.564 457.312 209.228V201.806H468.641V209.306ZM451.531 267.9V244.618H462.938V258.915H500.984V267.9H451.531ZM487.312 249.775V197.431H498.562V217.743H507.859V227.196H498.562V249.775H487.312ZM573.172 205.946V214.853H513.25V205.946H537.547V197.978H548.797V205.946H573.172ZM510.594 262.118V253.134H537.547V245.439C525.555 244.267 518.328 239.267 518.328 231.493C518.328 222.704 527.859 217.392 543.172 217.431C558.211 217.392 567.898 222.704 567.859 231.493C567.898 239.228 560.594 244.267 548.797 245.439V253.134H576.141V262.118H510.594ZM529.969 231.493C529.93 235.282 534.344 236.806 543.172 236.806C551.766 236.806 556.297 235.282 556.297 231.493C556.297 227.743 551.766 226.181 543.172 226.181C534.344 226.181 529.93 227.743 529.969 231.493ZM645.281 252.04V261.181H579.734V252.04H606.922V238.759H618.016V252.04H645.281ZM581.531 232.431C598.367 230.595 605.555 222.665 606.57 215.634H585.281V206.728H606.922V198.056H618.016V206.728H639.734V215.634H618.367C619.344 222.665 626.531 230.595 643.484 232.431L639.422 241.259C626.297 239.696 617.273 234.54 612.43 227.548C607.625 234.54 598.68 239.696 585.594 241.259L581.531 232.431Z" fill="black"/>
<path fill-rule="evenodd" clip-rule="evenodd" d="M93.6954 419.927C90.5134 421.321 88.458 424.466 88.458 427.941V448.594H148.626V395.85L93.6954 419.927ZM318.086 419.987H268.438V448.594H326.836V428.737C326.836 423.905 322.918 419.987 318.086 419.987Z" fill="url(#paint0_linear_152_784)"/>
<path fill-rule="evenodd" clip-rule="evenodd" d="M169.517 344C164.684 344 160.767 347.918 160.767 352.75V382.441H138.269C133.436 382.441 129.519 386.358 129.519 391.191V448.594H57.75C52.9175 448.594 49 452.512 49 457.344V688.177L129.519 688.178H268.436V391.191C268.436 386.358 264.518 382.441 259.686 382.441H233.367V352.75C233.367 347.918 229.45 344 224.617 344H169.517ZM348.955 448.594H268.437V688.177H348.955V448.594Z" fill="url(#paint1_linear_152_784)"/>
<rect x="77.6582" y="469.469" width="36.3002" height="33.78" rx="8.75" fill="white"/>
<rect x="77.6582" y="524.482" width="36.3002" height="33.78" rx="8.75" fill="white"/>
<rect x="77.6582" y="579.495" width="36.3002" height="33.78" rx="8.75" fill="white"/>
<rect x="128.288" y="469.469" width="36.3002" height="33.78" rx="8.75" fill="white"/>
<rect x="155.991" y="404.804" width="36.3002" height="33.78" rx="8.75" fill="white"/>
<rect x="128.288" y="524.482" width="36.3002" height="33.78" rx="8.75" fill="white"/>
<rect x="128.288" y="579.495" width="36.3002" height="33.78" rx="8.75" fill="white"/>
<rect x="178.918" y="469.469" width="36.3002" height="33.78" rx="8.75" fill="white"/>
<rect x="206.619" y="404.804" width="36.3002" height="33.78" rx="8.75" fill="white"/>
<rect x="178.918" y="524.482" width="36.3002" height="33.78" rx="8.75" fill="white"/>
<rect x="178.918" y="579.495" width="36.3002" height="33.78" rx="8.75" fill="white"/>
<rect x="229.547" y="469.469" width="36.3002" height="33.78" rx="8.75" fill="white"/>
<rect x="229.547" y="524.482" width="36.3002" height="33.78" rx="8.75" fill="white"/>
<rect x="229.547" y="579.495" width="36.3002" height="33.78" rx="8.75" fill="white"/>
<rect x="280.174" y="469.469" width="36.3002" height="33.78" rx="8.75" fill="white"/>
<rect x="280.174" y="524.482" width="36.3002" height="33.78" rx="8.75" fill="white"/>
<rect x="280.174" y="579.495" width="36.3002" height="33.78" rx="8.75" fill="white"/>
<path fill-rule="evenodd" clip-rule="evenodd" d="M391.738 419.927C388.556 421.321 386.501 424.467 386.501 427.941V448.594H446.669V395.85L391.738 419.927ZM616.129 419.988H566.48V448.595H624.879V428.738C624.879 423.905 620.961 419.988 616.129 419.988Z" fill="url(#paint2_linear_152_784)"/>
<path fill-rule="evenodd" clip-rule="evenodd" d="M467.562 344C462.73 344 458.812 347.918 458.812 352.75V382.441H436.313C431.481 382.441 427.563 386.358 427.563 391.191V448.594H347.045V688.178L427.563 688.178H566.48V391.191C566.48 386.358 562.563 382.441 557.73 382.441H531.413V352.75C531.413 347.918 527.495 344 522.663 344H467.562ZM638.25 448.594H566.481V688.178H647V457.344C647 452.512 643.083 448.594 638.25 448.594Z" fill="url(#paint3_linear_152_784)"/>
<rect x="375.703" y="469.469" width="36.3002" height="33.78" rx="8.75" fill="white"/>
<rect x="375.703" y="524.482" width="36.3002" height="33.78" rx="8.75" fill="white"/>
<rect x="375.703" y="579.496" width="36.3002" height="33.78" rx="8.75" fill="white"/>
<rect x="426.332" y="469.469" width="36.3002" height="33.78" rx="8.75" fill="white"/>
<rect x="454.035" y="404.804" width="36.3002" height="33.78" rx="8.75" fill="white"/>
<rect x="426.332" y="524.482" width="36.3002" height="33.78" rx="8.75" fill="white"/>
<rect x="426.332" y="579.496" width="36.3002" height="33.78" rx="8.75" fill="white"/>
<rect x="476.962" y="469.469" width="36.3002" height="33.78" rx="8.75" fill="white"/>
<rect x="504.665" y="404.804" width="36.3002" height="33.78" rx="8.75" fill="white"/>
<rect x="476.962" y="524.482" width="36.3002" height="33.78" rx="8.75" fill="white"/>
<rect x="476.962" y="579.496" width="36.3002" height="33.78" rx="8.75" fill="white"/>
<rect x="527.591" y="469.469" width="36.3002" height="33.78" rx="8.75" fill="white"/>
<rect x="527.591" y="524.482" width="36.3002" height="33.78" rx="8.75" fill="white"/>
<rect x="527.591" y="579.496" width="36.3002" height="33.78" rx="8.75" fill="white"/>
<rect x="578.221" y="469.469" width="36.3002" height="33.78" rx="8.75" fill="white"/>
<rect x="578.221" y="524.482" width="36.3002" height="33.78" rx="8.75" fill="white"/>
<rect x="578.221" y="579.496" width="36.3002" height="33.78" rx="8.75" fill="white"/>
<defs>
<linearGradient id="paint0_linear_152_784" x1="198.094" y1="395.85" x2="197.643" y2="519.218" gradientUnits="userSpaceOnUse">
<stop stop-color="#828282"/>
<stop offset="1" stop-color="#FFF9E9"/>
</linearGradient>
<linearGradient id="paint1_linear_152_784" x1="198.978" y1="344" x2="198.978" y2="688.178" gradientUnits="userSpaceOnUse">
<stop stop-color="#A6A6A6"/>
<stop offset="1" stop-color="#FFF9E9"/>
</linearGradient>
<linearGradient id="paint2_linear_152_784" x1="496.137" y1="395.85" x2="495.686" y2="519.218" gradientUnits="userSpaceOnUse">
<stop stop-color="#828282"/>
<stop offset="1" stop-color="#FFF9E9"/>
</linearGradient>
<linearGradient id="paint3_linear_152_784" x1="497.022" y1="344" x2="497.022" y2="688.178" gradientUnits="userSpaceOnUse">
<stop stop-color="#A6A6A6"/>
<stop offset="1" stop-color="#FFF9E9"/>
</linearGradient>
</defs>
</svg>
