<svg width="1615" height="238" viewBox="0 0 1615 238" fill="none" xmlns="http://www.w3.org/2000/svg">
<path d="M227.283 104.98C229.311 102.364 231.299 99.6866 233.418 97.1107C241.349 87.4867 250.466 79.1302 261.043 72.508C267.949 68.1878 275.332 64.8107 283.171 62.2653C294.104 58.7158 305.229 57.8741 316.415 59.304C324.791 60.379 332.519 63.7865 339.425 68.9788C345.388 73.4613 350.043 79.0491 352.883 85.7018C356.503 94.2103 358.004 103.074 355.874 112.576C352.355 128.305 343.492 140.09 330.866 149.46C322.388 155.748 312.916 159.835 302.693 162.532C292.035 165.341 281.275 166.518 270.373 165.463C263.609 164.804 256.926 163.191 250.222 161.934C246.906 161.315 246.45 161.589 246.338 164.834C246.095 171.933 247.17 178.87 250.182 185.249C253.113 191.465 257.93 195.887 264.795 197.885C275.677 201.049 286.254 199.842 296.811 196.293C309.559 192.003 319.447 183.585 328.969 174.58C329.821 173.769 330.633 172.724 331.667 172.339C332.691 171.953 334.446 171.761 335.085 172.339C343.451 180.046 351.676 187.896 359.931 195.725C360.103 195.887 360.184 196.151 360.631 196.942C356.189 201.292 351.767 205.896 347.051 210.176C338.695 217.762 329.061 223.491 318.788 228.014C310.005 231.878 300.888 234.728 291.325 236.33C283.841 237.578 276.397 238.247 268.892 237.669C249.908 236.219 233.986 228.734 222.415 213.168C216.929 205.795 213.227 197.611 210.976 188.697C208.024 177.024 206.879 165.311 209.069 153.395C209.647 150.261 210.174 147.117 210.823 144.004C211.209 142.158 210.347 141.033 209.089 139.846C202.163 133.325 195.317 126.733 188.401 120.202C186.809 118.691 187.123 117.556 188.655 116.257C196.818 109.341 204.992 102.445 213.065 95.4171C214.87 93.8452 216.006 93.8655 217.659 95.62C220.6 98.7333 223.804 101.593 227.303 104.95L227.283 104.98ZM276.265 128.032C286.011 128.741 294.864 126.064 303.231 121.521C308.21 118.813 312.896 115.598 315.897 110.599C317.672 107.648 319.477 104.585 317.266 100.954C314.64 96.6341 310.279 96.4313 306.121 96.6442C300.483 96.9282 295.057 98.3378 289.834 100.812C278.902 105.984 269.592 113.073 262.26 122.697C260.607 124.867 260.597 125.435 263.315 126.044C267.564 126.987 271.935 127.393 276.245 128.032H276.265Z" fill="white"/>
<path d="M85.7815 237.902C75.8937 236.848 65.9147 236.269 56.1283 234.596C46.0276 232.872 36.1297 230.093 26.5056 226.29C17.6827 222.802 9.42771 218.431 1.57835 213.157C-0.206515 211.961 -0.32821 210.582 0.472952 209.071C3.66746 203.057 6.98366 197.114 10.2593 191.141C13.0887 185.979 15.9891 180.857 18.707 175.635C20.4919 172.197 20.9482 172.146 24.3253 173.88C31.0489 177.328 37.7929 180.827 44.7701 183.707C52.5282 186.912 60.479 189.731 68.5007 192.195C79.2302 195.491 90.3045 196.12 101.348 194.295C107.301 193.311 113.143 191.445 117.98 187.409C125.272 181.314 125.667 172.562 118.913 165.828C114.958 161.883 110.232 159.054 104.999 157.401C94.2596 154.003 83.3678 151.073 72.5775 147.837C62.7506 144.886 52.8324 142.128 43.1982 138.629C33.1887 134.999 23.8689 129.908 16.1412 122.363C10.7157 117.069 7.2879 110.7 5.32049 103.317C2.78517 93.8148 3.73845 84.424 6.14193 75.2867C10.2897 59.5575 19.7921 47.5807 33.6451 38.9606C41.2308 34.2449 49.3337 30.7157 57.8929 28.5049C74.9911 24.0935 92.3327 23.3227 109.887 25.8276C119.542 27.2068 128.983 29.3061 138.182 32.3282C147.937 35.5328 157.227 39.9443 166.1 45.1468C169.173 46.9418 169.325 48.0776 167.459 51.2011C160.847 62.245 154.326 73.3396 147.704 84.3733C146.213 86.8477 145.605 88.156 142.005 85.9756C134.176 81.2193 126.012 77.102 117.382 73.8669C105.811 69.5264 93.9553 67.7618 81.654 68.4616C75.0418 68.8368 68.8759 70.5 63.3489 74.2016C58.6839 77.3352 56.3109 81.8785 55.9255 87.3954C55.6618 91.2085 57.7002 94.2306 60.7426 96.056C64.6774 98.4088 68.8658 100.538 73.1961 102.009C80.9137 104.625 88.8137 106.745 96.6732 108.946C102.261 110.507 107.971 111.684 113.528 113.377C120.282 115.436 126.945 117.789 133.598 120.172C141.244 122.91 148.323 126.784 154.884 131.571C163.626 137.95 170.269 146.032 173.321 156.518C175.725 164.773 176.272 173.17 174.406 181.78C172.834 189.052 170.39 195.836 166.476 202.103C160.168 212.184 151.609 219.993 141.153 225.489C126.124 233.389 109.908 236.919 92.9615 237.152C90.5986 237.182 88.2357 237.152 85.8626 237.152L85.7916 237.912L85.7815 237.902Z" fill="white"/>
<path d="M547.352 146.803C547.352 172.065 547.352 197.327 547.352 222.589C547.352 223.35 547.301 224.11 547.352 224.871C547.535 227.325 546.541 228.288 543.975 228.268C532.657 228.167 521.329 228.227 510.012 228.227C507.304 228.227 504.606 228.156 501.899 228.248C499.941 228.309 499.09 227.345 499.019 225.54C498.948 223.938 499.069 222.325 498.937 220.733C498.867 219.871 498.654 218.502 498.146 218.319C497.406 218.046 496.179 218.38 495.459 218.887C490.54 222.356 485.247 225.023 479.578 227.021C472.012 229.688 464.214 230.641 456.233 230.793C446.172 230.986 436.315 229.688 426.823 226.453C418.172 223.512 410.242 219.171 403.123 213.31C393.691 205.531 386.481 196.019 381.745 184.904C374.707 168.384 372.07 151.164 374.97 133.183C376.268 125.131 378.195 117.292 381.471 109.889C387.292 96.7153 395.811 85.6004 407.717 77.2237C414.39 72.5283 421.63 68.8368 429.429 66.7072C441.112 63.533 452.967 61.8901 465.218 63.5735C473.899 64.7702 481.9 67.4881 489.506 71.5953C491.788 72.8325 493.806 74.5464 496.017 75.9357C497.903 77.1223 498.836 76.6051 498.948 74.4247C499.008 73.157 498.968 71.8894 498.968 70.6217C498.968 67.5996 500.442 66.0886 503.389 66.0886C516.482 66.0886 529.584 66.0886 542.677 66.0886C543.61 66.0886 544.624 65.8756 545.435 66.2001C546.176 66.4942 546.926 67.2751 547.251 68.0154C547.565 68.7253 547.332 69.6786 547.332 70.5203C547.332 95.9547 547.332 121.379 547.332 146.813L547.352 146.803ZM459.792 188.109C466.566 187.956 472.986 186.324 479.01 182.896C488.745 177.359 494.617 168.871 497.457 158.324C500.296 147.787 499.221 137.514 494.374 127.565C489.029 116.592 480.419 109.483 468.777 106.928C459.833 104.96 450.645 105.477 442.227 110.193C435.686 113.864 430.829 119.148 427.482 125.75C424.358 131.926 423.01 138.599 422.847 145.535C422.594 156.245 425.058 166.183 431.721 174.681C438.769 183.677 448.373 187.774 459.782 188.109H459.792Z" fill="white"/>
<path d="M1614.99 86.0189C1609.51 89.8219 1604.29 93.9899 1598.57 97.296C1589.71 102.407 1580.65 107.255 1571.37 111.585C1565.54 114.303 1559.21 115.997 1553.04 117.923C1544.54 120.58 1535.81 121.787 1526.88 121.919C1525.72 121.939 1524.13 123.268 1523.47 124.414C1517.19 135.417 1510.58 146.289 1505.05 157.667C1501.05 165.902 1498.64 174.917 1499.2 184.288C1499.5 189.348 1500.57 194.338 1505 197.745C1509.08 200.879 1513.49 200.088 1517.71 198.395C1530.58 193.212 1539.97 183.72 1548.17 172.96C1550.73 169.593 1552.61 165.658 1554.51 161.835C1555.56 159.716 1556.96 160.344 1558.29 160.892C1561.16 162.079 1563.97 163.417 1566.75 164.817C1573.48 168.234 1580.13 171.834 1586.93 175.141C1589.2 176.246 1589.43 177.443 1588.47 179.511C1582.32 192.786 1573.09 203.729 1562.64 213.759C1555.99 220.148 1548.6 225.634 1540.44 229.893C1529.44 235.633 1517.71 239.061 1505.17 237.651C1494.9 236.495 1486.08 231.993 1478.85 224.447C1474.55 219.965 1470.94 214.965 1468.3 209.459C1464.99 202.573 1462.21 195.372 1461.91 187.584C1461.7 182.381 1461.42 177.108 1461.99 171.956C1462.57 166.642 1463.91 161.389 1465.29 156.207C1466.5 151.674 1467.91 147.14 1469.75 142.83C1472.18 137.121 1474.98 131.553 1477.89 126.067C1480.28 121.544 1483.08 117.234 1485.68 112.822C1486.61 111.23 1486.18 109.891 1484.77 108.847C1478.48 104.192 1473.04 98.7259 1468.85 92.0935C1465.75 87.175 1463.31 81.9928 1461.65 76.3745C1459.39 68.6874 1458.22 60.9293 1458.84 52.938C1460.08 37.1074 1466.13 23.6601 1478.84 13.6912C1484.86 8.98566 1491.6 5.57818 1498.97 3.48908C1501.56 2.7589 1504.18 2.17071 1506.76 1.4304C1516.43 -1.33818 1525.87 0.43655 1534.78 3.94544C1544.42 7.73828 1551.81 14.4924 1556.43 24.0759C1560.66 32.838 1562.4 41.9448 1561.05 51.5486C1559.88 59.8544 1557.17 67.7139 1553.49 75.2488C1553.13 75.9892 1553.05 76.8714 1552.83 77.6929L1553.43 78.3115C1556.1 77.2162 1558.95 76.4354 1561.4 74.9852C1571.25 69.1843 1580.98 63.201 1590.73 57.248C1593.45 55.5849 1593.64 55.5139 1595.68 58.3636C1601.89 67.0547 1608.05 75.7863 1614.22 84.5078C1614.45 84.8324 1614.59 85.2279 1615 86.0087L1614.99 86.0189ZM1496.7 58.1303C1497.35 60.7975 1497.96 63.4849 1498.67 66.142C1500 71.1315 1503.02 74.9852 1506.99 78.1492C1508.33 79.2242 1509.35 79.3054 1510.28 77.3785C1513.57 70.594 1517.17 63.9616 1520.39 57.1568C1522.27 53.2017 1523.56 49.0235 1523.2 44.5004C1522.9 40.6772 1521.02 38.6692 1517.18 38.4258C1505.7 37.7159 1496.88 46.3157 1496.69 58.1303H1496.7Z" fill="white"/>
<path d="M1287.73 196.843C1281.63 204.145 1275.15 210.757 1267.44 215.99C1261.88 219.752 1256.16 223.362 1250.19 226.395C1244.97 229.041 1239.4 231.12 1233.8 232.824C1227.53 234.731 1221.12 236.587 1214.65 237.256C1206.9 238.057 1198.94 238.28 1191.22 237.469C1184.95 236.81 1178.66 234.802 1172.8 232.378C1164.38 228.899 1157.36 223.22 1151.51 216.142C1145.74 209.165 1141.52 201.295 1139.04 192.715C1135.48 180.414 1133.77 167.819 1136.05 154.99C1136.7 151.359 1137.6 147.749 1137.95 144.098C1138.08 142.891 1137.13 141.258 1136.18 140.325C1129.37 133.673 1122.46 127.152 1115.56 120.611C1113.99 119.12 1114.33 117.944 1115.88 116.646C1124.05 109.739 1132.21 102.843 1140.29 95.8154C1142.12 94.213 1143.24 94.3449 1144.87 96.0689C1147.82 99.1721 1151.02 102.032 1154.44 105.308C1155.7 103.736 1157.13 102.032 1158.47 100.267C1165.63 90.8968 1174.08 82.8751 1183.67 76.0196C1190.97 70.7968 1198.84 66.5983 1207.26 63.5965C1217.28 60.0268 1227.66 58.678 1238.35 59.2357C1247.16 59.6921 1255.18 62.2984 1262.68 66.72C1270.53 71.3444 1276.54 77.8957 1280.09 86.1507C1283.75 94.6491 1285.14 103.543 1283.06 113.035C1279.18 130.63 1268.58 143.114 1254.1 152.678C1246.8 157.495 1238.66 160.689 1230.09 162.92C1219.43 165.699 1208.67 166.946 1197.77 165.892C1190.83 165.222 1183.99 163.579 1177.12 162.292C1174.06 161.713 1173.64 161.916 1173.53 164.928C1173.28 172.189 1174.31 179.288 1177.44 185.829C1180.42 192.036 1185.26 196.397 1192.14 198.364C1202.95 201.447 1213.46 200.291 1223.91 196.772C1236.73 192.462 1246.7 183.994 1256.25 174.897C1257.04 174.147 1257.8 173.122 1258.76 172.828C1259.87 172.483 1261.68 172.271 1262.37 172.899C1270.52 180.343 1278.51 187.949 1286.54 195.514C1286.91 195.859 1287.21 196.265 1287.74 196.863L1287.73 196.843ZM1203.56 128.42C1213.29 129.129 1222.16 126.472 1230.48 121.868C1236.43 118.593 1241.83 114.648 1244.61 108.005C1246.55 103.36 1244.41 98.6448 1239.46 97.7929C1236.53 97.2858 1233.45 97.225 1230.47 97.4075C1224.04 97.7929 1218.24 100.267 1212.7 103.371C1203.71 108.391 1195.77 114.648 1189.57 122.953C1187.82 125.306 1187.81 125.854 1190.63 126.483C1194.88 127.426 1199.25 127.801 1203.57 128.42H1203.56Z" fill="white"/>
<path d="M650.057 218.86C651.02 208.718 651.436 198.486 653.099 188.466C654.549 179.724 657.216 171.155 659.721 162.616C661.212 157.566 663.565 152.779 665.268 147.779C665.735 146.39 665.776 144.423 665.137 143.165C658.9 130.864 655.289 117.822 655.178 104.111C655.117 95.9167 656.314 87.6617 657.662 79.5487C658.575 74.0521 660.218 68.5251 662.5 63.4443C664.985 57.897 668.108 52.4816 671.84 47.6848C676.089 42.2085 680.886 36.9654 686.241 32.5945C691.392 28.396 697.406 25.1508 703.329 22.0273C708.207 19.4514 713.45 17.5449 718.632 15.5977C721.532 14.5025 724.585 13.7013 727.637 13.1537C736.541 11.5412 745.496 10.4358 754.573 11.4398C773.648 13.5593 790.392 20.425 803.089 35.4138C808.129 41.3667 811.942 48.0803 814.883 55.2907C816.14 58.3737 815.339 59.5704 812.104 60.7062C805.999 62.8358 799.955 65.1683 793.84 67.2879C790.98 68.2716 788.019 68.9713 785.098 69.7623C783.526 70.1883 782.492 69.8232 781.711 68.1296C777.847 59.7428 771.488 53.7898 763.061 50.1491C758.051 47.989 752.697 47.2588 747.23 47.2994C730.528 47.4414 715.711 52.4106 703.907 64.6207C699.678 69.0018 696.808 74.2955 694.688 80.0963C691.392 89.1018 691.058 98.3608 691.403 107.741C691.514 110.693 692.011 110.916 694.486 109.405C699.921 106.068 705.256 102.569 710.813 99.4662C717.212 95.8964 724.26 94.3347 731.521 93.5234C740.071 92.5701 748.488 93.4321 756.439 96.3832C765.982 99.9225 773.74 105.977 778.547 115.307C783.354 124.637 784.753 134.312 782.583 144.656C779.632 158.732 771.438 169.015 759.613 176.428C755.07 179.278 749.624 180.718 744.553 182.686C737.657 185.353 730.447 184.846 723.287 184.582C713.703 184.227 705.022 180.972 696.838 176.205C694.333 174.745 693.725 174.917 693.045 177.656C691.828 182.544 690.429 187.401 689.395 192.33C686.616 205.483 686.9 218.819 687.285 232.145C687.397 236.019 687.336 236.039 683.452 236.262C673.838 236.799 664.234 237.438 654.62 237.945C650.969 238.138 650.929 238.027 650.908 234.376C650.878 229.234 650.908 224.082 650.908 218.941C650.635 218.92 650.351 218.9 650.077 218.88L650.057 218.86ZM731.339 149.483C737.485 149.442 742.829 146.005 746.48 139.869C749.025 135.6 746.896 130.113 742.19 129.403C738.844 128.896 735.183 128.856 731.937 129.677C724.899 131.452 718.885 135.326 713.734 140.467C711.279 142.922 711.381 143.997 714.596 145.508C719.514 147.82 724.696 149.189 731.339 149.473V149.483Z" fill="white"/>
<path d="M887.312 237.885C877.373 238.412 866.938 236.82 856.837 233.564C842.335 228.889 829.983 220.827 820.308 208.911C815.613 203.13 811.911 196.792 809.021 189.896C803.261 176.155 801.121 161.845 802.216 147.08C802.794 139.261 804.397 131.614 806.952 124.11C811.769 109.993 819.872 98.2797 831.383 88.899C837.954 83.5444 845.337 79.6806 853.268 76.628C869.585 70.3404 886.501 69.6204 903.426 71.8413C925.798 74.7722 944.559 84.8526 958.037 103.482C962.641 109.841 966.089 116.818 968.594 124.323C972.722 136.685 974.436 149.321 973.188 162.231C972.478 169.583 971.089 176.854 968.716 183.974C964.244 197.421 956.871 208.82 946.294 218.18C940.513 223.301 934.023 227.277 926.954 230.38C914.541 235.826 901.55 238.229 887.312 237.864V237.885ZM925.93 154.067C926.031 144.889 923.597 136.482 918.405 128.856C914.217 122.7 908.457 118.603 901.692 115.895C895.628 113.471 889.208 113.329 882.758 113.684C876.045 114.049 870.133 116.544 864.859 120.479C856.117 127 851.736 136.32 850.235 146.704C848.552 158.296 850.306 169.502 856.939 179.633C863.257 189.298 872.191 194.368 883.539 195.251C888.671 195.656 893.731 195.251 898.792 193.74C905.759 191.671 911.6 188.02 916.184 182.574C923.07 174.39 926.072 164.725 925.93 154.067Z" fill="white"/>
<path d="M1318.12 177.382C1322.21 179.856 1326.08 182.392 1330.13 184.582C1333.52 186.418 1337.05 188.071 1340.66 189.399C1345.38 191.143 1350.19 192.786 1355.08 193.963C1364.73 196.295 1374.5 197.756 1384.32 194.886C1386.04 194.379 1387.8 193.405 1389.08 192.168C1392.15 189.206 1391.92 184.602 1388.28 182.3C1384.49 179.897 1380.37 177.798 1376.11 176.378C1368.29 173.771 1360.26 171.824 1352.36 169.492C1345.83 167.565 1339.27 165.699 1332.87 163.397C1324.63 160.436 1317.06 156.136 1311.06 149.666C1304.64 142.739 1301.98 134.403 1302.15 124.901C1302.48 106.819 1310.27 93.0367 1325.33 83.3213C1333.53 78.0377 1342.49 74.7113 1352.12 72.6932C1364.79 70.0261 1377.5 70.2695 1390.17 71.5067C1396.96 72.176 1403.66 74.3361 1410.29 76.2021C1419.85 78.9098 1428.24 84.092 1436.57 89.3452C1438.49 90.552 1438.45 91.7386 1437.58 93.2902C1435.57 96.8903 1433.5 100.46 1431.4 104.01C1426.69 111.97 1421.9 119.881 1417.24 127.882C1416.2 129.677 1415.34 129.708 1413.64 128.704C1407.29 124.941 1401.09 120.793 1394.37 117.822C1384.59 113.502 1374.14 111.615 1363.48 113.725C1359.75 114.455 1355.63 115.378 1353.43 119.333C1352.17 121.584 1352.25 123.562 1354.54 124.769C1358.37 126.797 1362.33 128.815 1366.48 130.002C1376.67 132.932 1387.09 135.052 1397.25 138.115C1407.73 141.289 1417.9 145.416 1426.48 152.515C1434.9 159.482 1440.43 168.092 1441.41 179.309C1442.47 191.407 1439.56 202.258 1432.49 212.197C1426.86 220.107 1419.63 225.877 1410.99 230.045C1395.37 237.57 1378.76 238.524 1361.8 237.743C1352.3 237.307 1342.99 235.664 1333.88 233.27C1321.46 230.005 1309.69 225.036 1299.47 216.933C1297.87 215.655 1297.11 214.722 1298.43 212.4C1304.43 201.893 1310.1 191.194 1315.93 180.586C1316.54 179.481 1317.34 178.487 1318.1 177.361L1318.12 177.382Z" fill="white"/>
<path d="M997.71 157.069C997.71 131.888 997.71 106.707 997.71 81.5161C997.71 80.5831 997.72 79.6602 997.741 78.7272C997.781 76.7902 998.613 75.8978 1000.71 75.9079C1014.83 75.9789 1028.94 75.9789 1043.05 75.9079C1045.26 75.8978 1046.13 76.8511 1046.16 78.8996C1046.17 80.5019 1046.16 82.1144 1046.19 83.7167C1046.24 86.4346 1046.85 86.7895 1049.14 85.4103C1051.94 83.7066 1054.59 81.7392 1057.5 80.2687C1070.8 73.5653 1084.89 72.4092 1099.43 74.5794C1101.47 74.8837 1101.57 76.4251 1101.57 78.0275C1101.57 85.5523 1101.57 93.067 1101.57 100.592C1101.57 108.451 1101.59 116.311 1101.54 124.17C1101.54 125.042 1101.14 125.904 1100.93 126.766C1100.15 126.401 1099.35 126.087 1098.6 125.671C1094.81 123.542 1091.22 120.935 1087.24 119.313C1080.17 116.433 1073.04 117.964 1066.28 120.682C1057.51 124.191 1052.18 130.945 1049.21 139.818C1047.06 146.228 1046.21 152.779 1046.2 159.472C1046.16 183.811 1046.19 208.15 1046.18 232.489C1046.18 233.504 1046.14 234.518 1046.14 235.532C1046.14 237.175 1045.44 237.976 1043.68 237.976C1029.15 237.945 1014.61 237.945 1000.07 237.976C998.603 237.976 997.852 237.367 997.801 235.917C997.761 234.822 997.72 233.727 997.72 232.621C997.72 207.44 997.72 182.26 997.72 157.069H997.71Z" fill="white"/>
</svg>
