<svg width="215" height="179" viewBox="0 0 215 179" fill="none" xmlns="http://www.w3.org/2000/svg">
<g clip-path="url(#clip0_152_1274)">
<path d="M108.896 142.472C109.436 142.545 109.641 142.238 109.875 142.019C113.44 138.599 117.735 136.816 122.484 136.085C124.31 135.807 126.137 135.5 127.89 134.857C129.278 134.331 130.447 133.497 131.543 132.474C133.807 130.34 134.187 127.885 133.004 125.034C132.434 123.646 131.718 122.33 131.002 121.029C130.476 120.079 129.965 119.129 129.483 118.15C126.005 111.06 130.447 105.608 135.035 103.766C137.022 102.963 139.097 102.568 141.215 102.436C141.873 102.393 142.545 102.378 143.173 102.188C145.233 101.603 145.832 100.288 144.882 98.3144C144.327 97.1596 143.597 96.0779 142.895 95.0109C141.668 93.1399 140.558 91.1959 139.652 89.1495C138.103 85.6414 137.855 82.0456 138.863 78.3475C140.251 73.3192 144.386 69.6942 149.441 69.168C151.077 68.9926 152.743 68.8903 154.336 68.4518C157.097 67.6917 157.784 66.6393 156.893 63.8328C155.826 60.4855 155.738 57.109 156.294 53.7032C156.747 50.9114 157.638 48.2657 159.143 45.8831C161.7 41.8196 165.586 40.6941 169.809 42.7404C170.174 42.9158 170.51 43.1059 170.875 43.2959C173.797 44.8307 175.609 44.6114 178.122 42.3896C179.686 41.0156 181.161 39.5393 182.783 38.2384C189.84 32.6109 197.803 30.4914 206.614 31.7046C208.338 31.9385 209.93 32.6109 211.377 33.634C214.284 35.6658 215.526 38.8085 214.796 42.375C213.612 48.0903 210.135 52.0807 205.62 55.238C204.042 56.3489 202.289 57.1967 200.609 58.1468C198.87 59.1261 197.146 60.1493 195.641 61.5087C194.501 62.5465 194.443 63.0581 195.349 64.3006C196.225 65.4991 197.19 66.6246 198.125 67.7794C202.391 73.0415 199.542 78.7275 195.495 80.9493C193.405 82.0895 191.185 82.6157 188.832 82.7034C186.86 82.7765 184.873 82.7472 182.9 83.0834C181.775 83.2734 180.723 83.6535 179.759 84.282C178.444 85.159 178.195 85.963 178.955 87.3808C179.496 88.3894 180.182 89.3249 180.825 90.275C181.775 91.6782 182.812 93.0084 183.689 94.4555C185.063 96.7211 185.72 99.1914 185.326 101.896C184.946 104.453 183.748 106.515 181.731 108.035C179.817 109.467 177.669 110.286 175.346 110.666C173.651 110.958 171.942 111.177 170.393 112.025C168.976 112.814 168.713 113.253 169.283 114.802C169.969 116.644 170.831 118.427 171.606 120.24C172.57 122.506 173.228 124.844 173.418 127.344C174.002 134.681 167.851 144.402 158.091 144.183C156.308 144.139 154.526 144.183 152.743 144.241C149.558 144.343 147.396 146.01 146.241 149.035C145.832 150.117 145.467 151.228 145.277 152.368C143.757 161.621 138.249 167.453 130.242 171.019C124.968 173.373 119.693 175.668 114.053 177.056C105.579 179.146 97.09 179.57 88.4988 178.211C80.5212 176.954 72.5144 176.267 64.42 176.574C58.3272 176.808 52.2783 176.121 46.507 173.797C44.403 172.949 42.4451 171.867 40.5895 170.508C36.2501 167.336 34.1023 162.878 33.4156 157.557C33.1964 155.862 33.1087 154.151 33.0211 152.441C32.9334 150.936 32.7142 149.445 32.2613 148.012C31.3554 145.191 29.6898 143.13 26.9137 142.122C24.9266 141.391 22.9249 140.66 21.0109 139.768C15.3857 137.152 11.8498 132.723 10.6809 126.408C9.86273 122.009 10.5056 117.813 12.8287 113.998C13.9246 112.201 15.1373 110.505 16.2769 108.736C17.2705 107.172 17.8841 105.477 18.1033 103.591C18.3517 101.428 17.6796 99.6883 16.1162 98.2997C14.4506 96.8088 12.5658 95.6833 10.6225 94.6601C8.34319 93.4615 6.44377 91.8098 4.96806 89.6465C1.73904 84.9105 2.17737 78.9468 6.0931 74.8248C7.05743 73.8016 8.13864 72.8807 9.14679 71.8868C10.5787 70.4835 11.4845 68.788 11.7621 66.727C11.9229 65.5722 11.7037 64.5783 11.0462 63.6428C10.228 62.4442 9.14679 61.5672 8.02175 60.7194C5.93238 59.1554 3.91607 57.5036 2.32348 55.3549C-0.920148 50.9698 -0.730206 45.3715 2.82025 41.2495C4.12063 39.7586 5.62555 38.5161 7.33503 37.6099C10.4326 35.9581 11.806 33.3709 11.8644 29.819C11.8936 27.568 11.8936 25.3023 12.4489 23.0952C13.4862 18.9586 15.3272 15.3189 18.3517 12.3663C23.8308 7.00184 32.086 8.47816 35.578 15.4066C37.5505 19.3386 37.9011 23.4898 37.229 27.7872C36.893 29.9506 36.4985 32.0993 36.177 34.2626C35.914 36.002 35.9725 36.0605 37.7258 36.2797C39.1723 36.4551 40.6041 36.7182 41.963 37.2444C46.7115 39.0862 48.7717 44.4945 46.5654 49.2158C45.6888 51.1014 44.3592 52.6216 42.8835 54.0102C41.6561 55.1649 40.2973 56.1443 38.9531 57.1236C37.7988 57.9714 36.8491 59.0092 36.3378 60.3978C35.7095 62.1372 36.1186 62.985 37.8573 63.4089C38.7486 63.6282 39.6837 63.7159 40.6041 63.7597C41.8607 63.8036 43.1172 63.7597 44.3738 63.7451C51.7377 63.6866 56.5447 69.7673 55.1128 77.2951C54.3823 81.154 52.3806 84.2235 49.5753 86.7669C48.2311 87.9801 46.8138 89.1056 45.455 90.3042C44.4322 91.2105 43.5994 92.2337 43.2487 93.6369C42.825 95.3763 43.3802 96.4288 45.0605 96.8526C45.7618 97.0281 46.4924 97.0865 47.2229 97.0865C48.8009 97.1011 50.3935 97.0865 51.9715 97.028C60.5919 96.7357 63.704 105.243 61.2202 111.353C60.5189 113.078 59.613 114.656 58.4733 116.089C57.0415 117.887 55.5219 119.597 54.09 121.38C52.5121 123.324 50.9779 125.297 50.3204 127.811C49.9405 129.259 49.3853 130.896 50.6857 132.05C51.8838 133.117 53.3595 132.416 54.6453 131.919C56.0041 131.393 57.2752 130.633 58.634 130.121C61.191 129.171 63.7917 128.411 66.5678 129.098C69.8699 129.902 72.3245 131.773 73.6979 135.018C74.1655 136.129 74.56 137.283 74.9837 138.438C77.5844 136.45 78.2273 132.518 76.401 129.887C75.4805 128.557 74.37 127.358 73.1719 126.291C71.7693 125.049 70.3666 123.777 69.1539 122.33C64.1132 116.293 66.0564 110.783 71.3894 107.304C72.8359 106.354 74.4139 105.637 75.9334 104.819C77.1169 104.176 78.2127 103.445 79.0017 102.276C80.0537 100.697 80.1121 99.2645 79.0309 97.7297C78.3734 96.7942 77.599 95.9318 76.8539 95.0694C75.349 93.3299 73.8586 91.5905 72.8651 89.4711C71.3163 86.1822 71.4478 83.0103 73.4495 79.9554C74.4139 78.4791 75.7581 77.5289 77.3507 76.9443C78.841 76.4034 80.3605 75.9357 81.8654 75.3949C82.669 75.1025 83.4873 74.7809 84.2324 74.3571C86.7747 72.8661 87.5199 70.542 86.3802 67.7355C85.4743 65.5284 84.4954 63.3651 83.6041 61.1579C82.8005 59.1992 82.3038 57.1382 82.0116 55.0334C81.7632 53.2501 81.8216 51.496 82.2599 49.742C83.4142 45.0353 86.9939 42.2142 91.6986 42.3312C93.4081 42.375 95.1322 42.4773 96.8417 42.5797C99.1064 42.6966 100.757 41.6296 102.043 39.7732C103.285 37.9899 103.811 35.9728 104.059 33.8387C104.293 31.8069 104.425 29.7605 104.673 27.7141C105.316 22.2912 107.858 17.76 111.087 13.6087C114.755 8.93128 119.255 5.26241 124.31 2.32439C128.927 -0.350523 133.661 -0.65748 138.614 1.28658C142.589 2.8506 145.014 5.73016 145.964 9.98371C148.17 19.894 146.475 29.0004 140.601 37.2006C139.228 39.13 137.825 41.0303 136.408 42.9159C135.152 44.5968 135.064 46.4093 135.751 48.3388C136.218 49.6251 136.788 50.8675 137.489 52.0223C138.527 53.7178 139.199 55.5596 139.769 57.4598C141.113 61.8449 140.134 68.2325 133.91 71.1121C133.311 71.3898 132.682 71.6237 132.083 71.8868C127.992 73.7139 126.823 77.2658 129.19 81.154C130.841 83.8581 131.996 86.7084 132.332 89.9096C132.755 93.9292 131.221 97.0427 127.729 98.8552C126.56 99.4691 125.304 99.9222 124.047 100.361C122.761 100.814 121.68 101.589 120.76 102.568C119.635 103.766 119.372 105.155 120.015 106.719C120.57 108.064 121.461 109.175 122.294 110.315C124.369 113.107 126.107 116.074 126.75 119.597C127.963 126.174 124.588 134.565 115.821 135.281C115.558 135.295 115.295 135.325 115.032 135.354C110.751 135.953 109.115 137.853 108.94 142.487L108.896 142.472Z" fill="url(#paint0_linear_152_1274)"/>
<path d="M163.774 128.571C163.672 127.095 163.205 125.385 162.459 123.762C161.67 122.008 161.13 120.196 160.867 118.281C160.253 113.794 162.138 109.993 166.083 107.976C167.383 107.318 168.757 106.792 170.086 106.207C171.679 105.506 173.184 104.658 174.484 103.489C176.369 101.793 176.647 100.36 175.668 98.0364C174.923 96.2823 173.973 94.6452 173.052 92.9789C171.591 90.304 170.744 87.4537 171.314 84.3402C172.015 80.5106 176.077 77.2071 179.832 77.3533C180.402 77.3825 180.913 77.4849 180.986 78.2011C181.059 78.8735 180.635 79.1951 180.095 79.3558C179.394 79.5605 178.678 79.6774 177.991 79.8967C174.221 81.1391 172.599 83.9748 173.388 87.9506C173.71 89.5731 174.221 91.1079 175.127 92.4965C176.121 94.0313 176.895 95.6977 177.626 97.3932C178.838 100.214 178.444 102.436 176.281 104.673C174.908 106.09 173.242 107.07 171.489 107.888C170.174 108.517 168.801 109.014 167.471 109.642C163.789 111.382 162.313 114.32 162.956 118.442C163.175 119.874 163.584 121.234 164.169 122.549C164.841 124.04 165.338 125.589 165.645 127.212C166.141 129.887 165.528 132.24 163.818 134.272C161.933 136.508 159.523 137.912 156.776 138.613C154.73 139.139 152.641 139.505 150.566 139.87C147.176 140.455 144.327 141.975 142.063 144.679C140.499 146.536 139.067 148.494 137.665 150.497C134.114 155.569 130.082 160.129 124.924 163.55C121.11 166.079 117.019 167.92 112.695 169.265C112.388 169.367 112.052 169.426 111.73 169.441C111.277 169.441 111.014 169.134 110.883 168.71C110.781 168.344 110.941 168.037 111.19 167.789C111.643 167.35 112.227 167.204 112.797 167.029C122.411 164.061 129.965 158.171 135.721 149.722C137.402 147.267 139.155 144.869 141.142 142.662C143.538 140.002 146.504 138.526 149.909 137.868C152.042 137.458 154.204 137.108 156.323 136.581C158.544 136.026 160.502 134.901 162.08 133.161C163.161 131.977 163.818 130.588 163.789 128.601L163.774 128.571Z" fill="#DCF3FF"/>
<path d="M125.143 88.7109C125.187 90.7719 124.325 92.336 123.054 93.7246C121.666 95.2301 119.942 96.2533 118.13 97.1157C116.815 97.7443 115.485 98.3435 114.302 99.2498C111.526 101.355 110.781 104.117 112.125 107.362C112.841 109.072 113.864 110.578 115.032 111.996C115.88 113.034 116.742 114.101 117.472 115.226C121.724 121.804 118.539 127.519 114.828 130.443C113.454 131.524 111.906 132.357 110.255 132.854C103.826 134.769 100.085 139.447 97.996 145.747C96.9879 148.787 96.1697 151.886 95.2346 154.955C93.6274 160.247 91.8594 165.48 88.7035 170.055C88.3966 170.493 88.0898 170.961 87.7099 171.326C87.3447 171.677 86.8479 171.677 86.4534 171.312C86.1173 171.005 86.1027 170.581 86.2634 170.186C86.3803 169.879 86.5703 169.587 86.7602 169.309C89.697 165.158 91.4065 160.422 92.9114 155.598C93.8757 152.47 94.7378 149.313 95.6875 146.185C96.6226 143.101 97.9668 140.221 99.8808 137.619C101.809 135.003 104.22 133.044 107.186 131.846C108.355 131.378 109.539 130.939 110.693 130.443C112.87 129.507 114.726 128.177 116.041 126.072C117.735 123.353 117.896 120.576 116.508 117.696C115.734 116.089 114.638 114.715 113.513 113.384C112.154 111.777 111 110.037 110.211 108.064C108.633 104.103 109.539 100.463 112.797 97.8173C114.053 96.7941 115.485 96.0779 116.932 95.4055C118.378 94.7331 119.781 93.9731 120.994 92.8914C123.229 90.8742 123.726 88.7109 122.513 85.9045C122.192 85.159 121.753 84.4574 121.374 83.7411C121.067 83.1711 120.833 82.5425 121.476 82.104C122.192 81.6217 122.718 82.0748 123.112 82.7033C124.296 84.5597 125.216 86.5038 125.143 88.7256V88.7109Z" fill="white"/>
<path d="M77.1895 87.5413C77.321 86.4889 77.7301 85.568 78.3583 84.7495C79.4395 83.3316 80.7253 82.1769 82.2156 81.256C83.3991 80.5106 84.5972 79.7943 85.7807 79.0342C86.6866 78.4496 87.4902 77.7479 88.2207 76.944C90.763 74.1522 91.815 70.9364 90.7922 67.1506C90.3831 65.6304 89.9156 64.1395 89.4626 62.6486C88.9951 61.0845 88.5714 59.5059 88.4107 57.8542C88.0454 54.1561 89.5941 51.525 92.5163 49.6102C93.992 48.6455 95.6577 48.1923 97.3672 47.9292C98.3461 47.7684 99.325 47.6369 100.319 47.5346C103.854 47.1838 106.309 45.2397 107.931 42.0386C109.392 39.159 110.137 36.0456 110.736 32.8883C111.087 31.0173 111.467 29.1317 111.89 27.2754C114.024 18.052 119.474 11.5036 127.363 6.97234C128.065 6.56306 129 5.78836 129.584 6.91387C130.183 8.054 129.029 8.41943 128.313 8.81408C125.318 10.495 122.644 12.5853 120.336 15.1579C116.785 19.1191 114.564 23.7819 113.541 29.0733C113.045 31.6166 112.533 34.16 111.978 36.7034C111.481 38.9836 110.678 41.1615 109.611 43.2079C107.697 46.8914 104.79 49.0986 100.728 49.5956C99.2228 49.771 97.7324 50.0487 96.2275 50.3264C95.2486 50.5164 94.3427 50.9257 93.4953 51.4812C91.216 52.9721 90.1055 55.0039 90.4416 57.8688C90.6169 59.3743 91.0406 60.8068 91.4643 62.2393C91.8881 63.6718 92.341 65.1042 92.7355 66.5513C93.992 71.3018 92.6624 75.3069 89.3896 78.7273C88.0746 80.1013 86.5112 81.1099 84.904 82.0746C83.7644 82.7616 82.5955 83.4047 81.602 84.3256C80.5061 85.3342 79.4395 86.3574 79.1912 87.9652C79.0743 88.6522 78.7967 89.1492 78.0223 89.003C77.4671 88.9007 77.1895 88.3599 77.2333 87.556L77.1895 87.5413Z" fill="#DCF3FF"/>
<path d="M176.135 53.1034C175.36 52.9719 174.119 52.7818 172.877 52.5772C171.576 52.3579 170.261 52.1679 168.932 52.3872C167.018 52.6941 166.185 53.7173 166.17 55.7199C166.17 56.9769 166.506 58.1463 166.813 59.3303C167.704 62.6922 167.471 65.9664 166.126 69.1529C165.045 71.7255 163.16 73.4649 160.706 74.5758C158.821 75.4382 156.819 75.8621 154.803 76.2422C152.991 76.593 151.165 76.9584 149.514 77.8793C147.074 79.2386 146.255 81.0073 146.781 83.7992C146.986 84.9539 147.381 86.0356 147.863 87.088C148.067 87.5119 148.272 87.9358 148.491 88.3743C148.827 89.0759 149.192 89.8506 148.286 90.3183C147.512 90.713 147.103 90.0552 146.752 89.4413C145.656 87.468 144.824 85.3924 144.634 83.0975C144.414 80.6126 145.189 78.5224 147.147 76.973C148.696 75.7452 150.478 75.0436 152.363 74.6197C154.102 74.225 155.855 73.8742 157.579 73.4649C164.519 71.857 165.951 65.7617 165.045 60.8358C164.841 59.7688 164.505 58.7163 164.315 57.6493C163.423 52.7088 165.922 49.8146 170.773 50.2092C172.278 50.3408 173.782 50.6039 175.273 50.867C178.107 51.364 180.504 50.487 182.505 48.426C183.996 46.8766 185.442 45.2833 186.903 43.6901C190.6 39.6558 195.114 37.3609 200.433 36.747C200.623 36.7177 200.827 36.6885 201.017 36.6739C201.719 36.6154 202.42 36.6593 202.493 37.5801C202.551 38.3548 201.923 38.6033 201.324 38.7203C200.55 38.8664 199.746 38.8957 198.972 39.0711C194.881 40.0066 191.286 41.8922 188.393 45.1079C186.815 46.8619 185.237 48.6014 183.557 50.2531C181.468 52.2995 179.115 53.2057 176.106 53.118L176.135 53.1034Z" fill="white"/>
<path d="M43.2629 131.977C43.2045 127.27 44.9139 123.09 47.2663 119.143C48.0991 117.755 48.9466 116.366 49.5164 114.817C49.9985 113.516 50.2469 112.2 50.0278 110.797C49.6187 108.254 48.2891 106.558 45.849 105.9C44.1834 105.447 42.547 104.979 40.9544 104.263C37.3601 102.655 35.5922 99.732 35.3584 95.7854C35.11 91.5465 36.5711 87.8776 39.0696 84.6034C40.3407 82.937 41.7141 81.373 43.0145 79.7359C43.7305 78.8296 44.3295 77.8503 44.6363 76.7102C45.2938 74.2984 44.2564 72.5151 41.9333 71.9743C40.779 71.6965 39.5663 71.7696 38.4267 71.3604C37.5354 71.0388 36.7026 70.6587 36.2058 69.7671C35.9136 69.2409 35.899 68.7001 36.3519 68.2762C36.761 67.9107 37.2432 67.9692 37.5939 68.3785C38.5143 69.4601 39.7563 69.5771 41.0128 69.7086C41.4073 69.7525 41.8018 69.8256 42.1817 69.8987C45.8929 70.6295 47.69 73.816 46.5065 77.558C46.0974 78.8735 45.3961 80.0429 44.5633 81.0953C43.3506 82.6301 42.0648 84.1064 40.8521 85.6412C38.6605 88.4184 37.2724 91.5465 37.3455 95.2153C37.4185 98.6942 38.9088 101.223 42.1233 102.509C43.4236 103.035 44.7532 103.415 46.0828 103.796C50.7583 105.126 53.0815 109.423 51.7811 114.276C51.2697 116.205 50.3492 117.945 49.3264 119.626C48.0699 121.716 46.8864 123.85 46.1559 126.218C44.7824 130.618 44.8555 134.959 46.7695 139.198C47.0179 139.753 47.2225 140.338 47.4562 140.894C47.7192 141.551 47.6754 142.151 46.9887 142.443C46.2728 142.75 45.8783 142.253 45.6153 141.654C44.4172 138.979 43.3506 136.26 43.2483 133.249C43.2483 132.84 43.2483 132.43 43.2483 131.963L43.2629 131.977Z" fill="white"/>
<path d="M121.534 47.7392C121.139 52.8405 119.021 57.021 115.061 60.1344C113.279 61.5377 111.321 62.7216 109.553 64.1395C106.236 66.7852 104.746 70.381 104.79 74.693C104.804 75.9354 105.111 77.1194 105.447 78.3034C106.017 80.3498 106.543 82.3815 106.558 84.5302C106.587 88.6522 105.228 92.1603 102.233 94.9229C101.941 95.2007 101.634 95.4638 101.298 95.683C100.801 96.0192 100.29 96.0484 99.8951 95.5368C99.5591 95.0983 99.6614 94.6306 99.9974 94.2359C100.26 93.929 100.553 93.6513 100.859 93.3881C104.249 90.2309 105.067 86.2697 104.235 81.8115C103.957 80.3352 103.446 78.9173 103.153 77.441C101.999 71.4772 103.636 66.4636 108.18 62.6047C109.904 61.143 111.861 59.9444 113.688 58.585C116.61 56.4217 118.363 53.4398 119.225 49.8587C119.605 48.3093 119.62 46.7452 119.196 45.1958C118.962 44.3481 118.787 43.471 118.539 42.6232C117.238 38.092 118.188 33.97 120.686 30.1549C121.651 28.6786 122.79 27.3485 124.003 26.0914C125.8 24.2497 127.51 22.3494 127.802 19.5576C127.86 18.9291 128.255 18.549 128.898 18.6513C129.526 18.7537 129.716 19.2506 129.745 19.8499C129.789 20.6977 129.526 21.4724 129.234 22.2325C128.562 23.9719 127.481 25.4336 126.209 26.7492C124.894 28.1085 123.609 29.4825 122.542 31.0612C120.204 34.4962 119.298 38.1797 120.526 42.3163C121.052 44.0703 121.636 45.839 121.534 47.7538V47.7392Z" fill="white"/>
<path d="M86.5843 100.185C86.5259 102.392 85.8976 104.293 84.5388 105.901C83.3115 107.362 81.8358 108.502 80.214 109.438C78.5921 110.373 77.0142 111.367 75.6992 112.741C73.9459 114.568 73.6975 116.22 74.9686 118.471C75.4654 119.348 76.0937 120.167 76.7073 120.956C77.8324 122.389 78.9866 123.792 80.1409 125.21C83.18 128.981 83.7352 133.322 82.7563 137.97C81.7043 142.94 79.3957 147.296 76.5174 151.359C74.5303 154.181 72.4555 156.929 70.4685 159.735C68.6275 162.337 67.0641 165.099 66.2751 168.271C66.2167 168.534 66.1144 168.798 65.9975 169.046C65.7783 169.514 65.4423 169.835 64.9163 169.704C64.3903 169.572 64.1273 169.148 64.1857 168.637C64.2442 168.037 64.3903 167.424 64.5656 166.839C65.34 164.193 66.5673 161.781 68.1307 159.545C70.147 156.665 72.2218 153.83 74.2819 150.979C77.1895 146.945 79.6295 142.662 80.7399 137.707C81.675 133.541 81.1929 129.697 78.4314 126.335C77.1895 124.83 75.9622 123.309 74.7348 121.775C73.8874 120.722 73.113 119.611 72.6455 118.31C71.7981 115.928 72.0464 113.75 73.7413 111.82C75.1878 110.183 76.9265 108.956 78.7675 107.874C80.1555 107.07 81.4851 106.193 82.5955 104.98C84.8602 102.524 85.1525 100.068 83.5014 97.1742C83.2384 96.7064 82.9316 96.2533 82.7124 95.7563C82.4933 95.274 82.6101 94.8062 83.0485 94.4993C83.516 94.1777 83.9836 94.3093 84.2904 94.7185C85.5323 96.341 86.5697 98.0804 86.5989 100.171L86.5843 100.185Z" fill="white"/>
<path d="M152.188 100.726C151.925 104.073 150.478 106.66 147.512 108.254C146.095 109.014 144.561 109.452 143.042 109.862C141.756 110.198 140.499 110.622 139.345 111.294C137.723 112.23 137.343 113.165 137.796 115.036C138.147 116.439 138.804 117.711 139.491 118.953C141.58 122.695 141.975 126.686 141.084 130.837C139.652 137.488 135.59 141.712 129.526 144.007C126.853 145.016 124.062 145.586 121.3 146.214C116.8 147.252 113.381 149.795 110.795 153.669C110.269 154.458 109.743 155.233 109.188 156.008C108.808 156.534 108.341 156.972 107.698 156.548C107.055 156.124 107.142 155.511 107.508 154.94C110.401 150.234 113.776 146.112 119.313 144.65C121.739 144.007 124.179 143.393 126.604 142.75C131.031 141.581 134.889 139.446 137.256 135.222C139.886 130.501 140.441 125.59 138.015 120.547C137.343 119.143 136.554 117.799 136.072 116.293C134.947 112.814 135.809 110.695 139.024 109.102C140.163 108.546 141.361 108.166 142.559 107.815C143.831 107.435 145.102 107.055 146.3 106.514C148.608 105.476 149.836 103.547 150.128 100.96C150.186 100.492 150.157 99.9951 150.215 99.5274C150.303 98.9427 150.552 98.4603 151.224 98.4895C151.779 98.5188 152.013 98.9427 152.086 99.4397C152.144 99.8489 152.159 100.258 152.188 100.711V100.726Z" fill="#DCF3FF"/>
<path d="M29.8356 99.1328C29.5287 102.159 30.4054 104.804 32.1733 107.187C32.6555 107.845 33.1376 108.488 33.649 109.116C36.2205 112.317 37.0826 115.986 36.5128 120.05C36.3959 120.927 36.2498 121.818 36.016 122.666C34.7741 127.241 35.4316 131.597 37.2579 135.865C38.5729 138.935 40.1801 141.844 41.8604 144.709C42.9854 146.638 44.1105 148.568 45.2939 150.468C47.6171 154.21 49.0928 158.273 49.8379 162.629C50.1155 164.237 50.4224 165.859 50.7146 167.467C50.7584 167.672 50.8169 167.862 50.8461 168.067C50.9045 168.768 50.6415 169.309 49.9402 169.411C49.2973 169.514 48.9613 169.075 48.8444 168.476C48.6691 167.54 48.4937 166.59 48.3622 165.64C47.5586 159.18 45.0163 153.464 41.5535 148.114C39.4934 144.928 37.667 141.595 36.0452 138.146C34.7302 135.368 33.7659 132.46 33.4445 129.361C33.1961 127.022 33.4445 124.713 33.9851 122.447C34.3357 120.912 34.6572 119.377 34.6572 117.784C34.6572 115.153 33.8682 112.814 32.3194 110.753C31.5889 109.789 30.8583 108.809 30.1424 107.83C27.79 104.6 27.4832 100.931 27.9946 97.0718C28.0092 96.9402 28.0384 96.8087 28.0822 96.6771C28.2576 96.0632 28.506 95.4639 29.2803 95.5955C29.9378 95.7124 30.0401 96.2971 30.0109 96.8671C29.9817 97.6126 29.894 98.3727 29.8356 99.1182V99.1328Z" fill="#DCF3FF"/>
<path d="M24.2838 104.717C24.2692 105.988 23.787 107.903 22.9396 109.686C22.0337 111.587 21.0401 113.443 20.0758 115.299C18.9069 117.536 17.928 119.831 17.4897 122.359C16.9052 125.765 18.0887 128.381 20.6456 130.428C21.7561 131.319 23.0418 131.86 24.3276 132.416C25.7887 133.044 27.2936 133.585 28.6963 134.331C33.5909 136.874 36.1771 141.069 36.7031 146.667C36.8492 148.202 36.5277 148.889 35.8264 148.801C34.7452 148.67 34.789 147.72 34.716 146.916C34.1754 141.434 31.4577 137.663 26.5192 135.602C24.7513 134.857 22.9542 134.141 21.2447 133.264C18.1179 131.656 16.0432 129.127 15.3857 125.473C15.0643 123.66 15.4588 121.935 15.8825 120.211C16.4377 117.93 17.4458 115.855 18.5563 113.838C19.506 112.113 20.4119 110.373 21.2155 108.575C22.4428 105.842 22.5158 103.036 21.7853 100.171C21.1132 97.5834 19.6083 95.6832 17.329 94.4261C16.3354 93.8707 15.3126 93.3883 14.3629 92.789C13.8077 92.4382 13.3109 91.9559 12.858 91.4735C12.3612 90.9473 12.0836 90.2749 12.7119 89.6756C13.2963 89.1055 13.8223 89.5148 14.2461 89.9826C15.0789 90.9034 16.1163 91.4881 17.2121 91.9997C22.209 94.3238 24.2545 98.5335 24.2984 104.746L24.2838 104.717Z" fill="white"/>
<path d="M139.403 23.5626C139.52 27.3045 138.117 30.8565 135.78 34.043C134.538 35.7239 133.15 37.288 131.864 38.9397C131.075 39.9483 130.271 40.9568 129.599 42.0531C128.27 44.2164 128.123 46.5551 129.029 48.9231C129.511 50.1948 130.154 51.3934 130.695 52.6358C132.77 57.4156 132.288 61.8299 128.81 65.7473C127.787 66.902 126.677 67.9983 125.566 69.0654C123.857 70.7025 122.25 72.4126 121.534 74.7952C121.315 75.5261 120.906 76.1108 120.102 75.7599C119.313 75.4091 119.474 74.6929 119.678 73.9913C120.146 72.3834 120.964 70.9802 122.06 69.7816C123.097 68.6415 124.208 67.5598 125.303 66.4781C126.458 65.338 127.539 64.154 128.445 62.7947C129.994 60.4852 130.184 58.0003 129.482 55.3546C129.088 53.8929 128.416 52.5627 127.758 51.218C125.669 47.0083 126.005 43.0471 128.898 39.3636C130.11 37.8288 131.294 36.2648 132.594 34.8177C137.401 29.4971 138.424 23.3726 136.335 16.5464C136.043 15.5671 135.692 14.6023 135.4 13.623C135.21 13.0091 135.151 12.3513 135.867 12.059C136.583 11.7666 136.963 12.249 137.255 12.8483C137.314 12.9652 137.358 13.0968 137.401 13.2283C138.541 16.4587 139.374 19.7475 139.374 23.5626H139.403Z" fill="#DCF3FF"/>
<path d="M8.21134 83.1711C8.34284 80.8616 9.04417 79.1806 10.1254 77.6751C11.0313 76.418 12.0102 75.2048 12.9307 73.9477C17.5039 67.677 17.0656 62.0933 11.5865 56.685C10.6806 55.7934 9.73088 54.931 8.88344 53.9663C5.80054 50.502 5.90281 47.0086 9.19027 43.7051C9.99388 42.9012 10.8851 42.1703 11.791 41.498C15.473 38.7353 17.0802 34.9788 16.9049 30.3306C16.8318 28.6057 16.9925 26.9102 17.4162 25.2438C17.5916 24.5276 17.7815 23.5775 18.7458 23.7967C19.8563 24.0452 19.5494 24.9807 19.3595 25.7993C19.0088 27.3341 18.8919 28.8981 18.9358 30.4767C19.0819 35.695 17.2409 39.9339 13.1352 43.062C12.0686 43.8659 11.002 44.6698 10.1254 45.7223C8.2844 47.9148 8.22595 49.932 10.0815 52.1391C11.1189 53.367 12.3024 54.4779 13.4567 55.6034C15.6775 57.7813 17.1532 60.3831 17.8107 63.4966C18.4244 66.42 18.1614 69.1972 16.7441 71.8429C15.9698 73.2754 15.0639 74.6201 14.0703 75.9064C13.4567 76.7104 12.8138 77.4997 12.2147 78.3182C10.9144 80.1015 9.86238 81.9725 10.476 84.355C10.6221 84.9251 10.5053 85.5098 9.87699 85.6852C9.17566 85.8898 8.73734 85.4513 8.562 84.7789C8.38667 84.1212 8.29901 83.4488 8.24056 83.1711H8.21134Z" fill="#DCF3FF"/>
<path d="M101.181 113.34C101.107 115.927 100.275 118.369 98.083 120.152C97.3525 120.751 96.6219 121.321 95.8768 121.891C93.1884 123.938 91.7857 126.642 91.8003 130.121C91.8003 132.445 91.8003 134.769 91.7273 137.093C91.5519 142.457 90.1639 147.471 87.5339 152.105C85.2108 156.183 82.4785 159.954 79.4979 163.535C79.2057 163.901 78.8696 164.251 78.519 164.529C78.1829 164.792 77.7884 164.836 77.4232 164.544C76.9702 164.193 76.9264 163.71 77.1748 163.272C77.4232 162.804 77.803 162.395 78.1391 161.971C80.7544 158.785 83.1653 155.452 85.2985 151.9C88.206 147.076 89.6671 141.829 89.7694 136.157C89.7986 134.038 89.7694 131.918 89.8132 129.799C89.8571 125.838 91.4935 122.695 94.5326 120.313C95.3216 119.699 96.1398 119.114 96.8849 118.442C99.2665 116.293 99.8509 113.209 98.4483 110.271C98.01 109.35 97.4548 108.502 96.958 107.61C96.695 107.143 96.4028 106.675 96.3443 106.119C96.3005 105.608 96.4174 105.155 96.9434 104.979C97.3525 104.848 97.7908 104.921 97.9954 105.301C99.3396 107.786 101.21 110.037 101.224 113.326L101.181 113.34Z" fill="#DCF3FF"/>
<path d="M159.799 87.1465C159.77 84.1061 160.895 81.7382 162.4 79.5164C164.343 76.6514 167.032 74.6635 169.939 72.9972C171.371 72.164 172.905 71.5062 174.41 70.8046C176.602 69.7668 178.545 68.4074 180.065 66.4195C180.985 65.1917 181.57 63.8615 181.672 62.3121C182.008 57.5324 184.097 53.7027 187.648 50.7062C188.919 49.6246 190.263 48.6306 191.593 47.6074C191.958 47.3297 192.323 47.0227 192.806 46.9496C193.244 46.8912 193.58 47.052 193.799 47.4466C193.974 47.7682 193.974 48.1336 193.726 48.3967C193.361 48.7914 192.966 49.1568 192.542 49.4638C190.818 50.7355 189.124 52.0364 187.604 53.5712C185.398 55.8222 183.995 58.5556 183.791 61.7128C183.498 66.1418 181.117 69.0067 177.8 71.3016C176.529 72.1786 175.126 72.7925 173.738 73.4065C171.415 74.4296 169.267 75.7452 167.266 77.3384C165.951 78.3909 164.811 79.6187 163.861 81.0365C162.064 83.6968 161.392 86.591 162.123 89.7921C162.517 91.5169 162.853 93.2564 163.204 94.9958C163.291 95.4635 163.408 95.9313 163.218 96.4136C163.058 96.8229 162.78 97.1006 162.342 97.1006C161.976 97.1006 161.728 96.8814 161.553 96.5744C161.494 96.4575 161.436 96.3259 161.407 96.1944C160.881 93.1102 159.799 90.1137 159.814 87.1611L159.799 87.1465Z" fill="#DCF3FF"/>
<path d="M30.7557 22.2617C30.7996 24.4834 30.1859 26.5883 29.6745 28.7078C29.1047 31.0319 28.5933 33.3414 28.6079 35.7678C28.6079 38.4281 29.8206 40.1529 32.1584 41.103C33.3273 41.5707 34.5254 41.9508 35.6504 42.5209C38.4411 43.9387 39.2885 46.3359 38.1927 49.347C37.7398 50.5894 36.9654 51.598 36.1618 52.592C35.2267 53.7467 34.2039 54.8284 33.3857 56.0562C31.9685 58.1903 31.1356 60.529 31.7347 63.2039C31.7785 63.4086 31.8077 63.6132 31.8223 63.8032C31.8516 64.3441 31.6178 64.7387 31.1064 64.8703C30.5658 65.0164 30.2005 64.6949 29.9814 64.2417C29.6599 63.5547 29.4992 62.8239 29.4992 62.0638C29.4992 59.462 30.1713 57.0648 31.6324 54.9453C32.3629 53.8929 33.2104 52.9282 34.014 51.9342C34.4377 51.408 34.8906 50.911 35.2851 50.3556C37.5791 47.2275 36.9946 45.1373 33.4734 43.7925C32.5529 43.4417 31.5886 43.1348 30.7119 42.6963C28.1842 41.4392 26.767 39.3782 26.6208 36.4256C26.4747 33.5168 27.0592 30.7249 27.7751 27.9477C28.3157 25.8282 28.8125 23.7087 28.7248 21.487C28.6518 19.7329 28.3742 18.0958 27.0592 16.8095C26.577 16.3418 26.2994 15.7717 26.8254 15.2016C27.3222 14.6608 27.9212 14.8947 28.418 15.304C29.733 16.4002 30.2736 17.935 30.5658 19.5721C30.7265 20.4345 30.6973 21.3408 30.7557 22.2324V22.2617Z" fill="#DCF3FF"/>
<path d="M25.5399 50.1657C25.5691 51.9198 25.0285 53.5276 24.444 55.1355C23.4651 57.8397 22.8514 60.6315 22.7784 63.5257C22.6761 66.9899 23.7573 69.9572 26.1827 72.3836C26.9425 73.1437 27.7315 73.8745 28.4328 74.6931C30.7121 77.3095 31.5742 80.3206 30.6391 83.7995C30.2154 85.3927 29.5871 86.8837 28.988 88.4038C28.915 88.5939 28.8127 88.7693 28.7104 88.9447C28.4328 89.4124 28.0237 89.5878 27.5269 89.4124C26.9863 89.237 26.8548 88.7693 26.9571 88.2723C27.074 87.7461 27.2639 87.2345 27.4539 86.7229C27.9068 85.5097 28.3744 84.3111 28.6958 83.054C29.3679 80.5107 28.725 78.3327 27.1324 76.374C26.5772 75.7017 25.9636 75.0585 25.3353 74.4738C21.405 70.8927 20.2361 66.3468 20.8936 61.1285C21.1858 58.8775 21.6972 56.6995 22.4423 54.5801C22.793 53.5569 23.2313 52.5191 23.3628 51.452C23.655 49.0841 23.5528 46.7746 21.2589 45.3129C20.7329 44.9767 20.2215 44.5528 20.6014 43.8366C21.0251 43.0619 21.7264 43.208 22.3401 43.5442C23.3482 44.0997 24.181 44.8744 24.6486 45.9853C25.2184 47.3154 25.5252 48.704 25.5106 50.1657H25.5399Z" fill="white"/>
<path d="M205.459 44.9328C205.415 45.0936 205.357 45.3567 205.255 45.6052C204.217 48.0754 202.975 50.3703 200.755 51.9782C198.972 53.2791 197.116 54.4631 195.246 55.6032C193.931 56.4071 192.645 57.2403 191.608 58.4097C189.577 60.6899 188.554 63.5549 190.468 66.8291C191.155 67.9984 191.871 69.1532 192.251 70.4833C192.923 72.8513 192.339 75.0731 190.644 76.4032C190.279 76.6809 189.855 76.9148 189.431 77.061C188.964 77.2218 188.496 77.1195 188.233 76.6225C187.955 76.1109 188.175 75.7016 188.554 75.3654C188.759 75.19 188.993 75.0585 189.197 74.8977C190.498 73.9037 190.731 72.5736 190.293 71.068C190.001 70.0741 189.49 69.197 188.949 68.3346C185.998 63.5695 187.707 59.2721 190.746 56.3487C191.813 55.3109 193.055 54.5215 194.297 53.7322C195.538 52.9429 196.78 52.1536 198.022 51.3935C200.287 49.9757 202.07 48.1193 203.092 45.5467C203.282 45.0497 203.589 44.582 203.896 44.1581C204.1 43.8657 204.466 43.7927 204.802 43.9096C205.211 44.0558 205.43 44.392 205.474 44.9474L205.459 44.9328Z" fill="white"/>
<path d="M146.825 134.403C146.27 134.36 145.934 134.169 145.758 133.775C145.612 133.453 145.656 133.088 145.904 132.825C146.182 132.547 146.503 132.299 146.825 132.065C147.95 131.231 149.119 130.442 150.215 129.58C153.224 127.212 154.583 124.171 153.619 120.254C153.371 119.26 153.093 118.281 152.83 117.301C151.778 113.443 152.582 110.154 155.562 107.508C156.614 106.573 157.666 105.637 158.733 104.716C159.23 104.292 159.814 104.088 160.311 104.716C160.808 105.33 160.457 105.871 159.989 106.309C159.01 107.216 158.017 108.122 156.994 108.999C154.525 111.133 153.853 113.779 154.846 116.907C155.197 118.018 155.475 119.129 155.708 120.269C156.497 124.318 155.372 127.738 152.406 130.413C150.916 131.758 149.236 132.854 147.628 134.053C147.365 134.243 147.044 134.33 146.839 134.433L146.825 134.403Z" fill="white"/>
<path d="M55.229 159.311C55.1998 154.809 56.5148 150.702 58.8379 146.93C60.9711 143.466 63.1189 140.031 64.3316 136.07C64.5215 135.441 64.843 134.857 65.5735 135.047C66.421 135.266 66.4356 135.997 66.231 136.698C65.5151 139.052 64.5654 141.303 63.3381 143.422C62.5198 144.825 61.6578 146.199 60.8104 147.588C57.5667 152.923 56.2225 158.595 58.0051 164.807C58.1512 165.333 58.2535 165.874 58.2973 166.415C58.3557 167.029 58.1073 167.526 57.5083 167.657C56.8654 167.789 56.5294 167.365 56.3833 166.78C55.7842 164.325 55.0683 161.898 55.229 159.311Z" fill="white"/>
<path d="M104.292 163.9C104.234 164.017 104.132 164.251 104.015 164.485C103.357 165.815 102.715 167.145 102.057 168.461C101.882 168.812 101.663 169.163 101.414 169.455C101.195 169.703 100.874 169.82 100.523 169.689C100.114 169.528 99.7777 169.148 99.8946 168.768C100.552 166.648 101.341 164.558 102.846 162.892C103.124 162.585 103.577 162.614 103.942 162.863C104.219 163.067 104.38 163.36 104.322 163.871L104.292 163.9Z" fill="white"/>
</g>
<defs>
<linearGradient id="paint0_linear_152_1274" x1="107.509" y1="0.0366211" x2="107.509" y2="178.995" gradientUnits="userSpaceOnUse">
<stop stop-color="#B0DFFF"/>
<stop offset="1" stop-color="white"/>
</linearGradient>
<clipPath id="clip0_152_1274">
<rect width="215" height="179" fill="white"/>
</clipPath>
</defs>
</svg>
