<svg width="1728" height="993" viewBox="0 0 1728 993" fill="none" xmlns="http://www.w3.org/2000/svg">
<path fill-rule="evenodd" clip-rule="evenodd" d="M50 0C22.3858 0 8.58307e-06 22.3858 8.58307e-06 50.0001L-8.95907e-06 944.054L0 992.871L0.0144043 992.853C0.0144043 992.853 52.0165 994.73 89.5786 984.415C127.141 974.1 167.597 966.601 225.372 966.601C283.148 966.601 326.023 976.154 349.62 982.542C385.116 992.151 429.014 992.821 437.664 992.858H437.241C437.241 992.858 489.243 994.735 526.805 984.42C564.367 974.104 604.823 966.605 662.599 966.605C720.374 966.605 763.249 976.159 786.846 982.547C823.564 992.486 869.273 992.861 875.657 992.864C877.522 992.927 928.301 994.548 965.169 984.424C1002.73 974.109 1043.19 966.609 1100.96 966.609C1158.74 966.609 1201.61 976.163 1225.21 982.551C1260.71 992.159 1304.6 992.83 1313.25 992.866H1312.83C1312.83 992.866 1364.83 994.743 1402.39 984.428C1439.96 974.113 1480.41 966.614 1538.19 966.614C1595.96 966.614 1638.84 976.167 1662.44 982.556C1702 993.265 1752 992.871 1752 992.871V944.054H1743V50C1743 22.3858 1720.61 0 1693 0H50Z" fill="#041DFF"/>
</svg>
